<?xml version="1.0" encoding="UTF-8"?>
<!-- Generated by Pixelmator Pro 3.5.6 -->
<svg width="400" height="400" viewBox="0 0 400 400" xmlns="http://www.w3.org/2000/svg">
    <path id="Path" fill="#ef54ac" stroke="none" d="M 399.981934 200.275406 L 310.810516 42.593811 C 304.117493 30.839386 291.791443 23.460419 278.405365 23.460419 L 121.763031 23.460419 C 108.356148 23.460419 96.040527 30.839386 89.337074 42.583435 L 78.091934 62.537842 L 278.145538 62.537842 L 255.915039 101.615295 L 55.871834 101.615295 L 33.630951 140.973328 L 233.694931 140.973328 L 211.454056 180.050751 L 11.421248 180.050751 L 0.1657 200.275406 L 11.140638 219.398422 L 211.194244 219.398422 L 233.15451 258.486267 L 33.10091 258.486267 L 55.341793 297.56366 L 255.374603 297.56366 L 277.615479 336.641113 L 77.5411 336.641113 L 89.337074 357.416565 C 96.030128 369.160614 108.356148 376.539581 121.731857 376.539581 L 278.394958 376.539581 C 291.791443 376.539581 304.107086 369.160614 310.80014 357.416565 Z"/>
</svg>
