<?xml version="1.0" encoding="UTF-8"?>
<!-- Generated by Pixelmator Pro 3.5.6 -->
<svg width="400" height="400" viewBox="0 0 400 400" xmlns="http://www.w3.org/2000/svg">
    <path id="Path" fill="#ff3621" stroke="none" d="M 348.380951 167.428558 L 198.857132 252.19046 L 40 161.904755 L 32.571442 165.90477 L 32.571442 231.428574 L 199.047623 326.285706 L 348.571442 241.523788 L 348.571442 276.380981 L 199.047623 361.142883 L 40 270.857178 L 32.571442 274.857117 L 32.571442 285.904785 L 199.047623 380.761902 L 366.095276 285.904785 L 366.095276 220.380981 L 358.666656 216.380966 L 198.857132 306.666656 L 49.904755 221.904755 L 49.904755 187.619049 L 198.857132 271.80954 L 365.904785 176.952362 L 365.904785 112.380951 L 357.333344 107.80954 L 198.857132 197.523834 L 57.904751 117.333344 L 198.857132 37.714264 L 315.238098 103.238129 L 325.714294 97.714264 L 325.714294 89.714294 L 198.857132 18.095245 L 32.380951 112.571442 L 32.380951 122.666656 L 198.857132 217.523834 L 348.380951 132.761932 L 348.380951 167.428558 Z"/>
</svg>
