<?xml version="1.0" encoding="UTF-8"?>
<svg width="400" height="400" viewBox="0 0 32 32" fill="none" xmlns="http://www.w3.org/2000/svg">
    <path d="M-4.57764e-05 15.0154C-4.57764e-05 9.99684 -4.57764e-05 7.48757 1.1503 5.66024C1.73315 4.73438 2.51157 3.94966 3.42999 3.36209C5.24265 2.20243 7.73176 2.20243 12.71 2.20243H16.1092C21.0874 2.20243 23.5765 2.20243 25.3892 3.36209C26.3076 3.94966 27.086 4.73438 27.6689 5.66024C28.8192 7.48757 28.8192 9.99684 28.8192 15.0154V19.187C28.8192 24.2056 28.8192 26.7149 27.6689 28.5422C27.086 29.468 26.3076 30.2528 25.3892 30.8403C23.5765 32 21.0874 32 16.1092 32H12.71C7.73176 32 5.24265 32 3.42999 30.8403C2.51157 30.2528 1.73315 29.468 1.1503 28.5422C-4.57764e-05 26.7149 -4.57764e-05 24.2056 -4.57764e-05 19.187V15.0154Z" fill="#0E0E0E"/>
    <path d="M3.08429 12.813C3.08429 7.79441 3.08429 5.28514 4.23464 3.45781C4.81749 2.53195 5.59591 1.74723 6.51433 1.15966C8.32699 0 10.8161 0 15.7943 0H19.1935C24.1718 0 26.6609 0 28.4735 1.15966C29.392 1.74723 30.1704 2.53195 30.7532 3.45781C31.9036 5.28514 31.9036 7.79441 31.9036 12.813V16.9846C31.9036 22.0032 31.9036 24.5124 30.7532 26.3398C30.1704 27.2656 29.392 28.0503 28.4735 28.6379C26.6609 29.7976 24.1718 29.7976 19.1935 29.7976H15.7943C10.8161 29.7976 8.32699 29.7976 6.51433 28.6379C5.59591 28.0503 4.81749 27.2656 4.23464 26.3398C3.08429 24.5124 3.08429 22.0032 3.08429 16.9846V12.813Z" fill="#706BF4"/>
    <path fill-rule="evenodd" clip-rule="evenodd" d="M15.793 22.4462H13.7095C16.8118 21.3059 19.0215 18.357 19.0215 14.8988C19.0215 11.6236 17.0395 8.80518 14.1943 7.54741H16.2779C19.123 8.80518 21.105 11.6236 21.105 14.8988C21.105 18.357 18.8953 21.3059 15.793 22.4462ZM17.9896 22.4462H18.2924C18.3887 22.4462 18.484 22.4449 18.5783 22.4423C19.9934 22.4029 21.1871 22.0681 22.1594 21.438C22.2909 21.3521 22.4181 21.2627 22.541 21.1699C23.4015 20.5197 24.0521 19.698 24.4929 18.7047C24.5577 18.5628 24.6185 18.4192 24.6752 18.2738C25.0723 17.256 25.2708 16.1525 25.2708 14.9632C25.2708 14.8783 25.2698 14.7938 25.2677 14.7098C25.2374 13.4495 24.9791 12.2943 24.4929 11.2441C24.4614 11.1741 24.4289 11.105 24.3953 11.0367C23.8909 10.0127 23.1456 9.18572 22.1594 8.5556C22.0347 8.47479 21.9063 8.39883 21.7744 8.32773C21.0019 7.91162 20.1047 7.66193 19.0828 7.57866C18.8824 7.56234 18.6773 7.55241 18.4674 7.54888C21.2502 8.80737 23.1886 11.6249 23.1886 14.8988C23.1886 18.357 21.0259 21.306 17.9896 22.4462ZM12.1108 7.54741C14.956 8.80518 16.938 11.6236 16.938 14.8988C16.938 18.357 14.7283 21.3059 11.626 22.4462H11.1806V21.6252C13.3939 20.1852 14.8544 17.7103 14.8544 14.8988C14.8544 12.0873 13.3939 9.61238 11.1806 8.17233V7.54741H12.1108ZM11.1806 18.8648C12.1696 17.8121 12.7709 16.4223 12.7709 14.8988C12.7709 13.3753 12.1696 11.9855 11.1806 10.9328V18.8648Z" fill="white"/>
</svg>
