<?xml version="1.0" encoding="UTF-8" standalone="no" ?>
<!-- not generated by Pixelmator Pro 3.5.6 because I'm not as cool as @colbyr -->
<!DOCTYPE svg PUBLIC "-//W3C//DTD SVG 1.1//EN" "http://www.w3.org/Graphics/SVG/1.1/DTD/svg11.dtd">
<svg xmlns="http://www.w3.org/2000/svg" xmlns:xlink="http://www.w3.org/1999/xlink" version="1.1" width="400" height="400" viewBox="0 0 400 400" xml:space="preserve">
<desc>Created with Fabric.js 5.2.4</desc>
<defs>
</defs>
<g transform="matrix(1 0 0 1 200 200)" id="b026d9b4-b617-4678-af7c-1c352504e473"  >
<rect style="stroke: none; stroke-width: 1; stroke-dasharray: none; stroke-linecap: butt; stroke-dashoffset: 0; stroke-linejoin: miter; stroke-miterlimit: 4; fill: rgb(255,255,255); fill-rule: nonzero; opacity: 1; visibility: hidden;" vector-effect="non-scaling-stroke"  x="-200" y="-200" rx="0" ry="0" width="400" height="400" />
</g>
<g transform="matrix(Infinity NaN NaN Infinity 0 0)" id="1ae64ee0-6d98-473a-a257-be706c561acc"  >
</g>
<g transform="matrix(3.86 0 0 3.86 200 200)" id="b2494fcc-3c91-4dd8-a082-19dde42dad4c"  >
<circle style="stroke: rgb(0,0,0); stroke-width: 0; stroke-dasharray: none; stroke-linecap: butt; stroke-dashoffset: 0; stroke-linejoin: miter; stroke-miterlimit: 4; fill: rgb(254,241,1); fill-rule: nonzero; opacity: 1;" vector-effect="non-scaling-stroke"  cx="0" cy="0" r="35" />
</g>
<g transform="matrix(16.4 0 0 16.4 200 200)" id="0de824ba-d144-417e-b5bc-8fc3cd501a41"  >
<path style="stroke: rgb(0,0,0); stroke-width: 0; stroke-dasharray: none; stroke-linecap: butt; stroke-dashoffset: 0; stroke-linejoin: miter; stroke-miterlimit: 4; fill: rgb(0,0,0); fill-rule: nonzero; opacity: 1;" vector-effect="non-scaling-stroke"  transform=" translate(-12, -12)" d="M 12 0 C 5.363 0 0 5.363 0 12 C 0 18.637 5.363 24 12 24 C 18.637 24 24 18.637 24 12 C 24 5.3629999999999995 18.637 0 12 0 z M 9.502 7.03 C 12.245941039303386 7.032205741453999 14.469794258546003 9.256058960696617 14.472000000000001 12 C 14.469794258546 14.743941039303383 12.245941039303386 16.967794258546 9.502000000000002 16.97 C 6.758058960696618 16.967794258546 4.5342057414540005 14.743941039303385 4.532 12 C 4.534205741453999 9.256058960696617 6.758058960696612 7.0322057414540025 9.501999999999995 7.03 z M 16.065 10.213000000000001 L 18.416 10.213000000000001 C 19.396 10.213000000000001 20.203 10.995000000000001 20.203 11.975000000000001 C 20.203 12.955000000000002 19.396 13.764000000000001 18.416 13.764000000000001 L 16.065 13.764000000000001 L 16.065 10.213000000000001 z" stroke-linecap="round" />
</g>
</svg>