<svg width="110" height="110" viewBox="0 0 110 110" fill="none" xmlns="http://www.w3.org/2000/svg">
<path fill-rule="evenodd" clip-rule="evenodd" d="M48.7571 2.59821C52.8462 0.41691 57.7655 0.471545 61.8052 2.74313L98.4539 23.3512C103.461 26.1669 103.516 33.3567 98.5527 36.2488L60.3743 58.4938C58.192 59.7653 55.5132 59.8413 53.2623 58.6955L36.6166 50.2222C35.505 49.6564 34.8051 48.5146 34.8051 47.2673V41.7621C34.8051 40.4161 36.2324 39.5497 37.4265 40.1708L53.4322 48.497C55.5407 49.5939 58.0665 49.5223 60.1095 48.3077L88.5878 31.3764C89.7859 30.664 89.7492 28.9172 88.5223 28.2558L59.8513 12.7993C57.0241 11.2752 53.6162 11.2923 50.8044 12.8446L19.7852 29.9703C16.7745 31.6324 14.9053 34.7997 14.9053 38.2387V71.5795C14.9053 75.0129 16.7715 78.175 19.7772 79.8345L53.1926 98.2831C54.5063 99.0083 56.1022 99.0001 57.4084 98.2614L102.387 72.8226C103.554 72.1624 105 73.0057 105 74.3469C105 79.6192 102.143 84.4774 97.5352 87.0399L61.1645 107.267C57.5247 109.291 53.0974 109.291 49.4577 107.267L10.3527 85.5182C7.19892 83.7642 5.23578 80.446 5.21682 76.8373L5.0002 35.6087C4.97274 30.3825 7.73978 25.54 12.2561 22.9102L29.4778 12.8824L48.7571 2.59821Z" fill="black"/>
</svg>
