<svg version="1.1" id="Layer_1" xmlns="http://www.w3.org/2000/svg" xmlns:xlink="http://www.w3.org/1999/xlink" x="0px" y="0px"
	 width="100%" viewBox="0 0 116 174" enable-background="new 0 0 116 174" xml:space="preserve">
<path fill="#FEFEFF" opacity="1.000000" stroke="none" 
	d="
M1.000000,154.000000 
	C1.000000,140.979111 1.000000,127.958214 1.235914,114.230988 
	C3.953370,110.197121 6.136405,106.587921 8.966197,103.589005 
	C24.262775,87.378212 44.362343,81.698669 65.469017,79.130058 
	C77.990181,77.606277 90.700165,77.596016 103.330688,77.025887 
	C109.225716,76.759796 113.646835,74.104752 113.789261,69.137306 
	C114.159729,56.216301 113.913788,43.277618 113.913788,29.911776 
	C88.096390,30.011774 62.867699,30.676174 38.706413,39.663273 
	C19.713049,46.728088 8.101706,60.236393 3.960094,80.115028 
	C2.994874,84.747826 1.987811,89.371910 1.000000,94.000000 
	C1.000000,63.031029 1.000000,32.062054 1.000000,1.046541 
	C39.596893,1.046541 78.193855,1.046541 116.895409,1.046541 
	C116.895409,58.999905 116.895409,116.999924 116.889618,174.999969 
	C78.255890,175.000000 39.627945,175.000000 1.243505,174.271164 
	C11.742006,156.030136 28.343210,147.897766 47.012589,142.999252 
	C64.194588,138.490967 81.771721,137.673126 99.443924,137.867798 
	C108.195892,137.964203 111.805420,134.211029 111.831444,125.376778 
	C111.859390,115.887169 111.850761,106.397385 111.824997,96.907776 
	C111.820702,95.324654 111.647873,93.741997 111.539803,91.940422 
	C87.762848,91.480461 64.763275,92.573845 42.422230,99.503578 
	C20.574116,106.280411 7.303178,120.801003 3.280335,143.515823 
	C2.657119,147.034805 1.766800,150.506454 1.000000,154.000000 
z"/>
<path fill="#5173EB" opacity="1.000000" stroke="none" 
	d="
M1.000000,94.468399 
	C1.987811,89.371910 2.994874,84.747826 3.960094,80.115028 
	C8.101706,60.236393 19.713049,46.728088 38.706413,39.663273 
	C62.867699,30.676174 88.096390,30.011774 113.913788,29.911776 
	C113.913788,43.277618 114.159729,56.216301 113.789261,69.137306 
	C113.646835,74.104752 109.225716,76.759796 103.330688,77.025887 
	C90.700165,77.596016 77.990181,77.606277 65.469017,79.130058 
	C44.362343,81.698669 24.262775,87.378212 8.966197,103.589005 
	C6.136405,106.587921 3.953370,110.197121 1.235914,113.762329 
	C1.000000,107.645599 1.000000,101.291206 1.000000,94.468399 
z"/>
<path fill="#6ED4D5" opacity="1.000000" stroke="none" 
	d="
M1.000000,154.468414 
	C1.766800,150.506454 2.657119,147.034805 3.280335,143.515823 
	C7.303178,120.801003 20.574116,106.280411 42.422230,99.503578 
	C64.763275,92.573845 87.762848,91.480461 111.539803,91.940422 
	C111.647873,93.741997 111.820702,95.324654 111.824997,96.907776 
	C111.850761,106.397385 111.859390,115.887169 111.831444,125.376778 
	C111.805420,134.211029 108.195892,137.964203 99.443924,137.867798 
	C81.771721,137.673126 64.194588,138.490967 47.012589,142.999252 
	C28.343210,147.897766 11.742006,156.030136 1.243505,173.771164 
	C1.000000,167.645599 1.000000,161.291214 1.000000,154.468414 
z"/>
</svg>