<?xml version="1.0" encoding="UTF-8"?>
<!-- Generated by Pixelmator Pro 3.5.6 -->
<svg width="400" height="400" viewBox="0 0 400 400" xmlns="http://www.w3.org/2000/svg">
    <path id="Path" fill="#0073ff" stroke="none" d="M 255.477631 200 L 295.4776 200 C 298.602966 200 301.728394 197.49852 301.728394 193.749252 C 301.728394 193.125366 301.728394 191.874634 301.101501 191.250748 L 232.352203 3.750153 C 231.101486 1.874908 229.226837 0 226.728363 0 L 186.728348 0 C 183.602982 0 180.477615 2.499969 180.477615 6.250122 C 180.477615 6.874939 180.477615 7.5 181.101501 8.125061 L 250.477615 196.874634 C 251.101501 198.749252 252.979111 200 255.477631 200 Z"/>
    <path id="path1" fill="#0073ff" stroke="none" d="M 248.602982 400 L 288.602997 400 C 291.728363 400 294.853729 397.501465 294.853729 393.749268 C 294.853729 393.125397 294.853729 392.501526 294.226898 391.874634 L 151.728348 3.750153 C 151.101486 1.874908 148.602997 0 146.101486 0 L 106.102386 0 C 102.977318 0 99.852226 2.499969 99.852226 6.250122 C 99.852226 6.874939 99.852226 7.5 100.477318 8.125061 L 242.976135 396.250763 C 243.603012 398.749237 246.101486 400 248.602982 400 Z"/>
    <path id="path2" fill="#0073ff" stroke="none" d="M 169.226852 400 L 209.226852 400 C 212.352219 400 214.853699 397.498505 215.477585 394.376099 C 215.477585 393.749268 215.477585 392.501526 214.853699 391.874634 L 145.4776 203.749237 C 144.853729 201.250748 142.352234 200 139.853729 200 L 99.227463 200 C 96.102394 200 93.602386 203.125366 93.602386 206.250748 C 93.602386 206.874634 93.602386 207.498505 94.227455 208.125366 L 162.976105 396.250763 C 164.853729 398.749237 166.728363 400 169.226852 400 Z"/>
    <path id="path3" fill="#0073ff" stroke="none" d="M 260.477631 8.125061 L 292.976135 96.249847 C 293.603027 98.749847 296.101501 100 298.602966 100 L 337.976105 100 C 341.101471 100 344.226898 97.5 344.226898 93.749847 C 344.226898 93.125061 344.226898 92.5 343.603027 91.874908 L 311.101532 3.750153 C 310.477631 1.874908 308.602997 0 306.101501 0 L 266.101471 0 C 262.979126 0 259.85376 2.499969 259.85376 6.250122 C 259.85376 6.874939 259.85376 7.5 260.477631 8.125061 Z"/>
    <path id="path4" fill="#0073ff" stroke="none" d="M 95.4776 400 L 135.4776 400 C 138.602997 400 141.728363 397.498505 141.728363 393.749268 C 141.728363 393.125397 141.728363 392.501526 141.101501 391.874634 L 108.602692 303.749237 C 107.9776 301.250763 105.477623 300 102.977615 300 L 62.977612 300 C 59.852543 300 56.727772 302.498535 56.727772 306.250732 C 56.727772 306.874603 56.727772 307.498474 57.352539 308.125366 L 89.852531 396.250763 C 90.477615 398.749237 92.977623 400 95.4776 400 Z"/>
</svg>
