<?xml version="1.0" encoding="UTF-8"?>
<!-- Generated by Pixelmator Pro 3.5.6 -->
<svg width="400" height="400" viewBox="0 0 400 400" xmlns="http://www.w3.org/2000/svg">
    <path id="Path" fill="#34a853" stroke="none" d="M 199.049606 10.000275 C 193.028397 9.996094 187.1194 11.630493 181.955994 14.728363 C 176.792801 17.826233 172.569794 22.270813 169.739807 27.585602 C 166.909805 32.900391 165.579193 38.88501 165.891006 44.898407 C 166.202805 50.911591 168.145203 56.726593 171.509598 61.720215 L 185.749603 47.540192 C 184.824005 44.730011 184.812393 41.698608 185.716797 38.881409 C 186.621002 36.064209 188.394608 33.605988 190.783005 31.859406 C 193.171402 30.113007 196.051605 29.167999 199.010406 29.1604 C 201.970001 29.152588 204.854004 30.082611 207.251999 31.816589 C 209.649994 33.550598 211.436005 35.999817 212.354004 38.812195 C 213.274002 41.624603 213.278 44.656006 212.365997 47.471008 C 211.455994 50.286194 209.675995 52.740204 207.283997 54.480988 C 204.891998 56.221588 202.007996 57.159607 199.049606 57.160187 C 197.567001 57.176788 196.092606 56.940186 194.689606 56.460205 L 180.529602 70.620209 C 184.8284 73.542389 189.753601 75.413818 194.908203 76.083405 C 200.061996 76.753204 205.302002 76.202393 210.205994 74.475586 C 215.108002 72.748993 219.535995 69.894409 223.134003 66.142395 C 226.729996 62.390411 229.395996 57.845612 230.916 52.87439 C 232.434006 47.903412 232.764008 42.644989 231.878006 37.523193 C 230.990005 32.401398 228.914001 27.559387 225.813995 23.387604 C 222.712006 19.215729 218.675995 15.830688 214.026001 13.505371 C 209.378006 11.180023 204.248001 9.979401 199.049606 10.000275 Z"/>
    <path id="path1" fill="#fbbc04" stroke="none" d="M 185.749603 106.680206 C 185.777206 95.474182 182.154404 84.564209 175.429596 75.600189 L 157.029602 94.000183 C 159.824203 99.11261 160.849197 105.005615 159.944794 110.7612 C 159.040405 116.516785 156.257401 121.811401 152.029602 125.82019 L 162.029602 150.260193 C 169.315399 145.562393 175.305206 139.110596 179.449402 131.496399 C 183.593796 123.882202 185.759995 115.349182 185.749603 106.680206 L 185.749603 106.680206 Z"/>
    <path id="path2" fill="#ea4335" stroke="none" d="M 134.409607 133.060181 L 133.9496 133.060181 C 129.835602 133.060608 125.778198 132.099396 122.101402 130.253418 C 118.424797 128.40741 115.2304 125.7276 112.773201 122.427795 C 110.316002 119.127991 108.664001 115.299591 107.948997 111.247986 C 107.234001 107.196594 107.475998 103.033997 108.655197 99.092407 C 109.834602 95.151001 111.9188 91.539612 114.7416 88.546814 C 117.5644 85.553802 121.047798 83.26181 124.913597 81.854004 C 128.779205 80.446198 132.920593 79.961395 137.007004 80.438202 C 141.093399 80.915009 145.011795 82.34021 148.4496 84.600189 L 166.669601 66.380188 C 160.222794 61.147003 152.6138 57.537811 144.482407 55.855804 C 136.350998 54.173798 127.934601 54.468201 119.940598 56.714203 C 111.946404 58.960205 104.608398 63.092194 98.542801 68.762817 C 92.476997 74.433594 87.861198 81.4776 85.083199 89.302612 C 82.305 97.127594 81.445602 105.505188 82.5774 113.731201 C 83.709198 121.957397 86.798798 129.791595 91.5868 136.575623 C 96.375 143.359802 102.721397 148.895401 110.093201 152.717606 C 117.464798 156.539597 125.646004 158.536407 133.9496 158.540207 C 137.462799 158.554001 140.968002 158.205399 144.409607 157.500198 L 134.409607 133.060181 Z"/>
    <path id="path3" fill="#4285f4" stroke="none" d="M 199.749603 154.200195 C 188.234802 154.203201 176.781601 155.880798 165.749603 159.180206 L 180.289597 194.800201 C 186.638199 193.238403 193.151794 192.445999 199.689606 192.440201 C 218.070007 192.438995 235.880005 198.811005 250.087997 210.470001 C 264.29599 222.130005 274.022003 238.354004 277.608002 256.381989 C 281.194 274.40799 278.417999 293.119995 269.753998 309.328003 C 261.089996 325.537994 247.074005 338.242004 230.091995 345.273987 C 213.112 352.308014 194.218002 353.234009 176.630203 347.89801 C 159.042404 342.562012 143.848999 331.291992 133.639206 316.01001 C 123.429398 300.726013 118.834602 282.376007 120.638199 264.085999 C 122.441597 245.794006 130.531601 228.694 143.529602 215.699997 C 149.121796 210.130005 155.503403 205.412003 162.469604 201.699997 L 147.969604 166.180206 C 122.000198 178.8974 101.617599 200.723999 90.7062 227.503998 C 79.794601 254.281998 79.116798 284.138 88.8022 311.384003 C 98.487602 338.630005 117.858803 361.359985 143.224594 375.242004 C 168.590195 389.123993 198.176804 393.187988 226.345993 386.660004 C 254.516006 380.131989 279.298004 363.467987 295.971985 339.84201 C 312.645996 316.217987 320.044006 287.283997 316.756012 258.556 C 313.470001 229.826004 299.727997 203.311996 278.149994 184.063004 C 256.571991 164.814407 228.666 154.177795 199.749603 154.180206 L 199.749603 154.200195 Z"/>
</svg>
