<svg width="400" height="400" viewBox="0 0 400 400" fill="none" xmlns="http://www.w3.org/2000/svg">
<rect width="400" height="400" />
<path d="M0 101.698L86.6459 58.5002V299.074L0 342.271V101.698ZM95.5595 398.794L11.016 356.636L95.5595 314.494L180.099 356.636L95.5595 398.794ZM191.099 342.278L104.452 299.081V58.5002L191.099 101.698V342.278ZM115.465 44.1424L200.009 2L284.552 44.1424L200.009 86.2848L115.465 44.1424ZM208.901 101.704L295.548 58.5068V299.081L208.901 342.278V101.704ZM304.445 398.801L219.901 356.642L304.445 314.5L389.001 356.642L304.445 398.801ZM400 342.285L313.354 299.087V58.5002L400 101.698V342.285Z" fill="#5D00FF"/>
</svg>
