<?xml version="1.0" encoding="UTF-8"?>
<!-- Generated by Pixelmator Pro 3.5.6 -->
<svg width="400" height="400" viewBox="0 0 400 400" xmlns="http://www.w3.org/2000/svg">
    <g id="Group">
        <path id="Path" fill="#509ee3" stroke="none" d="M 89.753052 102.27005 C 89.753052 115.71817 79.022728 126.619995 65.786194 126.619995 C 52.54966 126.619995 41.819332 115.71817 41.819332 102.27005 C 41.819332 88.82193 52.54966 77.920105 65.786194 77.920105 C 79.022728 77.920105 89.753052 88.82193 89.753052 102.27005 Z"/>
        <path id="path1" fill="#509ee3" stroke="none" d="M 89.753052 170.449692 C 89.753052 183.897781 79.022728 194.799667 65.786194 194.799667 C 52.54966 194.799667 41.819332 183.897781 41.819332 170.449692 C 41.819332 157.001587 52.54966 146.099731 65.786194 146.099731 C 79.022728 146.099731 89.753052 157.001587 89.753052 170.449692 Z"/>
        <path id="path2" fill="#509ee3" stroke="none" opacity="0.2" d="M 156.860031 102.27005 C 156.860031 115.71817 146.1297 126.619995 132.893158 126.619995 C 119.656631 126.619995 108.9263 115.71817 108.9263 102.27005 C 108.9263 88.82193 119.656631 77.920105 132.893158 77.920105 C 146.1297 77.920105 156.860031 88.82193 156.860031 102.27005 Z"/>
        <path id="path3" fill="#509ee3" stroke="none" d="M 156.860031 171.112091 C 156.860031 184.560181 146.1297 195.462036 132.893158 195.462036 C 119.656631 195.462036 108.9263 184.560181 108.9263 171.112091 C 108.9263 157.663971 119.656631 146.762115 132.893158 146.762115 C 146.1297 146.762115 156.860031 157.663971 156.860031 171.112091 Z"/>
        <path id="path4" fill="#509ee3" stroke="none" opacity="0.2" d="M 223.96698 102.27005 C 223.96698 115.71817 213.236664 126.619995 200.000137 126.619995 C 186.763596 126.619995 176.033264 115.71817 176.033264 102.27005 C 176.033264 88.82193 186.763596 77.920105 200.000137 77.920105 C 213.236664 77.920105 223.96698 88.82193 223.96698 102.27005 Z"/>
        <path id="path5" fill="#509ee3" stroke="none" opacity="0.2" d="M 223.96698 24.349945 C 223.96698 37.798065 213.236664 48.69989 200.000137 48.69989 C 186.763596 48.69989 176.033264 37.798065 176.033264 24.349945 C 176.033264 10.901825 186.763596 0 200.000137 0 C 213.236664 0 223.96698 10.901825 223.96698 24.349945 Z"/>
        <path id="path6" fill="#509ee3" stroke="none" opacity="0.2" d="M 223.96698 171.112091 C 223.96698 184.560181 213.236664 195.462036 200.000137 195.462036 C 186.763596 195.462036 176.033264 184.560181 176.033264 171.112091 C 176.033264 157.663971 186.763596 146.762115 200.000137 146.762115 C 213.236664 146.762115 223.96698 157.663971 223.96698 171.112091 Z"/>
        <path id="path7" fill="#509ee3" stroke="none" opacity="0.2" d="M 291.073975 102.27005 C 291.073975 115.71817 280.343628 126.619995 267.107086 126.619995 C 253.870575 126.619995 243.140244 115.71817 243.140244 102.27005 C 243.140244 88.82193 253.870575 77.920105 267.107086 77.920105 C 280.343628 77.920105 291.073975 88.82193 291.073975 102.27005 Z"/>
        <path id="path8" fill="#509ee3" stroke="none" d="M 358.180939 102.27005 C 358.180939 115.71817 347.450623 126.619995 334.214081 126.619995 C 320.977539 126.619995 310.247192 115.71817 310.247192 102.27005 C 310.247192 88.82193 320.977539 77.920105 334.214081 77.920105 C 347.450623 77.920105 358.180939 88.82193 358.180939 102.27005 Z"/>
        <path id="path9" fill="#509ee3" stroke="none" d="M 291.073975 171.112091 C 291.073975 184.560181 280.343628 195.462036 267.107086 195.462036 C 253.870575 195.462036 243.140244 184.560181 243.140244 171.112091 C 243.140244 157.663971 253.870575 146.762115 267.107086 146.762115 C 280.343628 146.762115 291.073975 157.663971 291.073975 171.112091 Z"/>
        <path id="path10" fill="#509ee3" stroke="none" d="M 358.180939 171.112091 C 358.180939 184.560181 347.450623 195.462036 334.214081 195.462036 C 320.977539 195.462036 310.247192 184.560181 310.247192 171.112091 C 310.247192 157.663971 320.977539 146.762115 334.214081 146.762115 C 347.450623 146.762115 358.180939 157.663971 358.180939 171.112091 Z"/>
        <path id="path11" fill="#509ee3" stroke="none" d="M 89.753052 238.629318 C 89.753052 252.077438 79.022728 262.979248 65.786194 262.979248 C 52.54966 262.979248 41.819332 252.077438 41.819332 238.629318 C 41.819332 225.181213 52.54966 214.279373 65.786194 214.279373 C 79.022728 214.279373 89.753052 225.181213 89.753052 238.629318 Z"/>
        <path id="path12" fill="#509ee3" stroke="none" opacity="0.2" d="M 156.860031 239.291702 C 156.860031 252.739807 146.1297 263.641663 132.893158 263.641663 C 119.656631 263.641663 108.9263 252.739807 108.9263 239.291702 C 108.9263 225.843597 119.656631 214.941757 132.893158 214.941757 C 146.1297 214.941757 156.860031 225.843597 156.860031 239.291702 Z"/>
        <path id="path13" fill="#509ee3" stroke="none" d="M 223.96698 239.291702 C 223.96698 252.739807 213.236664 263.641663 200.000137 263.641663 C 186.763596 263.641663 176.033264 252.739807 176.033264 239.291702 C 176.033264 225.843597 186.763596 214.941757 200.000137 214.941757 C 213.236664 214.941757 223.96698 225.843597 223.96698 239.291702 Z"/>
        <path id="path14" fill="#509ee3" stroke="none" opacity="0.2" d="M 291.073975 239.291702 C 291.073975 252.739807 280.343628 263.641663 267.107086 263.641663 C 253.870575 263.641663 243.140244 252.739807 243.140244 239.291702 C 243.140244 225.843597 253.870575 214.941757 267.107086 214.941757 C 280.343628 214.941757 291.073975 225.843597 291.073975 239.291702 Z"/>
        <path id="path15" fill="#509ee3" stroke="none" d="M 358.180939 239.291702 C 358.180939 252.739807 347.450623 263.641663 334.214081 263.641663 C 320.977539 263.641663 310.247192 252.739807 310.247192 239.291702 C 310.247192 225.843597 320.977539 214.941757 334.214081 214.941757 C 347.450623 214.941757 358.180939 225.843597 358.180939 239.291702 Z"/>
        <path id="path16" fill="#509ee3" stroke="none" d="M 89.753052 306.80896 C 89.753052 320.25708 79.022728 331.158905 65.786194 331.158905 C 52.54966 331.158905 41.819332 320.25708 41.819332 306.80896 C 41.819332 293.36084 52.54966 282.458984 65.786194 282.458984 C 79.022728 282.458984 89.753052 293.36084 89.753052 306.80896 Z"/>
        <path id="path17" fill="#509ee3" stroke="none" opacity="0.2" d="M 156.860031 307.471344 C 156.860031 320.919464 146.1297 331.821289 132.893158 331.821289 C 119.656631 331.821289 108.9263 320.919464 108.9263 307.471344 C 108.9263 294.023224 119.656631 283.121399 132.893158 283.121399 C 146.1297 283.121399 156.860031 294.023224 156.860031 307.471344 Z"/>
        <path id="path18" fill="#509ee3" stroke="none" opacity="0.2" d="M 223.96698 307.471344 C 223.96698 320.919464 213.236664 331.821289 200.000137 331.821289 C 186.763596 331.821289 176.033264 320.919464 176.033264 307.471344 C 176.033264 294.023224 186.763596 283.121399 200.000137 283.121399 C 213.236664 283.121399 223.96698 294.023224 223.96698 307.471344 Z"/>
        <path id="path19" fill="#509ee3" stroke="none" opacity="0.2" d="M 223.96698 375.65097 C 223.96698 389.099091 213.236664 400.000916 200.000137 400.000916 C 186.763596 400.000916 176.033264 389.099091 176.033264 375.65097 C 176.033264 362.202881 186.763596 351.301025 200.000137 351.301025 C 213.236664 351.301025 223.96698 362.202881 223.96698 375.65097 Z"/>
        <path id="path20" fill="#509ee3" stroke="none" opacity="0.2" d="M 291.073975 307.471344 C 291.073975 320.919464 280.343628 331.821289 267.107086 331.821289 C 253.870575 331.821289 243.140244 320.919464 243.140244 307.471344 C 243.140244 294.023224 253.870575 283.121399 267.107086 283.121399 C 280.343628 283.121399 291.073975 294.023224 291.073975 307.471344 Z"/>
        <path id="path21" fill="#509ee3" stroke="none" d="M 358.180939 307.471344 C 358.180939 320.919464 347.450623 331.821289 334.214081 331.821289 C 320.977539 331.821289 310.247192 320.919464 310.247192 307.471344 C 310.247192 294.023224 320.977539 283.121399 334.214081 283.121399 C 347.450623 283.121399 358.180939 294.023224 358.180939 307.471344 Z"/>
    </g>
</svg>
