<?xml version="1.0" encoding="UTF-8"?>
<!-- Generated by Pixelmator Pro 3.5.6 -->
<svg width="400" height="400" viewBox="0 0 400 400" xmlns="http://www.w3.org/2000/svg">
    <path id="Path" fill="#39a564" stroke="none" d="M -0 374.143921 C -0 257.561188 -0 142.620148 -0 26.037354 C 67.322601 64.624634 133.823914 103.211853 200.325668 141.801178 C 266.826996 103.211853 332.507446 65.445648 399.830048 26.037354 C 399.830048 142.620148 399.830048 257.563049 399.830048 373.32309 C 366.168518 354.439789 333.328278 335.556427 300.488037 315.852295 C 300.488037 277.26532 300.488037 239.498703 300.488037 200.090424 C 266.006134 219.794556 233.165451 238.679764 200.325668 258.382019 C 167.48497 239.498703 135.466034 220.61586 102.625801 202.555267 C 101.804497 203.37468 100.983673 203.37468 100.983673 203.37468 C 100.983673 203.37468 100.162834 203.37468 100.162834 204.195511 C 100.162834 205.0168 99.341537 205.837631 99.341537 205.837631 C 99.341537 242.782974 99.341537 278.906982 99.341537 316.675507 C 67.322601 335.556427 34.482273 354.439789 -0 374.143921 Z"/>
</svg>
