<?xml version="1.0" encoding="UTF-8"?>
<svg width="400" height="400" viewBox="0 0 400 400" xmlns="http://www.w3.org/2000/svg">
    <path id="Path" fill="#185c37" stroke="none" d="M 251.245087 190.699997 L 93.053734 162.800003 L 93.053734 368.953125 C 93.053734 378.367889 100.690262 386 110.110443 386 L 110.110443 386 L 383.074371 386 C 392.494537 386 400.131073 378.367889 400.131073 368.953125 L 400.131073 368.953125 L 400.131073 293 L 251.245087 190.699997 Z"/>
    <path id="path1" fill="#21a366" stroke="none" d="M 251.245087 14 L 110.110443 14 C 100.690262 14 93.053734 21.632111 93.053734 31.046875 C 93.053734 31.046875 93.053734 31.046875 93.053734 31.046875 L 93.053734 107 L 251.245087 200 L 334.993439 227.899994 L 400.131073 200 L 400.131073 107 L 251.245087 14 Z"/>
    <path id="path2" fill="#107c41" stroke="none" d="M 93.053734 107 L 251.245087 107 L 251.245087 200 L 93.053734 200 L 93.053734 107 Z"/>
    <path id="path3" fill="#000000" stroke="none" opacity="0.1" d="M 206.272247 88.399994 L 93.053734 88.399994 L 93.053734 320.899994 L 206.272247 320.899994 C 215.679688 320.869446 223.29837 313.255157 223.328964 303.853149 L 223.328964 105.446838 C 223.29837 96.044861 215.679688 88.430573 206.272247 88.399994 Z"/>
    <path id="path4" fill="#000000" stroke="none" opacity="0.2" d="M 196.966873 97.700012 L 93.053734 97.700012 L 93.053734 330.200012 L 196.966873 330.200012 C 206.374313 330.169434 213.992996 322.555145 214.02359 313.153137 L 214.02359 114.746857 C 213.992996 105.344849 206.374313 97.73056 196.966873 97.700012 Z"/>
    <path id="path5" fill="#000000" stroke="none" opacity="0.2" d="M 196.966873 97.700012 L 93.053734 97.700012 L 93.053734 311.600006 L 196.966873 311.600006 C 206.374313 311.569427 213.992996 303.955139 214.02359 294.553131 L 214.02359 114.746857 C 213.992996 105.344849 206.374313 97.73056 196.966873 97.700012 Z"/>
    <path id="path6" fill="#000000" stroke="none" opacity="0.2" d="M 187.661499 97.700012 L 93.053734 97.700012 L 93.053734 311.600006 L 187.661499 311.600006 C 197.068954 311.569427 204.687622 303.955139 204.718216 294.553131 L 204.718216 114.746857 C 204.687622 105.344849 197.068954 97.73056 187.661499 97.700012 Z"/>
    <linearGradient id="linearGradient1" x1="35.563687" y1="84.379903" x2="169.15453" y2="315.620097" gradientUnits="userSpaceOnUse">
        <stop offset="1e-05" stop-color="#18884f" stop-opacity="1"/>
        <stop offset="0.5" stop-color="#117e43" stop-opacity="1"/>
        <stop offset="1" stop-color="#0b6631" stop-opacity="1"/>
    </linearGradient>
    <path id="path7" fill="url(#linearGradient1)" stroke="none" d="M 17.056705 97.700012 L 187.661331 97.700012 C 197.081512 97.700012 204.718048 105.332092 204.718048 114.746857 L 204.718048 285.25296 C 204.718048 294.667694 197.081512 302.299835 187.661331 302.299835 L 17.056705 302.299835 C 7.636523 302.299988 0 294.667908 0 285.253143 L 0 114.746857 C 0 105.332092 7.636523 97.700012 17.056705 97.700012 Z"/>
    <path id="path8" fill="#ffffff" stroke="none" d="M 52.826561 255.4095 L 88.708076 199.841934 L 55.832241 144.581253 L 82.278023 144.581253 L 100.218788 179.921249 C 101.875229 183.278503 103.010399 185.770905 103.624641 187.416977 L 103.857231 187.416977 C 105.035912 184.738556 106.276634 182.137711 107.579376 179.614227 L 126.757706 144.599945 L 151.035385 144.599945 L 117.321976 199.535095 L 151.891663 255.409302 L 126.059937 255.409302 L 105.336823 216.619141 C 104.36068 214.968719 103.532372 213.235168 102.861679 211.439102 L 102.554657 211.439102 C 101.947578 213.198669 101.142159 214.883484 100.153778 216.46109 L 78.816605 255.4095 L 52.826561 255.4095 Z"/>
    <path id="path9" fill="#33c481" stroke="none" d="M 383.074371 14 L 251.245087 14 L 251.245087 107 L 400.131073 107 L 400.131073 31.046875 C 400.131073 21.632111 392.494537 14 383.074371 14 L 383.074371 14 Z"/>
    <path id="path10" fill="#107c41" stroke="none" d="M 251.245087 200 L 400.131073 200 L 400.131073 293 L 251.245087 293 L 251.245087 200 Z"/>
</svg>
