<svg width="400" height="400" viewBox="0 0 400 400" fill="none" xmlns="http://www.w3.org/2000/svg">
<path d="M71.8786 248.079C64.0929 248.079 57.1723 246.349 51.1168 242.889C45.1574 239.428 40.4476 234.67 36.9873 228.615C33.527 222.559 31.7969 215.687 31.7969 207.997C31.7969 200.212 33.527 193.291 36.9873 187.236C40.4476 181.18 45.1574 176.422 51.1168 172.962C57.1723 169.502 64.0929 167.771 71.8786 167.771C79.5682 167.771 86.3928 169.502 92.3522 172.962C98.3116 176.422 103.021 181.18 106.482 187.236C109.942 193.291 111.72 200.212 111.816 207.997C111.816 215.687 110.086 222.559 106.626 228.615C103.166 234.67 98.4077 239.428 92.3522 242.889C86.3928 246.349 79.5682 248.079 71.8786 248.079ZM71.8786 237.122C77.2613 237.122 82.0673 235.872 86.2965 233.373C90.5258 230.778 93.8419 227.317 96.2449 222.992C98.648 218.57 99.8495 213.572 99.8495 207.997C99.8495 202.422 98.648 197.424 96.2449 193.003C93.8419 188.581 90.5258 185.121 86.2965 182.622C82.0673 180.027 77.2613 178.729 71.8786 178.729C66.4959 178.729 61.642 180.027 57.3165 182.622C53.0873 185.121 49.7231 188.581 47.224 193.003C44.821 197.424 43.6195 202.422 43.6195 207.997C43.6195 213.572 44.821 218.57 47.224 222.992C49.7231 227.317 53.0873 230.778 57.3165 233.373C61.642 235.872 66.4959 237.122 71.8786 237.122Z" fill="#060609"/>
<path d="M231.885 247.358C230.059 247.358 228.569 246.829 227.415 245.772C226.262 244.619 225.685 243.129 225.685 241.303V199.923C225.685 193.291 224.003 188.149 220.639 184.496C217.275 180.843 212.901 179.017 207.519 179.017C201.848 179.017 197.186 180.94 193.533 184.784C189.977 188.629 188.199 193.675 188.199 199.923H177.673C177.77 193.483 179.163 187.86 181.855 183.054C184.546 178.152 188.247 174.355 192.956 171.664C197.762 168.973 203.193 167.627 209.249 167.627C214.824 167.627 219.774 168.925 224.099 171.52C228.424 174.115 231.789 177.864 234.192 182.766C236.691 187.572 237.94 193.291 237.94 199.923V241.303C237.94 243.129 237.364 244.619 236.21 245.772C235.057 246.829 233.615 247.358 231.885 247.358ZM132.401 247.358C130.478 247.358 128.941 246.829 127.787 245.772C126.73 244.619 126.201 243.129 126.201 241.303V174.692C126.201 172.866 126.73 171.376 127.787 170.222C128.941 169.069 130.478 168.492 132.401 168.492C134.227 168.492 135.669 169.069 136.726 170.222C137.88 171.376 138.456 172.866 138.456 174.692V241.303C138.456 243.129 137.88 244.619 136.726 245.772C135.669 246.829 134.227 247.358 132.401 247.358ZM182.143 247.358C180.413 247.358 178.971 246.829 177.818 245.772C176.664 244.619 176.088 243.129 176.088 241.303V199.923C176.088 193.291 174.357 188.149 170.897 184.496C167.533 180.843 163.207 179.017 157.921 179.017C152.25 179.017 147.588 180.892 143.936 184.64C140.283 188.389 138.456 193.291 138.456 199.346H130.094C130.286 193.099 131.632 187.62 134.131 182.91C136.63 178.104 140.09 174.355 144.512 171.664C148.934 168.973 153.98 167.627 159.651 167.627C165.226 167.627 170.176 168.925 174.502 171.52C178.827 174.115 182.191 177.864 184.594 182.766C186.997 187.572 188.199 193.291 188.199 199.923V241.303C188.199 243.129 187.622 244.619 186.468 245.772C185.411 246.829 183.969 247.358 182.143 247.358Z" fill="#060609"/>
<path d="M322.476 247.358C320.65 247.358 319.16 246.781 318.007 245.628C316.853 244.475 316.276 243.033 316.276 241.303V204.537C316.276 198.674 315.171 193.916 312.96 190.263C310.846 186.515 307.914 183.727 304.165 181.901C300.417 179.978 296.139 179.017 291.333 179.017C286.816 179.017 282.731 179.93 279.078 181.757C275.522 183.487 272.686 185.89 270.572 188.966C268.457 191.945 267.4 195.406 267.4 199.346H259.037C259.23 193.291 260.816 187.908 263.795 183.198C266.871 178.392 270.956 174.596 276.05 171.808C281.145 169.021 286.816 167.627 293.064 167.627C299.792 167.627 305.799 169.069 311.086 171.952C316.469 174.74 320.698 178.873 323.774 184.352C326.946 189.831 328.532 196.559 328.532 204.537V241.303C328.532 243.033 327.955 244.475 326.802 245.628C325.648 246.781 324.206 247.358 322.476 247.358ZM261.344 247.358C259.422 247.358 257.884 246.829 256.73 245.772C255.673 244.619 255.145 243.129 255.145 241.303V174.692C255.145 172.769 255.673 171.28 256.73 170.222C257.884 169.069 259.422 168.492 261.344 168.492C263.17 168.492 264.612 169.069 265.67 170.222C266.823 171.28 267.4 172.769 267.4 174.692V241.303C267.4 243.129 266.823 244.619 265.67 245.772C264.612 246.829 263.17 247.358 261.344 247.358Z" fill="#060609"/>
<path d="M354.009 247.358C352.182 247.358 350.692 246.83 349.539 245.772C348.386 244.619 347.809 243.081 347.809 241.159V174.692C347.809 172.77 348.386 171.28 349.539 170.222C350.692 169.069 352.182 168.492 354.009 168.492C355.835 168.492 357.277 169.069 358.334 170.222C359.487 171.28 360.064 172.77 360.064 174.692V241.159C360.064 243.081 359.487 244.619 358.334 245.772C357.277 246.83 355.835 247.358 354.009 247.358ZM353.864 154.219C351.557 154.219 349.587 153.402 347.953 151.768C346.319 150.037 345.502 148.019 345.502 145.712C345.502 143.309 346.319 141.339 347.953 139.801C349.683 138.263 351.654 137.494 353.864 137.494C356.075 137.494 357.997 138.263 359.631 139.801C361.362 141.339 362.227 143.309 362.227 145.712C362.227 148.019 361.41 150.037 359.776 151.768C358.142 153.402 356.171 154.219 353.864 154.219Z" fill="#060609"/>
<path d="M104.701 260.575H38.6191C34.6377 260.575 31.4102 263.802 31.4102 267.784C31.4102 271.765 34.6377 274.993 38.6191 274.993H104.701C108.683 274.993 111.91 271.765 111.91 267.784C111.91 263.802 108.683 260.575 104.701 260.575Z" fill="#FF5789"/>
</svg>
