<?xml version="1.0" encoding="UTF-8"?>
<svg version="1.1" xmlns="http://www.w3.org/2000/svg" width="3840" height="2160">
<path d="M0 0 C1.87006813 -0.00339833 1.87006813 -0.00339833 3.77791542 -0.00686532 C7.19464085 -0.01205282 10.61131312 -0.01285848 14.02803862 -0.01167095 C17.73034572 -0.01146507 21.43264525 -0.01700343 25.13494873 -0.02172852 C32.37248699 -0.02999564 39.61001711 -0.03278157 46.8475597 -0.03334089 C52.73806483 -0.03381797 58.62856729 -0.03588223 64.51907158 -0.03904152 C81.26326363 -0.04783766 98.00744929 -0.05246257 114.75164367 -0.05171105 C116.10252538 -0.05165111 116.10252538 -0.05165111 117.48069763 -0.05158997 C118.8332515 -0.05152864 118.8332515 -0.05152864 120.21312969 -0.05146609 C134.81241366 -0.05106 149.4116718 -0.0606228 164.01094831 -0.07472833 C179.04404973 -0.08913702 194.07713858 -0.09599604 209.11024708 -0.09513456 C217.53298755 -0.09480411 225.95570093 -0.09748363 234.37843513 -0.10831261 C241.55177442 -0.11747701 248.72507435 -0.11954465 255.898417 -0.11280318 C259.54864875 -0.10956754 263.19880524 -0.10937231 266.84902954 -0.11815643 C286.93425256 -0.16346066 306.76833761 0.33613039 326.52830505 4.25871277 C328.14466858 4.57848083 328.14466858 4.57848083 329.79368591 4.90470886 C364.5238765 12.10103198 397.63698855 26.53156983 425.84080505 48.13371277 C426.73928162 48.82078308 427.63775818 49.50785339 428.5634613 50.21574402 C433.67723002 54.22297854 438.54209094 58.47035354 443.3368988 62.85246277 C445.00157243 64.36910769 446.68134606 65.86934804 448.3759613 67.35246277 C487.52141555 101.7181784 512.61219833 153.26389851 520.84080505 204.13371277 C521.00636902 205.15513367 521.00636902 205.15513367 521.17527771 206.19718933 C529.01495496 256.14889666 520.78280151 309.75157354 496.77732849 354.38713074 C495.85535076 356.10658557 494.96109615 357.84081309 494.06736755 359.57511902 C477.63300403 391.0681188 451.96507638 419.85860046 422.84080505 440.13371277 C422.20481384 440.58246765 421.56882263 441.03122253 420.91355896 441.49357605 C402.21922871 454.61569666 381.95846448 465.14402775 360.40330505 472.69621277 C359.41386902 473.04305115 358.42443298 473.38988953 357.40501404 473.74723816 C353.27634286 475.14713423 350.25006629 476.13371277 345.84080505 476.13371277 C345.51080505 476.79371277 345.18080505 477.45371277 344.84080505 478.13371277 C342.74559021 478.6940155 342.74559021 478.6940155 340.00486755 479.12980652 C339.00745544 479.29464539 338.01004333 479.45948425 336.98240662 479.62931824 C335.9456781 479.79576843 334.90894958 479.96221863 333.84080505 480.13371277 C331.91053155 480.47547141 329.98083031 480.82047957 328.05174255 481.16886902 C326.10650848 481.51176216 324.16119568 481.85420894 322.21580505 482.19621277 C321.24385193 482.36959167 320.2718988 482.54297058 319.27049255 482.72160339 C318.31143005 482.88982605 317.35236755 483.05804871 316.36424255 483.23136902 C315.51781189 483.38098083 314.67138123 483.53059265 313.79930115 483.68473816 C305.34876584 484.96717209 297.14725002 485.28217491 288.6086731 485.28088379 C287.2935846 485.28456048 285.9784961 485.28823717 284.62355644 485.29202527 C280.99243472 485.3019773 277.36132953 485.30575105 273.73019612 485.30841458 C269.80543967 485.31233827 265.88069606 485.32191542 261.95594788 485.33062744 C252.48376643 485.35033943 243.01158401 485.36045384 233.5393872 485.36935523 C229.06560286 485.37374897 224.59181969 485.37911314 220.11803627 485.3843441 C205.22140976 485.40135524 190.32478395 485.41584393 175.42814922 485.42309284 C171.56708462 485.42500238 167.70602002 485.42692276 163.84495544 485.42887878 C162.40568205 485.42960439 162.40568205 485.42960439 160.93733243 485.43034466 C145.43388651 485.43862447 129.93051826 485.4639271 114.42710616 485.49645946 C98.46638937 485.52967479 82.50571182 485.54755481 66.54496032 485.55073708 C57.60153594 485.55288944 48.65822462 485.56144855 39.71483421 485.58719826 C32.0891995 485.60910448 24.46370531 485.61685957 16.8380427 485.60723148 C12.96006617 485.60274281 9.08237827 485.60424701 5.20444298 485.62399292 C-62.97213519 485.95109457 -124.61375955 462.52321848 -173.51856995 414.83293152 C-175.41061508 412.94444286 -177.28657313 411.04141884 -179.15919495 409.13371277 C-180.02544495 408.28808777 -180.89169495 407.44246277 -181.78419495 406.57121277 C-190.15919495 397.97581803 -190.15919495 397.97581803 -190.15919495 395.13371277 C-190.81919495 395.13371277 -191.47919495 395.13371277 -192.15919495 395.13371277 C-193.46852112 393.56413269 -193.46852112 393.56413269 -194.9521637 391.36418152 C-195.49622864 390.56399597 -196.04029358 389.76381042 -196.60084534 388.93937683 C-197.17697571 388.07538269 -197.75310608 387.21138855 -198.34669495 386.32121277 C-198.9389386 385.44046082 -199.53118225 384.55970886 -200.14137268 383.65226746 C-201.30993772 381.90994389 -202.47515362 380.16536862 -203.63673401 378.41838074 C-204.79490245 376.68038518 -205.96944556 374.95328884 -207.15138245 373.23136902 C-223.60771226 348.62874658 -234.38612281 320.03176918 -240.34669495 291.13371277 C-240.57933044 290.01464539 -240.57933044 290.01464539 -240.81666565 288.87297058 C-243.75357801 273.78348297 -244.53634455 258.84467105 -244.47169495 243.50871277 C-244.46953979 242.58551239 -244.46738464 241.66231201 -244.46516418 240.71113586 C-244.41262622 226.66360799 -243.96291123 212.94150754 -241.15919495 199.13371277 C-240.86915588 197.6707074 -240.86915588 197.6707074 -240.57325745 196.17814636 C-231.22333184 150.44575559 -209.69078983 108.60825243 -177.15919495 75.13371277 C-176.57911682 74.52785339 -175.9990387 73.92199402 -175.40138245 73.29777527 C-166.87884607 64.41257777 -158.09319599 56.4049651 -148.15919495 49.13371277 C-147.49661682 48.64274109 -146.8340387 48.15176941 -146.15138245 47.6459198 C-136.2259835 40.32036201 -126.06289252 33.89291961 -115.15919495 28.13371277 C-114.5431842 27.79920105 -113.92717346 27.46468933 -113.29249573 27.12004089 C-78.70389695 8.36817704 -39.14697291 -0.05338767 0 0 Z M-103.15919495 129.13371277 C-104.00739807 129.89812683 -104.8556012 130.66254089 -105.72950745 131.45011902 C-118.00361142 143.11249113 -127.49857224 157.11812811 -135.15919495 172.13371277 C-135.47582092 172.73860535 -135.7924469 173.34349792 -136.1186676 173.96672058 C-155.14315001 210.58512379 -156.37931204 253.29575581 -144.51954651 292.23381042 C-133.23423388 327.52432195 -108.98758334 356.27428343 -78.15919495 376.13371277 C-77.28521057 376.69687195 -77.28521057 376.69687195 -76.39356995 377.27140808 C-63.31318096 385.54597658 -48.81344515 391.20530516 -33.84669495 395.00871277 C-33.09629944 395.19973572 -32.34590393 395.39075867 -31.57276917 395.58757019 C-15.31467098 399.43156617 0.77703754 399.43144737 17.39787638 399.40982115 C20.99108734 399.40733044 24.58427344 399.41639694 28.17747498 399.42385864 C35.19864615 399.43654392 42.21977896 399.43840703 49.24095967 399.43605838 C54.95506051 399.43426784 60.66914981 399.43604054 66.38324928 399.44028282 C67.6079625 399.44117561 67.6079625 399.44117561 68.85741741 399.44208642 C70.51666877 399.44329831 72.17592014 399.44451245 73.8351715 399.4457288 C89.36205617 399.45658091 104.88891908 399.45445312 120.41580496 399.44834395 C134.57922678 399.44317884 148.74257974 399.45442371 162.90598794 399.47344217 C177.49276595 399.49287704 192.07951148 399.50106658 206.6663025 399.49731892 C214.83805599 399.49541517 223.00975092 399.4978131 231.18149376 399.51203346 C238.13966136 399.52402066 245.09773438 399.5252709 252.05590346 399.5132433 C255.59668777 399.50740511 259.13729974 399.50611215 262.67807198 399.5182457 C281.6461139 399.57023565 300.16499556 398.96424845 318.46580505 393.44621277 C319.32641541 393.19202576 320.18702576 392.93783875 321.07371521 392.6759491 C346.06062781 385.00726684 367.02276084 371.04519427 385.84080505 353.13371277 C386.48662537 352.54074402 387.13244568 351.94777527 387.7978363 351.33683777 C414.7269959 325.85819497 429.80437438 286.31790714 431.12205505 249.80168152 C431.71216846 221.99668534 426.29929719 196.05674486 413.84080505 171.13371277 C413.38931091 170.22081482 413.38931091 170.22081482 412.92869568 169.28947449 C395.09837816 133.95356378 361.13935364 106.5665623 323.84080505 94.13371277 C321.58295458 93.55818225 319.33404973 93.05420509 317.04393005 92.62590027 C314.84080505 92.13371277 314.84080505 92.13371277 312.14225483 91.20293522 C296.61368194 86.1737814 280.53678371 86.69152301 264.40457666 86.72687972 C260.71864489 86.73166265 257.03276272 86.7190567 253.34684753 86.7088623 C246.14746247 86.69176688 238.94816504 86.69081509 231.74876497 86.69607521 C225.88884347 86.70013631 220.02894763 86.69865047 214.16902733 86.69332695 C213.33119738 86.69257853 212.49336744 86.69183011 211.63014871 86.691059 C209.92741587 86.68952733 208.22468303 86.68798898 206.52195021 86.68644404 C190.59439602 86.67275192 174.6668911 86.67813298 158.73933806 86.68962925 C144.21524746 86.69955331 129.69128441 86.6866294 115.16721348 86.66269506 C100.20293163 86.63822384 85.23870899 86.62871611 70.27440757 86.63534778 C61.89357175 86.63882288 53.51283385 86.63672225 45.13201332 86.61909676 C37.99606052 86.60427373 30.86027456 86.60386937 23.72432468 86.62116767 C20.09412398 86.62959884 16.46422 86.63202472 12.83403587 86.61651611 C-31.82278226 86.43961838 -69.75547672 98.96404153 -103.15919495 129.13371277 Z " fill="#FF141D" transform="translate(283.15919494628906,838.8662872314453)"/>
<path d="M0 0 C0.70150131 -0.00175304 1.40300262 -0.00350607 2.12576154 -0.00531223 C4.50625935 -0.010011 6.88669711 -0.00749683 9.26719761 -0.00507832 C10.97939926 -0.00694439 12.69160048 -0.00924427 14.40380102 -0.01194364 C19.1326533 -0.01809418 23.86148799 -0.01792422 28.59034336 -0.01674926 C33.68206329 -0.01654605 38.77377745 -0.02205671 43.86549473 -0.02680683 C53.85439592 -0.03513398 63.84329121 -0.03786269 73.83219557 -0.03841921 C81.95654243 -0.03889382 90.08088733 -0.0409458 98.20523357 -0.04411983 C121.23923136 -0.05293547 144.27322448 -0.05753831 167.30722397 -0.05678936 C168.55049369 -0.0567494 169.79376342 -0.05670945 171.07470798 -0.05666828 C172.31949787 -0.0566274 173.56428776 -0.05658652 174.84679855 -0.0565444 C194.98427929 -0.05613866 215.12174127 -0.06568771 235.2592166 -0.07980665 C255.93630342 -0.09418929 276.6133811 -0.10107565 297.29047304 -0.10021287 C308.89855653 -0.09988134 320.50662039 -0.10260864 332.11469936 -0.11339092 C342.00801894 -0.12252121 351.90131003 -0.12465081 361.79463201 -0.1178815 C366.83777741 -0.11462777 371.88086824 -0.11451766 376.92400837 -0.12323475 C381.55285132 -0.1311528 386.1815969 -0.12961471 390.81043763 -0.12095062 C392.47357072 -0.1194271 394.13671127 -0.12118774 395.79983556 -0.12681069 C410.67982949 -0.17373372 425.54001297 0.72762622 440.02417088 4.37863445 C440.89968601 4.59479412 441.77520115 4.81095379 442.67724705 5.03366375 C468.35007083 11.59634221 491.72642247 24.47493128 511.39917088 42.12863445 C512.31698338 42.92527508 513.23479588 43.7219157 514.18042088 44.54269695 C544.44370893 71.06865125 562.13775262 110.47716756 566.08667088 150.12863445 C568.92037846 193.51978177 556.75472326 236.76061817 527.96167088 269.9372282 C526.46594022 271.59286427 524.96069372 273.24000057 523.44213963 274.8747282 C522.02667359 276.43634178 520.66992554 278.05243852 519.36401463 279.70675945 C516.42833158 283.32529521 512.96663718 286.15057563 509.39917088 289.12863445 C508.66827244 289.74738445 507.937374 290.36613445 507.18432713 291.00363445 C464.14437179 326.52413004 414.85715437 329.64919909 361.39917088 329.12863445 C363.7809288 331.20016269 366.16414429 333.27000716 368.54760838 335.33957195 C369.21590672 335.92085857 369.88420506 336.5021452 370.57275486 337.10104656 C375.20069938 341.11759291 379.89543187 345.02916636 384.65698338 348.88644695 C387.76917129 351.4311704 390.83646961 354.02477826 393.89917088 356.62863445 C397.84563211 359.98315541 401.81559322 363.30085407 405.83667088 366.56613445 C410.69966512 370.52306863 415.45617291 374.59299387 420.20532322 378.6847868 C424.62225806 382.48264947 429.10871084 386.18543487 433.62963963 389.8591032 C439.50716498 394.67552384 445.27529002 399.62357745 451.0651865 404.54465008 C457.52324014 410.0313396 464.01414703 415.46640575 470.58667088 420.81613445 C474.28010997 423.85296216 477.92215574 426.948244 481.56543064 430.04489422 C484.95871197 432.92408765 488.38184873 435.76067682 491.83667088 438.56613445 C496.69966512 442.52306863 501.45617291 446.59299387 506.20532322 450.6847868 C510.61948854 454.48026812 515.10250286 458.18141358 519.62182713 461.8512907 C523.29667258 464.8645606 526.91618212 467.94072626 530.53491306 471.02096844 C535.11167186 474.90846461 539.76463486 478.69267263 544.44995213 482.44894695 C545.09319431 483.00324383 545.7364365 483.5575407 546.39917088 484.12863445 C546.39917088 484.45863445 546.39917088 484.78863445 546.39917088 485.12863445 C528.72680394 485.36271634 511.05492389 485.53880998 493.3813591 485.64675617 C485.17428401 485.69822048 476.96817468 485.76832286 468.7617197 485.88302898 C461.60502601 485.98301394 454.44903195 486.04728915 447.29165918 486.0695194 C443.50490542 486.08250601 439.72015229 486.11279974 435.93404293 486.18593502 C432.36207656 486.25436769 428.79291281 486.27464517 425.22035313 486.25971127 C423.30053303 486.26372847 421.38101111 486.31726311 419.46199131 486.37283611 C412.37859657 486.28945894 408.67734327 485.14934505 403.37104893 480.33111858 C401.70840481 478.60208728 400.05095311 476.86804533 398.39917088 475.12863445 C396.63024887 473.64279446 394.84123529 472.18019762 393.02417088 470.75363445 C388.22856597 466.88709261 383.7303842 462.78011462 379.23779392 458.57272625 C375.02505965 454.64970721 370.63512634 451.00959726 366.14526463 447.4059782 C363.13597941 444.91036898 360.25980066 442.2909664 357.39917088 439.62863445 C352.79264354 435.34225188 348.02789538 431.33111211 343.12573338 427.3825407 C339.27761977 424.20150696 335.61485606 420.83303831 331.93823338 417.45675945 C328.47819484 414.28417027 324.95218028 411.19632554 321.39917088 408.12863445 C320.84729099 407.65039227 320.29541111 407.17215008 319.72680759 406.6794157 C317.82806442 405.0349996 315.92646029 403.39394634 314.02417088 401.75363445 C313.09447483 400.94853436 313.09447483 400.94853436 312.14599705 400.12716961 C308.97449481 397.33742416 308.97449481 397.33742416 305.39917088 395.12863445 C305.39917088 394.46863445 305.39917088 393.80863445 305.39917088 393.12863445 C304.84745213 392.8966032 304.29573338 392.66457195 303.72729588 392.42550945 C300.77406856 390.7804231 298.60804867 388.69700494 296.14917088 386.37863445 C292.19027676 382.70137978 288.20937216 379.35049666 283.76245213 376.28488445 C283.31256931 375.90332195 282.8626865 375.52175945 282.39917088 375.12863445 C282.39917088 374.46863445 282.39917088 373.80863445 282.39917088 373.12863445 C281.84358494 372.89273602 281.287999 372.65683758 280.71557713 372.4137907 C277.83541496 370.81585925 275.73548011 368.82362945 273.33667088 366.56613445 C269.64553629 363.13328616 265.89506828 359.84925353 261.96167088 356.69113445 C257.42600645 353.03292431 253.14215918 349.1812048 248.87988377 345.21481609 C245.64723112 342.22436446 242.33220321 339.39084438 238.89917088 336.62863445 C234.46834138 333.05988337 230.25986147 329.30032041 226.09497166 325.42990398 C221.65731384 321.32296785 217.08324741 317.39146397 212.47680759 313.47580242 C209.00303279 310.51823036 205.58435889 307.51450308 202.21167088 304.44113445 C198.87689973 301.41150577 195.46629449 298.52255353 191.96167088 295.69113445 C187.12611171 291.77760987 182.5193004 287.66359847 177.93823338 283.45675945 C173.42660969 279.31994758 168.79931597 275.32252622 164.14526463 271.34738445 C162.93819775 270.31617616 161.7311675 269.28492498 160.52417088 268.25363445 C159.91557224 267.73390057 159.30697361 267.21416668 158.67993259 266.67868328 C154.33797235 262.96040755 150.08822846 259.15220526 145.86401463 255.30050945 C142.17497269 252.04994318 138.32013002 249.01254558 134.45385838 245.9762907 C133.7758115 245.36656414 133.09776463 244.75683758 132.39917088 244.12863445 C132.39917088 243.46863445 132.39917088 242.80863445 132.39917088 242.12863445 C132.956323 242.12939389 133.51347512 242.13015333 134.08751065 242.13093579 C167.15622673 242.17575474 200.22493515 242.21003925 233.29367483 242.23076511 C237.27000234 242.23326633 241.24632979 242.235855 245.2226572 242.23849773 C246.01422608 242.23902235 246.80579495 242.23954698 247.62135076 242.24008749 C260.41494926 242.2487748 273.20852967 242.2645355 286.00211746 242.28294004 C299.14310297 242.30168577 312.28407905 242.31276103 325.42507738 242.31681144 C333.5246776 242.31954683 341.62422667 242.32816605 349.72381114 242.34446739 C355.94914088 242.35635343 362.17443215 242.35753405 368.39977169 242.35484982 C370.94292737 242.3553976 373.48608509 242.35934312 376.02922916 242.3670454 C402.58762382 242.4434994 428.14883329 240.65807592 448.3217783 221.33078289 C462.33379724 207.35946176 471.07244057 190.02958896 472.39917088 170.12863445 C472.45073338 169.36164227 472.50229588 168.59465008 472.55542088 167.8044157 C473.02419997 154.7371985 470.20493046 141.80947612 464.39917088 130.12863445 C464.01889744 129.34230633 463.638624 128.5559782 463.24682713 127.74582195 C453.08518846 108.10683006 435.91832742 96.43175141 415.46630955 89.68185711 C410.87914289 88.45420627 406.40031009 88.00295238 401.66332531 87.98996925 C400.53634102 87.98449389 399.40935673 87.97901852 398.2482214 87.97337723 C397.02094641 87.97240005 395.79367142 87.97142286 394.52920628 87.97041607 C393.22050571 87.96548641 391.91180515 87.96055676 390.563447 87.95547771 C386.93001122 87.94192437 383.29658471 87.93450327 379.66313031 87.92806296 C375.68507936 87.91991731 371.7070476 87.90605105 367.72901058 87.89291 C360.00745385 87.8682585 352.28589253 87.84865892 344.56431737 87.83082477 C335.63254535 87.80997749 326.7007997 87.7828461 317.76904392 87.75570965 C294.18743451 87.68716918 270.60580089 87.62717592 247.02417088 87.56613445 C194.34792088 87.42175945 141.67167088 87.27738445 87.39917088 87.12863445 C87.39917088 218.46863445 87.39917088 349.80863445 87.39917088 485.12863445 C56.04917088 485.12863445 24.69917088 485.12863445 -7.60082912 485.12863445 C-7.63394833 392.43612713 -7.63394833 392.43612713 -7.64317226 346.74177837 C-7.64331032 346.05960346 -7.64344838 345.37742855 -7.64359062 344.67458167 C-7.64658318 329.85088147 -7.64935341 315.02718124 -7.65189445 300.20348096 C-7.65314185 292.93447287 -7.65443839 285.66546479 -7.65576077 278.39645672 C-7.65589152 277.67308361 -7.65602228 276.94971051 -7.656157 276.20441701 C-7.66042219 252.73652974 -7.66793635 229.26864486 -7.67712635 205.80075904 C-7.6865492 181.69459847 -7.6927123 157.58843923 -7.69474411 133.48227685 C-7.69503229 130.08138557 -7.69535793 126.68049429 -7.69570637 123.279603 C-7.69577379 122.61022559 -7.69584121 121.94084819 -7.69591068 121.25118661 C-7.69709472 110.45415986 -7.701739 99.65713721 -7.70766116 88.86011214 C-7.71353438 78.01872613 -7.71571938 67.1773444 -7.7143305 56.33595688 C-7.71368679 50.45647963 -7.71470833 44.57701446 -7.7200346 38.69753933 C-7.72486688 33.32446927 -7.72516891 27.95141952 -7.72172802 22.57834857 C-7.72130216 20.62544961 -7.72259933 18.67254943 -7.72571231 16.7196529 C-7.72967344 14.08323963 -7.72759431 11.44690155 -7.72387695 8.81048965 C-7.72650397 8.03661347 -7.72913098 7.2627373 -7.7318376 6.46541032 C-7.70945304 -0.46743098 -6.74531082 0.00377214 0 0 Z " fill="#FF141D" transform="translate(862.6008291244507,838.8713655471802)"/>
<path d="M0 0 C4.2552939 0.00874901 8.51058294 0.00570637 12.76588333 0.00419545 C20.11399515 0.00315374 27.46207107 0.009355 34.81017387 0.02067113 C45.43390316 0.03702098 56.05761535 0.04214377 66.68135586 0.04464711 C83.92342393 0.04900945 101.16547293 0.0622786 118.40753067 0.08125234 C135.14288127 0.09964917 151.87822666 0.11378699 168.61358535 0.12226796 C170.16452125 0.12305613 170.16452125 0.12305613 171.74678919 0.12386023 C176.93456264 0.12647056 182.12233611 0.12899791 187.31010962 0.13148403 C230.25397345 0.15217095 273.1978165 0.18735633 316.14166152 0.23213124 C314.51158954 4.51639947 312.35886678 8.09802985 309.76666152 11.85713124 C305.77161182 17.74364253 301.91779087 23.70296609 298.14166152 29.73213124 C294.14034991 36.10876403 290.06143247 42.41933492 285.86260879 48.66743398 C282.72116854 53.34661583 279.63766924 58.06084716 276.57916152 62.79463124 C275.89466934 63.85363637 275.89466934 63.85363637 275.19634902 64.93403554 C272.95980077 68.39948719 270.73240836 71.87052948 268.51666152 75.34931874 C268.10488662 75.99441396 267.69311172 76.63950917 267.26885879 77.30415273 C266.49618621 78.51572489 265.72571149 79.72870255 264.95782363 80.94331288 C263.47933432 83.26129225 262.09309942 85.28069335 260.14166152 87.23213124 C258.0423227 87.48463893 258.0423227 87.48463893 255.38722408 87.48825765 C254.37759095 87.49448974 253.36795783 87.50072184 252.32772976 87.50714278 C251.21015705 87.50384381 250.09258433 87.50054483 248.94114578 87.49714589 C247.76029555 87.50152716 246.57944532 87.50590843 245.36281174 87.51042247 C242.07450004 87.52064733 238.78640044 87.52189915 235.49808788 87.51948738 C231.95522039 87.51906909 228.41238763 87.53015519 224.86953628 87.53994679 C218.72486787 87.5554284 212.58022248 87.56381738 206.43553627 87.56765676 C197.53712334 87.57340047 188.63877228 87.59198291 179.74038664 87.6140973 C165.28569477 87.64985362 150.83099939 87.67814688 136.37628067 87.70039296 C135.07768888 87.70239545 135.07768888 87.70239545 133.75286291 87.70443839 C127.6116294 87.71386071 121.47039551 87.72302087 115.32916152 87.73213124 C108.33314885 87.74251827 101.33713642 87.75303964 94.34112442 87.76386952 C93.04911438 87.76586564 93.04911438 87.76586564 91.73100313 87.76790208 C77.34467151 87.79036974 62.95836601 87.82058793 48.57206124 87.85626197 C39.70306733 87.87787887 30.83411411 87.89253417 21.96509532 87.89810073 C15.87762477 87.90236377 9.79019288 87.91364304 3.70274379 87.93032467 C0.19536323 87.93968524 -3.31194513 87.9458607 -6.81933892 87.94326138 C-10.6333088 87.94209607 -14.44706229 87.95316855 -18.26100266 87.96711659 C-19.35403744 87.96381762 -20.44707221 87.96051865 -21.57322925 87.9571197 C-28.18192708 87.9967858 -34.45978793 88.65141241 -40.96918231 89.80394816 C-43.65246794 90.20162051 -46.15158134 90.31048112 -48.85833848 90.23213124 C-49.18833848 90.89213124 -49.51833848 91.55213124 -49.85833848 92.23213124 C-51.15771348 92.45900624 -52.45708848 92.68588124 -53.79583848 92.91963124 C-79.74830677 97.74885475 -103.84050894 113.8381819 -122.4774791 131.9025414 C-123.65403854 133.0354167 -124.85533471 134.14250901 -126.06146348 135.24384999 C-144.58814367 152.60319871 -155.15399824 177.02055728 -163.85833848 200.23213124 C-14.03833848 200.23213124 135.78166152 200.23213124 290.14166152 200.23213124 C287.83166152 203.86213124 285.52166152 207.49213124 283.14166152 211.23213124 C281.36321001 214.14463102 279.59201876 217.06031246 277.82916152 219.98213124 C274.06450339 226.18183254 270.17648153 232.26789131 266.1162709 238.27729726 C262.42222027 243.76307735 258.86924292 249.33352333 255.32916152 254.91963124 C250.53480461 262.47299866 245.7368122 270.02370879 240.89166152 277.54463124 C240.06831314 278.83470082 240.06831314 278.83470082 239.22833145 280.15083241 C238.46613296 281.32996205 238.46613296 281.32996205 237.68853652 282.53291249 C237.2434877 283.22554189 236.79843887 283.91817128 236.33990371 284.63178945 C235.14166152 286.23213124 235.14166152 286.23213124 233.14166152 287.23213124 C230.99986913 287.32755783 228.85500419 287.35585624 226.71108711 287.35517907 C226.04018344 287.35633292 225.36927977 287.35748676 224.67804569 287.35867557 C222.40782647 287.36134312 220.13767677 287.35681894 217.86746109 287.35238576 C216.23231386 287.35282143 214.5971667 287.35369627 212.96201992 287.35497493 C208.45150654 287.35722064 203.94101672 287.35319755 199.43050635 287.34819686 C194.57296374 287.34389365 189.71542254 287.3453387 184.85787857 287.34609914 C176.43612114 287.34662446 168.01437144 287.34347684 159.59261596 287.3378613 C147.41604793 287.32974735 135.23948364 287.32713119 123.06291319 287.32587331 C103.30904984 287.32368262 83.55519061 287.31702209 63.80132949 287.3075707 C44.60797033 287.29839701 25.41461228 287.29131596 6.22125137 287.28706288 C5.03892657 287.28680016 3.85660176 287.28653744 2.63844894 287.28626675 C-3.292702 287.28496175 -9.22385295 287.28369803 -15.15500391 287.28245485 C-64.38945161 287.27208172 -113.62389484 287.25446296 -162.85833848 287.23213124 C-162.06919972 289.63839869 -161.27693499 292.04356058 -160.48285019 294.4481957 C-160.26106598 295.12556027 -160.03928177 295.80292485 -159.81077683 296.50081563 C-158.2045475 301.35336267 -156.37134681 305.90819679 -153.98333848 310.41963124 C-153.64165635 311.08124257 -153.29997422 311.7428539 -152.94793808 312.42451406 C-151.93395247 314.36937555 -150.90104304 316.30254029 -149.85833848 318.23213124 C-149.27954941 319.30592031 -148.70076035 320.37970937 -148.10443223 321.48603749 C-129.0465526 355.40110401 -96.11906188 381.22992238 -58.85833848 392.23213124 C-43.68914264 396.1800726 -29.23851274 398.37991257 -13.57098496 398.39034963 C-12.11627422 398.39492063 -10.66156478 398.39992143 -9.20685685 398.40531319 C-5.22298207 398.41884245 -1.23911579 398.42629748 2.74477589 398.43273985 C7.04598071 398.4407668 11.34716798 398.45445664 15.64836013 398.46745229 C23.09599145 398.48918255 30.54362456 398.50733962 37.9912709 398.52305722 C48.75926546 398.54578732 59.52724056 398.57392577 70.29521859 398.6033765 C87.76632248 398.65101395 105.23743433 398.69428854 122.70855606 398.73481679 C139.67828892 398.7741913 156.64801472 398.81562221 173.61773574 398.85981679 C174.6640694 398.86254106 175.71040306 398.86526533 176.7884438 398.86807216 C182.03768783 398.88175196 187.28693174 398.89547217 192.53617561 398.90921247 C236.07132282 399.0231168 279.60648535 399.1299395 323.14166152 399.23213124 C321.76690878 402.76847146 320.25523047 405.84640185 318.20025527 409.04072499 C317.33146743 410.39810781 317.33146743 410.39810781 316.44512832 411.78291249 C315.52147476 413.21183827 315.52147476 413.21183827 314.57916152 414.66963124 C313.63133804 416.14689687 313.63133804 416.14689687 312.6643666 417.65400624 C310.82721243 420.51581282 308.98482214 423.37419096 307.14166152 426.23213124 C306.27138322 427.5872876 305.40152179 428.94271186 304.53228652 430.29853749 C302.40668852 433.61271089 300.27441062 436.92255449 298.14166152 440.23213124 C296.64105713 442.56507619 295.1413848 444.89861981 293.64166152 447.23213124 C292.88906567 448.4027095 292.13646153 449.57328244 291.38384902 450.74384999 C288.6539973 454.98773617 288.6539973 454.98773617 285.93404597 459.23796558 C284.83386829 460.94062082 283.69998622 462.62136151 282.56409633 464.30040288 C280.81797321 466.98359139 279.5161365 469.61853521 278.31582248 472.58326268 C276.07548824 477.60706251 273.62718596 481.9116234 269.14166152 485.23213124 C260.56253637 488.25351936 250.96261153 487.45614491 241.97911191 487.24922395 C238.22757998 487.18159528 234.47665888 487.21295532 230.72474563 487.23179555 C223.38279525 487.253386 216.04430706 487.18524873 208.70308509 487.08743039 C200.1346447 486.97720367 191.56679077 486.96136498 182.99774311 486.95027825 C167.68908345 486.92772389 152.38195721 486.82718331 137.07403457 486.67939687 C122.2637981 486.53654465 107.45423813 486.43716649 92.64337051 486.39228749 C91.27741081 486.38813236 91.27741081 486.38813236 89.88385596 486.38389328 C86.22198107 486.37287561 82.56010577 486.3620135 78.8982297 486.35139407 C63.02245475 486.30438923 47.14681765 486.22404746 31.27121964 486.13667738 C28.71684828 486.12276152 26.16247436 486.1094221 23.60809958 486.09614968 C13.87626307 486.04450021 4.14478336 485.97525313 -5.5867492 485.88244176 C-8.52365393 485.85490097 -11.4604866 485.83362873 -14.39748108 485.81853795 C-37.50664256 485.69376908 -59.34837712 483.41450935 -81.85833848 478.23213124 C-83.74552598 477.81060781 -83.74552598 477.81060781 -85.67083848 477.38056874 C-91.75435944 475.96012399 -91.75435944 475.96012399 -93.85833848 475.23213124 C-94.18833848 474.57213124 -94.51833848 473.91213124 -94.85833848 473.23213124 C-96.66385457 472.66586001 -96.66385457 472.66586001 -98.83880723 472.32197499 C-103.84901917 471.30055227 -108.43432239 469.70162695 -113.17083848 467.79463124 C-114.02967637 467.44900136 -114.88851426 467.10337148 -115.77337754 466.74726796 C-125.56541335 462.68537324 -134.7356706 457.60754909 -143.85833848 452.23213124 C-144.97329697 451.57760976 -144.97329697 451.57760976 -146.11077988 450.90986562 C-154.0904811 446.18407537 -161.50992936 441.23051459 -168.52630723 435.14228749 C-170.84178785 433.14253851 -170.84178785 433.14253851 -173.65911973 431.60322499 C-174.74773301 430.92453359 -174.74773301 430.92453359 -175.85833848 430.23213124 C-175.85833848 429.57213124 -175.85833848 428.91213124 -175.85833848 428.23213124 C-176.44317002 427.96803456 -177.02800156 427.70393788 -177.63055527 427.43183827 C-179.9471311 426.18431459 -181.58703754 424.83295927 -183.50286973 423.03681874 C-184.18027207 422.40259999 -184.85767441 421.76838124 -185.5556041 421.11494374 C-186.25363144 420.45236562 -186.95165879 419.78978749 -187.67083848 419.10713124 C-188.35726426 418.46775624 -189.04369004 417.82838124 -189.7509166 417.16963124 C-196.27856753 411.01869432 -202.03757338 404.32225411 -207.67083848 397.35713124 C-210.64059365 393.68255909 -210.64059365 393.68255909 -213.85833848 390.23213124 C-214.85891455 388.78840309 -215.8356156 387.328007 -216.79583848 385.85713124 C-218.31969202 383.52653171 -219.83446392 381.26267743 -221.54974473 379.06806874 C-222.85833848 377.23213124 -222.85833848 377.23213124 -222.85833848 375.23213124 C-223.51833848 375.23213124 -224.17833848 375.23213124 -224.85833848 375.23213124 C-226.2813106 372.62334902 -227.70383472 370.01433814 -229.12396348 367.40400624 C-230.27145388 365.30544271 -231.42758993 363.21158133 -232.59271348 361.12275624 C-233.13411973 360.14822499 -233.67552598 359.17369374 -234.23333848 358.16963124 C-234.73607285 357.27115468 -235.23880723 356.37267812 -235.75677598 355.44697499 C-236.85833848 353.23213124 -236.85833848 353.23213124 -236.85833848 351.23213124 C-237.51833848 350.90213124 -238.17833848 350.57213124 -238.85833848 350.23213124 C-239.9240123 348.06172109 -239.9240123 348.06172109 -241.06536973 345.19306874 C-241.4846373 344.14578603 -241.90390488 343.09850331 -242.33587754 342.01948476 C-242.77641465 340.8934081 -243.21695176 339.76733144 -243.67083848 338.60713124 C-244.12297715 337.45720693 -244.57511582 336.30728261 -245.04095566 335.1225121 C-246.32613735 331.83045192 -247.5964668 328.53318755 -248.85833848 325.23213124 C-249.14177109 324.49527089 -249.42520371 323.75841054 -249.71722519 322.99922109 C-271.12748412 266.41816698 -266.93189784 199.66897623 -242.42083848 144.85713124 C-231.77003156 121.69706257 -218.5629225 100.41483261 -201.13958848 81.70088124 C-199.2460324 79.65169042 -197.45235988 77.56472844 -195.67083848 75.41963124 C-186.37811196 64.77125992 -175.35873683 55.40099031 -163.85833848 47.23213124 C-163.21090683 46.7712914 -162.56347519 46.31045156 -161.89642441 45.83564687 C-132.33602156 25.01689583 -99.26394365 10.60435416 -63.67083848 3.91963124 C-62.49968491 3.69847646 -62.49968491 3.69847646 -61.30487168 3.4728539 C-40.97731536 -0.01560914 -20.55169114 -0.05314596 0 0 Z " fill="#FF141D" transform="translate(3483.8583384752274,838.7678687572479)"/>
<path d="M0 0 C1.48113281 0.51046875 1.48113281 0.51046875 2.9921875 1.03125 C19.27979362 7.16500498 30.62309724 18.92611345 39.5625 33.5 C40.95281241 35.71894589 42.34344689 37.93769001 43.734375 40.15625 C44.44490029 41.2980285 45.15518616 42.43995601 45.86523438 43.58203125 C49.29528387 49.08797773 52.80881643 54.54075263 56.3125 60 C57.64977394 62.08982176 58.98701447 64.17966491 60.32421875 66.26953125 C63.83735376 71.75232852 67.37421657 77.21939983 70.91918945 82.68164062 C75.25783853 89.37717675 79.53167149 96.11363175 83.80908203 102.84838867 C87.3475399 108.41553011 90.90761742 113.96751764 94.5 119.5 C98.70495966 125.97588742 102.86036663 132.48217239 107 139 C111.09963539 145.45419301 115.21245708 151.89868174 119.375 158.3125 C127.34698202 170.59763142 135.21467034 182.94984194 143.10253906 195.2890625 C150.01616786 206.10310063 156.93175466 216.91511216 163.91918945 227.68164062 C168.25927502 234.37939358 172.53430066 241.11821647 176.81347656 247.85498047 C180.31043062 253.35633283 183.82624449 258.84443076 187.375 264.3125 C195.34698202 276.59763142 203.21467034 288.94984194 211.10253906 301.2890625 C218.01616786 312.10310063 224.93175466 322.91511216 231.91918945 333.68164062 C236.25783853 340.37717675 240.53167149 347.11363175 244.80908203 353.84838867 C248.3475399 359.41553011 251.90761742 364.96751764 255.5 370.5 C259.70495966 376.97588742 263.86036663 383.48217239 268 390 C272.09963539 396.45419301 276.21245708 402.89868174 280.375 409.3125 C288.34698202 421.59763142 296.21467034 433.94984194 304.10253906 446.2890625 C306.17215554 449.52627876 308.24225466 452.76318588 310.3125 456 C310.97338623 457.03382813 311.63427246 458.06765625 312.31518555 459.1328125 C315.34530344 463.8689568 318.38338004 468.59938482 321.44921875 473.3125 C322.22881958 474.51132813 322.22881958 474.51132813 323.02416992 475.734375 C323.98182553 477.2045229 324.94150525 478.67335502 325.90356445 480.140625 C329 484.89118836 329 484.89118836 329 486 C314.63135011 486.21040994 300.26293964 486.36843081 285.8930645 486.46630955 C279.22041687 486.51328694 272.54900486 486.57700522 265.87695312 486.67895508 C259.43835408 486.7767224 253.00075022 486.83055383 246.56146622 486.85389519 C244.10452731 486.87052919 241.64764312 486.90301285 239.19112778 486.95157051 C235.74975556 487.01689218 232.31249756 487.0259033 228.87060547 487.02172852 C227.85424515 487.054086 226.83788483 487.08644348 225.79072571 487.11978149 C219.02707026 487.03097009 219.02707026 487.03097009 216.09367752 484.08643913 C214.53696835 481.78383858 213.25245664 479.4790927 212 477 C211.09206401 475.48871876 210.1753726 473.98262718 209.24609375 472.484375 C208.30793873 470.90741266 207.37180884 469.32924414 206.4375 467.75 C203.11897646 462.16846025 199.7722348 456.60915679 196.33203125 451.1015625 C195.73398682 450.14411133 195.13594238 449.18666016 194.51977539 448.20019531 C193.35475763 446.34040976 192.18606718 444.48291901 191.01342773 442.62792969 C190.48821533 441.78907227 189.96300293 440.95021484 189.421875 440.0859375 C188.71949707 438.9729126 188.71949707 438.9729126 188.00292969 437.83740234 C187 436 187 436 187 434 C186.34 433.67 185.68 433.34 185 433 C183.70972437 430.89403288 182.49711185 428.78923828 181.3125 426.625 C178.16457956 420.97212623 174.82628938 415.50574023 171.25 410.109375 C170 408 170 408 170 406 C169.34 405.67 168.68 405.34 168 405 C167.375 402.9375 167.375 402.9375 167 401 C165.70624545 401.01567048 164.4124909 401.03134096 163.07953167 401.04748631 C132.34324983 401.41595953 101.60756567 401.69612862 70.86960424 401.8681106 C67.0833944 401.88937169 63.29718922 401.91137526 59.51098633 401.93383789 C58.38037614 401.94052681 58.38037614 401.94052681 57.22692535 401.94735085 C45.03452841 402.02125275 32.84349909 402.15524631 20.65191253 402.31159753 C8.13479747 402.47078028 -4.38160326 402.56504096 -16.8996889 402.59950441 C-24.62016638 402.62279219 -32.33677866 402.69621717 -40.0560654 402.83457994 C-45.98315512 402.93538322 -51.90828007 402.94569001 -57.83625031 402.92283058 C-60.26199535 402.92749824 -62.68788989 402.96120048 -65.11276054 403.02649307 C-82.99813901 403.4843552 -82.99813901 403.4843552 -88.05000854 399.30340266 C-91.55781454 395.24228498 -93.95299315 390.77169097 -96.115538 385.88491809 C-97.14506774 383.6908394 -98.51138327 381.903385 -100 380 C-100 379.34 -100 378.68 -100 378 C-100.66 377.67 -101.32 377.34 -102 377 C-103.07433752 375.40986649 -104.08751823 373.77791749 -105.0625 372.125 C-105.58972656 371.24070312 -106.11695313 370.35640625 -106.66015625 369.4453125 C-108 367 -108 367 -109 364 C-109.66 363.67 -110.32 363.34 -111 363 C-112.26047107 361.22336318 -113.46123378 359.40393256 -114.625 357.5625 C-115.57246094 356.07943359 -115.57246094 356.07943359 -116.5390625 354.56640625 C-118 352 -118 352 -118 350 C-118.66 349.67 -119.32 349.34 -120 349 C-121.05199344 347.514657 -122.0409258 345.98446823 -123 344.4375 C-123.61488281 343.45136719 -124.22976563 342.46523437 -124.86328125 341.44921875 C-125.20182129 340.90185059 -125.54036133 340.35448242 -125.88916016 339.79052734 C-127.0988072 337.84073582 -128.31999275 335.89848846 -129.54296875 333.95703125 C-130.42465859 332.5548003 -131.30617001 331.15245715 -132.1875 329.75 C-132.81108398 328.75891235 -132.81108398 328.75891235 -133.44726562 327.74780273 C-134.05151367 326.78209351 -134.05151367 326.78209351 -134.66796875 325.796875 C-135.02141357 325.23323242 -135.3748584 324.66958984 -135.73901367 324.08886719 C-137.54811898 321.09202207 -139.26323429 318.03933998 -141 315 C-59.16 314.67 22.68 314.34 107 314 C101.555 305.585 101.555 305.585 96 297 C93.95432112 293.6557805 91.92642231 290.31394968 89.9375 286.9375 C84.74646262 278.21255115 79.42276992 269.58246182 74 261 C73.55221191 260.29117676 73.10442383 259.58235352 72.64306641 258.85205078 C71.19973881 256.56791086 69.75612377 254.28395275 68.3125 252 C57.91807924 235.55481856 47.56237898 219.08922099 37.56689453 202.39746094 C34.51251123 197.30395263 34.51251123 197.30395263 30.98046875 192.54296875 C28.39900843 189.2283126 26.58591136 185.63072528 24.61083984 181.93017578 C22.06138377 177.29262323 19.18848763 172.87726055 16.3125 168.4375 C11.92496384 161.60620689 7.58448018 154.75504709 3.375 147.8125 C-0.41641064 141.5633829 -4.27489378 135.36148703 -8.1875 129.1875 C-16.11852194 116.65663849 -16.11852194 116.65663849 -18.75 112.4375 C-19.38421875 111.42558594 -20.0184375 110.41367187 -20.671875 109.37109375 C-22 107 -22 107 -22 105 C-22.66 105 -23.32 105 -24 105 C-24.4026709 106.08390015 -24.4026709 106.08390015 -24.81347656 107.18969727 C-25.99499895 109.98815492 -27.3663042 112.39698215 -28.984375 114.96484375 C-29.58314453 115.91915283 -30.18191406 116.87346191 -30.79882812 117.85668945 C-31.44271484 118.87335693 -32.08660156 119.89002441 -32.75 120.9375 C-33.41451172 121.99348389 -34.07902344 123.04946777 -34.76367188 124.13745117 C-36.83713397 127.42836115 -38.91727392 130.71494619 -41 134 C-41.64775391 135.0219043 -42.29550781 136.04380859 -42.96289062 137.09667969 C-47.52930329 144.29430541 -52.11347889 151.4805445 -56.70166016 158.66430664 C-60.96818984 165.35443069 -65.17931959 172.07777235 -69.375 178.8125 C-74.12567241 186.42647992 -78.90847999 194.01435151 -83.78125 201.55078125 C-86.96419156 206.48346942 -90.08408151 211.45616912 -93.21435547 216.42236328 C-96.48548876 221.60925581 -99.772253 226.78584428 -103.07006836 231.95581055 C-109.27529669 241.68402966 -115.42061911 251.44775983 -121.52783203 261.23779297 C-126.83685283 269.74688517 -132.18469766 278.23083024 -137.54833984 286.70556641 C-139.53151209 289.84008588 -141.51204587 292.97626835 -143.49243164 296.11254883 C-144.49795672 297.70494231 -145.50365351 299.29722738 -146.50952148 300.8894043 C-148.96180476 304.77115924 -151.41248227 308.65390703 -153.859375 312.5390625 C-159.47245029 321.44654086 -165.12698306 330.3260675 -170.8125 339.1875 C-177.4434208 349.52654318 -183.97605385 359.92383618 -190.47265625 370.34765625 C-195.13145904 377.8212315 -199.83860556 385.26402686 -204.54833984 392.70556641 C-207.03473533 396.63545958 -209.51712775 400.56788032 -212 404.5 C-212.99998164 406.08334493 -213.99998162 407.66667828 -215 409.25 C-215.7425 410.425625 -215.7425 410.425625 -216.5 411.625 C-218 414 -219.5 416.375 -221 418.75 C-221.49483887 419.5335083 -221.98967773 420.3170166 -222.49951172 421.12426758 C-223.50109035 422.71007325 -224.50271808 424.29584791 -225.50439453 425.8815918 C-227.98064184 429.80184757 -230.45607701 433.72261107 -232.9296875 437.64453125 C-240.02693865 448.89451713 -247.15598154 460.12403644 -254.30712891 471.33984375 C-255.52069274 473.24682262 -256.7309207 475.15592596 -257.93896484 477.06640625 C-258.57141113 478.06542969 -259.20385742 479.06445312 -259.85546875 480.09375 C-260.43321045 481.00833984 -261.01095215 481.92292969 -261.60620117 482.86523438 C-263 485 -263 485 -264 486 C-265.44213999 486.09558036 -266.88894079 486.12188394 -268.33424377 486.12025452 C-269.26958954 486.12162918 -270.2049353 486.12300385 -271.16862488 486.12442017 C-272.72012993 486.11902725 -272.72012993 486.11902725 -274.30297852 486.11352539 C-275.38577087 486.11367142 -276.46856323 486.11381744 -277.58416748 486.1139679 C-281.18243374 486.11326823 -284.78064897 486.10547333 -288.37890625 486.09765625 C-290.86612418 486.09579226 -293.35334248 486.09436827 -295.84056091 486.09336853 C-301.73021191 486.0899335 -307.6198439 486.08204277 -313.50948709 486.07201904 C-320.87025374 486.05976246 -328.23102264 486.05437791 -335.59179688 486.04882812 C-348.72787398 486.03808815 -361.86393583 486.02120089 -375 486 C-374.2040813 484.55850986 -373.40708494 483.11761471 -372.6096344 481.67697144 C-372.16592278 480.87450926 -371.72221117 480.07204708 -371.26505375 479.24526787 C-369.82086734 476.68206821 -368.27459637 474.21194493 -366.65234375 471.7578125 C-366.05292969 470.84612305 -365.45351562 469.93443359 -364.8359375 468.99511719 C-363.89621094 467.57440918 -363.89621094 467.57440918 -362.9375 466.125 C-356.66167423 456.57255204 -350.50931738 446.95138002 -344.43139648 437.2722168 C-339.14574011 428.88169934 -333.78686228 420.53746526 -328.4375 412.1875 C-323.17306402 403.96745136 -317.92212849 395.73905906 -312.6875 387.5 C-308.2669109 380.54429941 -303.81838692 373.60810111 -299.33178711 366.69482422 C-295.11245202 360.18780517 -290.92970514 353.65752883 -286.75 347.125 C-285.75734131 345.57365356 -285.75734131 345.57365356 -284.74462891 343.9909668 C-281.65363066 339.15764978 -278.56697584 334.32163268 -275.48828125 329.48046875 C-271.81701641 323.70823494 -268.12770297 317.94763832 -264.4375 312.1875 C-259.17306402 303.96745136 -253.92212849 295.73905906 -248.6875 287.5 C-244.2669109 280.54429941 -239.81838692 273.60810111 -235.33178711 266.69482422 C-231.11245202 260.18780517 -226.92970514 253.65752883 -222.75 247.125 C-222.08822754 246.09076904 -221.42645508 245.05653809 -220.74462891 243.9909668 C-217.65363066 239.15764978 -214.56697584 234.32163268 -211.48828125 229.48046875 C-207.81701641 223.70823494 -204.12770297 217.94763832 -200.4375 212.1875 C-195.17306402 203.96745136 -189.92212849 195.73905906 -184.6875 187.5 C-180.2669109 180.54429941 -175.81838692 173.60810111 -171.33178711 166.69482422 C-167.11245202 160.18780517 -162.92970514 153.65752883 -158.75 147.125 C-158.08822754 146.09076904 -157.42645508 145.05653809 -156.74462891 143.9909668 C-153.65363066 139.15764978 -150.56697584 134.32163268 -147.48828125 129.48046875 C-143.81701641 123.70823494 -140.12770297 117.94763832 -136.4375 112.1875 C-131.17306402 103.96745136 -125.92212849 95.73905906 -120.6875 87.5 C-116.26637277 80.54345268 -111.81862162 73.60553285 -107.32958984 66.69262695 C-102.45652813 59.1808032 -97.64272015 51.63105033 -92.83251953 44.07885742 C-80.31820451 24.47498903 -69.59725526 8.66135583 -47 0 C-46.11570312 -0.3403125 -45.23140625 -0.680625 -44.3203125 -1.03125 C-30.95310369 -5.21576754 -13.1058381 -4.85111619 0 0 Z " fill="#FF141D" transform="translate(1806,838)"/>
<path d="M0 0 C4.24302385 0.00874946 8.48604282 0.00570633 12.72907317 0.00419545 C20.05590411 0.00315377 27.38269905 0.00935472 34.70952094 0.02067113 C45.30248115 0.03702137 55.89542419 0.04214381 66.48839565 0.04464711 C83.68054945 0.04900939 100.87268413 0.06227838 118.06482756 0.08125234 C134.75167556 0.09964932 151.43851833 0.11378707 168.12537444 0.12226796 C169.67182984 0.12305613 169.67182984 0.12305613 171.24952678 0.12386023 C176.42231615 0.12647056 181.59510555 0.12899792 186.76789498 0.13148403 C229.58734473 0.15217077 272.40677363 0.18735597 315.22620451 0.23213124 C314.30872339 4.5830359 312.10109302 7.90898978 309.72620451 11.60713124 C309.0501718 12.67387074 309.0501718 12.67387074 308.36048186 13.76216054 C306.98864532 15.92288729 305.60893347 18.07836196 304.22620451 20.23213124 C303.84367522 20.82880605 303.46114592 21.42548085 303.06702483 22.04023671 C301.63380546 24.2740687 300.19860143 26.50660862 298.75891936 28.73628163 C295.5881161 33.65054563 292.46753555 38.59569074 289.35120451 43.54463124 C285.03619252 50.39522648 280.66978995 57.20943857 276.25037444 63.99311757 C273.92218533 67.57634943 271.62961986 71.17704862 269.38636076 74.81416249 C268.92890471 75.55513173 268.47144866 76.29610097 268.0001303 77.05952382 C267.12810235 78.47716662 266.26037971 79.8974694 265.39759123 81.32075429 C262.44483564 86.12281568 262.44483564 86.12281568 260.22620451 87.23213124 C258.65206044 87.32708392 257.07391189 87.35873677 255.49690688 87.35962319 C253.99078262 87.36413467 253.99078262 87.36413467 252.45423162 87.36873728 C251.34279798 87.36698691 250.23136435 87.36523654 249.0862509 87.36343312 C247.91175076 87.36554884 246.73725062 87.36766455 245.52715957 87.36984438 C242.25628372 87.37481638 238.98544061 87.3753391 235.7145623 87.37410367 C232.18994022 87.37388885 228.66532731 87.37946188 225.14070952 87.38450551 C219.02552862 87.39262969 212.91035191 87.39756657 206.79516661 87.40079618 C197.11072344 87.40629569 187.42631547 87.42319989 177.74189055 87.44213796 C174.42631978 87.44849567 171.11074892 87.45480411 167.79517806 87.46111512 C166.55197366 87.46349077 166.55197366 87.46349077 165.28365402 87.4659144 C155.84084137 87.48386459 146.39802619 87.50008016 136.95520842 87.51509023 C135.66015782 87.51715403 135.66015782 87.51715403 134.33894458 87.51925953 C120.39593849 87.5411169 106.45294146 87.55192713 92.50992128 87.55946098 C78.17437403 87.56756336 63.83890388 87.59096069 49.50340068 87.62741464 C40.67585152 87.64932331 31.84846144 87.65914018 23.02088651 87.65291431 C16.950132 87.64971267 10.87951203 87.66124583 4.80879918 87.68380872 C1.31845411 87.69634009 -2.17159085 87.70281589 -5.66194665 87.69139218 C-25.45467197 87.64457711 -44.83803396 88.76357198 -63.64879549 95.48213124 C-64.50626375 95.77950185 -65.36373201 96.07687245 -66.24718416 96.38325429 C-85.69255093 103.33901159 -103.64761142 114.19155847 -118.77379549 128.23213124 C-119.6361783 129.02877187 -119.6361783 129.02877187 -120.51598299 129.84150624 C-147.9649848 155.4925385 -167.37551235 193.3888666 -168.89977205 231.3712914 C-169.90806851 277.59338827 -157.19517172 318.31530407 -124.77379549 352.23213124 C-124.11637361 352.95271718 -123.45895174 353.67330312 -122.78160799 354.41572499 C-102.93470974 375.42347955 -74.75280094 389.10743126 -46.77379549 395.23213124 C-44.95517645 395.63102417 -44.95517645 395.63102417 -43.09981763 396.03797555 C-27.51219952 399.08700979 -11.7034785 398.67936638 4.10604072 398.6648711 C8.39957357 398.6642406 12.69304623 398.68092875 16.98654997 398.69538808 C24.4039862 398.71805622 31.82137584 398.73003868 39.23884451 398.73451734 C49.96291037 398.74100834 60.68689242 398.76399715 71.41092429 398.79086063 C88.81491537 398.83401607 106.21890288 398.86404682 123.62293303 398.8856957 C140.51748202 398.90673922 157.412002 398.93404362 174.30652678 398.96968007 C175.87169233 398.97297831 175.87169233 398.97297831 177.46847739 398.97634318 C182.70374457 398.98741367 187.93901147 398.99860632 193.17427826 399.00985968 C236.52489474 399.1028854 279.87552742 399.174557 323.22620451 399.23213124 C321.8257996 402.83296843 320.2641116 405.99204884 318.20667326 409.26728749 C317.60323088 410.23118398 316.9997885 411.19508046 316.37805998 412.18818593 C315.72982268 413.21331288 315.08158537 414.23843984 314.41370451 415.29463124 C313.74226408 416.36229726 313.07082366 417.42996327 312.37903655 418.52998281 C306.61516128 427.67118182 300.747039 436.74229599 294.82776701 445.78340077 C292.07669056 449.98969602 289.33960073 454.20507472 286.60120451 458.41963124 C286.12344573 459.1540746 285.64568694 459.88851796 285.15345061 460.64521718 C284.66956877 461.38932851 284.18568694 462.13343984 283.68714201 462.90009999 C283.16592143 463.64675546 282.64470084 464.39341092 282.10768569 465.16269231 C280.59917765 467.62366474 279.57646709 469.75565817 278.51348555 472.40206456 C276.23934897 477.4836989 273.74778124 481.85166474 269.22620451 485.23213124 C260.66281952 488.26903803 251.05183193 487.45602992 242.07831395 487.24922395 C238.32880789 487.1815945 234.57991291 487.21295552 230.83002532 487.23179555 C223.49174927 487.25338651 216.15693708 487.18524589 208.81938979 487.08743039 C200.25419915 486.97719491 191.68959497 486.96136436 183.12379673 486.95027825 C167.81961057 486.9277233 152.51695814 486.8271826 137.2135092 486.67939687 C122.41010869 486.53656965 107.60738466 486.43717362 92.80335295 486.39228749 C91.89327855 486.3895174 90.98320416 486.38674731 90.04555175 486.38389328 C86.38586506 486.37287541 82.72617796 486.36201331 79.0664901 486.35139407 C63.19500407 486.30437595 47.32365565 486.22404868 31.45234656 486.13667738 C28.89957852 486.12276441 26.34680794 486.10942432 23.79403651 486.09614968 C14.06610499 486.04447747 4.33852952 485.9752 -5.38909853 485.88244176 C-8.32397061 485.85492246 -11.25877098 485.83364045 -14.19373262 485.81853795 C-35.47897165 485.70353075 -56.34424448 484.61947696 -77.02379549 479.23213124 C-78.0202408 478.98463124 -79.01668611 478.73713124 -80.04332674 478.48213124 C-82.95908186 477.75224209 -85.86627004 476.99404898 -88.77379549 476.23213124 C-90.32937166 475.8434789 -90.32937166 475.8434789 -91.91637361 475.44697499 C-92.91604158 475.19045156 -93.91570955 474.93392812 -94.94567049 474.66963124 C-95.84898103 474.44146718 -96.75229158 474.21330312 -97.68297517 473.97822499 C-99.77379549 473.23213124 -99.77379549 473.23213124 -100.77379549 471.23213124 C-102.43592065 470.87684427 -104.10400326 470.54943677 -105.77379549 470.23213124 C-124.00672732 463.75629683 -142.16722391 454.69247933 -157.77379549 443.23213124 C-158.76121736 442.51541249 -159.74863924 441.79869374 -160.76598299 441.06025624 C-169.67074814 434.48930994 -178.52303842 427.79436263 -186.20348299 419.79853749 C-187.79347413 418.21250155 -189.45656959 416.8193312 -191.21129549 415.41963124 C-192.47973299 414.33681874 -192.47973299 414.33681874 -193.77379549 413.23213124 C-193.77379549 412.57213124 -193.77379549 411.91213124 -193.77379549 411.23213124 C-194.43379549 411.23213124 -195.09379549 411.23213124 -195.77379549 411.23213124 C-197.14879549 409.90400624 -197.14879549 409.90400624 -198.77379549 407.98213124 C-199.71158845 406.87418202 -199.71158845 406.87418202 -200.66832674 405.74384999 C-201.71053377 404.50054921 -201.71053377 404.50054921 -202.77379549 403.23213124 C-203.89334627 401.94242421 -203.89334627 401.94242421 -205.03551424 400.62666249 C-210.09454458 394.72038713 -214.76846277 388.63010665 -219.27379549 382.29463124 C-219.79030672 381.57283681 -220.30681795 380.85104238 -220.83898103 380.10737538 C-223.33063126 376.55516596 -225.22706665 373.30776171 -226.77379549 369.23213124 C-227.43379549 368.90213124 -228.09379549 368.57213124 -228.77379549 368.23213124 C-230.02303495 366.18986967 -231.16494221 364.16237942 -232.27379549 362.04463124 C-232.79501985 361.04919301 -232.79501985 361.04919301 -233.326774 360.03364491 C-234.49266713 357.77461451 -235.63728642 355.50608438 -236.77379549 353.23213124 C-237.37103426 352.03717031 -237.37103426 352.03717031 -237.98033845 350.81806874 C-266.69366146 292.5002014 -270.44220766 225.68459224 -249.77379549 164.23213124 C-249.54611482 163.54925038 -249.31843416 162.86636952 -249.08385408 162.16279531 C-238.95957082 132.31121029 -222.28541935 103.72051673 -200.40270174 80.97822499 C-198.28348964 78.76454579 -196.29468667 76.52258773 -194.33629549 74.16963124 C-161.79435031 36.86735356 -111.47088411 12.91281139 -63.58629549 3.91963124 C-62.41514192 3.69847646 -62.41514192 3.69847646 -61.22032869 3.4728539 C-40.9206747 -0.01082075 -20.52354307 -0.05323029 0 0 Z " fill="#FF141D" transform="translate(2348.7737954854965,838.7678687572479)"/>
<path d="M0 0 C31.02 0 62.04 0 94 0 C94 131.67 94 263.34 94 399 C237.55 399 381.1 399 529 399 C527.29314825 403.26712938 525.55569818 406.44482954 523.0625 410.25 C522.66554932 410.85932373 522.26859863 411.46864746 521.85961914 412.09643555 C521.00868995 413.40247066 520.15602023 414.70737314 519.30175781 416.01123047 C517.16835085 419.27055776 515.05349858 422.54185512 512.9375 425.8125 C512.48963135 426.50375977 512.0417627 427.19501953 511.58032227 427.90722656 C506.66604769 435.49918844 501.79889885 443.1212372 496.92822266 450.74121094 C492.48827637 457.68413579 488.03040592 464.61490805 483.53710938 471.5234375 C483.13943359 472.13574219 482.74175781 472.74804688 482.33203125 473.37890625 C481.95489451 473.92876277 481.57775778 474.47861928 481.18919265 475.04513812 C479.93556344 476.9517122 479.93556344 476.9517122 479.28029835 479.06885457 C478.18857377 481.74095621 477.23854768 483.14622929 475 485 C469.32540657 486.26433038 463.67156332 486.06229233 457.88253784 485.98895264 C456.08350919 485.99530413 454.28449005 486.0051577 452.48549759 486.01821828 C447.53507992 486.04391788 442.58596701 486.01956809 437.6356349 485.98716116 C432.29935946 485.9608841 426.96323178 485.9806405 421.62693787 485.99468994 C411.16883422 486.01487719 400.71123575 485.99226597 390.25319485 485.95528874 C378.07511637 485.91377689 365.8971475 485.91403295 353.71901156 485.91597906 C331.98607028 485.91798271 310.25336419 485.88130904 288.52050781 485.82324219 C267.43420118 485.76693195 246.34810162 485.73855726 225.26171875 485.74121094 C223.96393473 485.74137076 222.66615072 485.74153059 221.32903992 485.74169526 C220.03349891 485.74185667 218.7379579 485.74201809 217.40315807 485.7421844 C193.40250049 485.7449456 169.40193092 485.72136756 145.40130188 485.68557154 C136.9144726 485.67351363 128.4276595 485.66925412 119.9408226 485.66744232 C109.59206151 485.66471051 99.24344863 485.64680751 88.8947504 485.61011109 C83.61545665 485.59167064 78.33635213 485.57944532 73.057024 485.58448792 C68.22070775 485.58888325 63.38480925 485.57470312 58.54858007 485.54589382 C56.80226149 485.53866917 55.05589959 485.53809134 53.3095796 485.54496297 C43.89187452 485.57790717 35.66413728 485.16739842 27 481 C26.01644531 480.53078125 25.03289063 480.0615625 24.01953125 479.578125 C11.97554949 472.33041917 5.35219817 463.22005736 1 450 C0.06948472 445.42114404 -0.14060484 440.98294024 -0.12304783 436.32760048 C-0.12420167 435.5710395 -0.12535552 434.81447852 -0.12654433 434.03499144 C-0.12919318 431.49747739 -0.12470308 428.96002667 -0.12025452 426.42251587 C-0.12069057 424.58592602 -0.12156611 422.74933624 -0.12284368 420.91274679 C-0.1250819 415.86399618 -0.12107653 410.81526674 -0.11606562 405.76651883 C-0.11175168 400.32281065 -0.11320822 394.87910369 -0.1139679 389.43539429 C-0.11449253 380.00313661 -0.11135203 370.57088585 -0.10573006 361.13862991 C-0.09760689 347.5011296 -0.094999 333.86363264 -0.09374207 320.22613017 C-0.09155283 298.10078415 -0.08490481 275.97544165 -0.07543945 253.85009766 C-0.06625474 232.35595723 -0.05917126 210.86181778 -0.05493164 189.36767578 C-0.05480011 188.70510411 -0.05466859 188.04253245 -0.05453308 187.35988285 C-0.05308372 180.04581334 -0.05169188 172.73174383 -0.05032361 165.4176743 C-0.039955 110.27844626 -0.02151884 55.13922504 0 0 Z " fill="#FF141D" transform="translate(2714,839)"/>
</svg>
