<?xml version="1.0" encoding="UTF-8"?>
<!-- Generated by Pixelmator Pro 3.5.6 -->
<svg width="400" height="400" viewBox="0 0 400 400" xmlns="http://www.w3.org/2000/svg">
    <g id="PBI-Logo">
        <g id="Group">
            <linearGradient id="linearGradient1" x1="281.269841" y1="0" x2="281.269841" y2="400" gradientUnits="userSpaceOnUse">
                <stop offset="1e-05" stop-color="#ebbb14" stop-opacity="1"/>
                <stop offset="1" stop-color="#b25400" stop-opacity="1"/>
            </linearGradient>
            <path id="Rectangle" fill="url(#linearGradient1)" fill-rule="evenodd" stroke="none" d="M 228.253967 0 L 334.285706 0 C 343.402771 0 350.79364 7.390869 350.79364 16.507935 L 350.79364 383.492065 C 350.79364 392.609131 343.402771 400 334.285706 400 L 228.253967 400 C 219.136887 400 211.746033 392.609131 211.746033 383.492065 L 211.746033 16.507935 C 211.746033 7.390869 219.136887 0 228.253967 0 Z"/>
            <g id="Combined-Shape">
                <g id="g1">
                    <path id="Path" fill="#000000" fill-rule="evenodd" stroke="none" d="M 268.888885 383.492065 L 268.888885 400 L 252.380951 400 L 146.349213 400 C 137.232117 400 129.841263 392.609131 129.841263 383.492065 L 129.841263 116.190491 C 129.841263 107.073395 137.232117 99.682526 146.349213 99.682526 L 252.380951 99.682526 C 261.498047 99.682526 268.888885 107.073395 268.888885 116.190491 L 268.888885 383.492065 Z"/>
                </g>
                <g id="g2">
                    <linearGradient id="linearGradient2" x1="199.365079" y1="99.68254" x2="199.365079" y2="400" gradientUnits="userSpaceOnUse">
                        <stop offset="1e-05" stop-color="#f9e583" stop-opacity="1"/>
                        <stop offset="1" stop-color="#de9800" stop-opacity="1"/>
                    </linearGradient>
                    <path id="path1" fill="url(#linearGradient2)" fill-rule="evenodd" stroke="none" d="M 268.888885 383.492065 L 268.888885 400 L 252.380951 400 L 146.349213 400 C 137.232117 400 129.841263 392.609131 129.841263 383.492065 L 129.841263 116.190491 C 129.841263 107.073395 137.232117 99.682526 146.349213 99.682526 L 252.380951 99.682526 C 261.498047 99.682526 268.888885 107.073395 268.888885 116.190491 L 268.888885 383.492065 Z"/>
                </g>
            </g>
            <linearGradient id="linearGradient3" x1="118.730159" y1="200" x2="118.730159" y2="400" gradientUnits="userSpaceOnUse">
                <stop offset="1e-05" stop-color="#f9e68b" stop-opacity="1"/>
                <stop offset="1" stop-color="#f3cd32" stop-opacity="1"/>
            </linearGradient>
            <path id="path2" fill="url(#linearGradient3)" fill-rule="evenodd" stroke="none" d="M 188.253967 383.492065 L 188.253967 400 L 171.746033 400 L 65.714287 400 C 56.597202 400 49.206348 392.609131 49.206348 383.492065 L 49.206348 216.507935 C 49.206348 207.390854 56.597202 200 65.714287 200 L 171.746033 200 C 180.863113 200 188.253967 207.390854 188.253967 216.507935 L 188.253967 383.492065 Z"/>
        </g>
    </g>
</svg>
