<?xml version="1.0" encoding="UTF-8"?>
<!-- Generated by Pixelmator Pro 3.5.6 -->
<svg width="400" height="400" viewBox="0 0 400 400" xmlns="http://www.w3.org/2000/svg">
    <path id="Path" fill="#205b98" stroke="none" d="M 199.599503 304.450012 L 350.2995 340.899994 L 350.2995 58.049988 L 199.599503 94.5 L 199.599503 304.450012 Z"/>
    <path id="path1" fill="#5294cf" stroke="none" d="M 350.200012 58.049988 L 379.199982 72.550018 L 379.199982 326.5 L 350.200012 341 L 350.200012 58.049988 Z"/>
    <path id="path2" fill="#5294cf" stroke="none" d="M 199.599991 304.450012 L 48.950199 340.899994 L 48.950199 58.049988 L 199.599991 94.5 L 199.599991 304.450012 Z"/>
    <path id="path3" fill="#205b98" stroke="none" d="M 48.949951 58.049988 L 20 72.550018 L 20 326.5 L 48.949951 341 L 48.949951 58.049988 Z"/>
    <path id="path4" fill="#5294cf" stroke="none" d="M 238.150009 397.800018 L 295.400024 369.25 L 295.400024 30.600006 L 238.150009 2 L 220.200012 190.25 L 238.150009 397.800018 Z"/>
    <path id="path5" fill="#205b98" stroke="none" d="M 161.049011 397.800018 L 103.799004 369.25 L 103.799004 30.600006 L 161.049011 2 L 178.999008 189.600006 L 161.049011 397.800018 Z"/>
    <path id="path6" fill="#2d72b8" stroke="none" d="M 238.199997 2 L 161.049988 2 L 161.049988 397.800018 L 238.199997 397.800018 L 238.199997 2 Z"/>
</svg>
