<?xml version="1.0" encoding="UTF-8"?>
<svg version="1.1" xmlns="http://www.w3.org/2000/svg" width="2560" height="1792">
<path d="M0 0 C0.72993164 0.09945923 1.45986328 0.19891846 2.21191406 0.3013916 C80.27365101 11.07181947 155.27255686 38.72517952 220 84 C221.11012451 84.7744043 221.11012451 84.7744043 222.24267578 85.56445312 C232.5987112 92.82580959 242.53924379 100.49519285 252.26904297 108.57324219 C253.79202839 109.82857742 255.33405915 111.06073088 256.87890625 112.2890625 C269.3244218 122.19354134 280.57566849 133.48231236 291.85073853 144.67550659 C292.89151214 145.70823345 293.93376108 146.73947605 294.97763062 147.76907349 C301.02075657 153.73815859 306.71282868 159.84658933 311.9921875 166.51855469 C314.08860856 169.10951087 316.2960064 171.55723492 318.5625 174 C323.15226306 179.02611378 327.10885717 184.4230487 331 190 C335.90012221 185.89887861 340.46831546 181.62511697 344.9375 177.0625 C349.7980132 172.15740078 354.7050089 167.43742192 360 163 C361.32064453 161.84564453 361.32064453 161.84564453 362.66796875 160.66796875 C372.36562779 152.23412142 382.64435996 144.60101914 393 137 C393.71140137 136.4726123 394.42280273 135.94522461 395.15576172 135.40185547 C407.86731291 126.00210259 421.3310325 117.92349489 435 110 C435.88623047 109.48518066 436.77246094 108.97036133 437.68554688 108.43994141 C520.32484057 60.78931686 619.18353056 44.15089672 770.453125 66.859375 C793.4874644 73.2310997 816.24041816 81.10894307 838 91 C839.01030273 91.45842285 840.02060547 91.9168457 841.06152344 92.38916016 C881.089813 110.72770212 918.86755726 134.90694376 951.41796875 164.6640625 C952.79379545 165.90875897 954.17504259 167.14830931 955.59057617 168.34765625 C962.07024794 173.86651647 968.05789648 179.87180231 974.07202148 185.88671875 C975.92477468 187.73728967 977.78538706 189.57970076 979.64648438 191.421875 C986.56688226 198.30998559 992.94483 205.33114051 999 213 C999.92275772 214.09035357 1000.85240478 215.17496878 1001.79296875 216.25 C1017.86869423 234.71217086 1031.92839004 255.24933368 1044.24926758 276.38378906 C1046.0117296 279.40615489 1047.8759142 282.22275129 1050 285 C1050.58861816 284.73485596 1051.17723633 284.46971191 1051.78369141 284.1965332 C1100.22507849 262.58259238 1151.42309713 249.12528023 1203.97735596 242.26428223 C1205.90461459 242.01246322 1207.83099682 241.75396352 1209.75732422 241.49511719 C1251.03987216 236.19840563 1295.76843582 236.48200114 1337 242 C1338.34679954 242.17367287 1339.69364317 242.34700423 1341.04052734 242.52001953 C1413.20330286 251.91826662 1483.19463736 275.11039649 1546 312 C1546.89122559 312.52126465 1547.78245117 313.0425293 1548.70068359 313.57958984 C1559.7075771 320.03553676 1570.51056553 326.73105763 1581 334 C1581.56847656 334.39364746 1582.13695313 334.78729492 1582.72265625 335.19287109 C1596.30917424 344.65159447 1609.49470295 354.66822585 1622.0390625 365.47265625 C1624.73326751 367.77232728 1627.47667481 369.98466362 1630.25 372.1875 C1642.24271986 381.98558669 1653.16589397 393.08124839 1664.125 404 C1665.43960205 405.30759277 1665.43960205 405.30759277 1666.78076172 406.64160156 C1671.19061065 411.062473 1675.45617418 415.54702609 1679.52490234 420.28417969 C1681.38275716 422.44521968 1683.31649762 424.53164112 1685.25 426.625 C1689.7992233 431.66686339 1693.9690272 436.95182698 1698.125 442.31640625 C1700.01042835 444.74704191 1701.92479527 447.14838467 1703.875 449.52734375 C1724.43840289 474.65389641 1741.56004633 502.49333247 1757 531 C1757.4734082 531.87156738 1757.94681641 532.74313477 1758.43457031 533.64111328 C1790.09295558 592.22479849 1809.82942208 657.3327528 1818.25 723.3125 C1818.40122314 724.4890918 1818.55244629 725.66568359 1818.70825195 726.87792969 C1821.35701883 748.99535745 1822.38295443 771.11024279 1822.3125 793.375 C1822.31067719 794.58512756 1822.30885437 795.79525513 1822.30697632 797.04205322 C1822.09466725 881.34465795 1802.94640799 964.45700212 1694 1151 C1693.5246582 1151.57443848 1693.04931641 1152.14887695 1692.55957031 1152.74072266 C1686.18388633 1160.43928299 1679.56186136 1167.86985786 1672.72314453 1175.15917969 C1670.79686399 1177.21700843 1668.88097833 1179.28428474 1666.96484375 1181.3515625 C1665.56024263 1182.85969806 1664.1552978 1184.36751359 1662.75 1185.875 C1662.10071533 1186.57657227 1661.45143066 1187.27814453 1660.7824707 1188.00097656 C1656.95947961 1192.08362237 1652.99318488 1195.84756553 1648.74560547 1199.48583984 C1646.78365403 1201.18766122 1644.97476532 1202.99146511 1643.1875 1204.875 C1639.30139077 1208.82194851 1635.09834043 1212.25558955 1630.78125 1215.71875 C1628.14479995 1217.88123151 1625.63131294 1220.12648417 1623.125 1222.4375 C1617.36362934 1227.66691312 1611.22378616 1232.34441193 1605 1237 C1604.3076123 1237.52223145 1603.61522461 1238.04446289 1602.90185547 1238.58251953 C1584.34033115 1252.5680132 1565.10506003 1265.34216278 1545 1277 C1543.94159912 1277.61705811 1543.94159912 1277.61705811 1542.86181641 1278.24658203 C1537.63371909 1281.27741694 1532.33915817 1284.16981209 1527 1287 C1525.97277832 1287.54495117 1524.94555664 1288.08990234 1523.88720703 1288.65136719 C1458.37540376 1323.08548286 1385.31046679 1343.88173214 1311.43066406 1348.83691406 C1309.17887428 1348.98799839 1306.92967874 1349.16046518 1304.6796875 1349.3359375 C1257.44522807 1352.70326422 1209.48573742 1348.48668291 1163 1340 C1162.63874023 1340.6077124 1162.27748047 1341.2154248 1161.90527344 1341.84155273 C1154.09395934 1354.93895036 1146.08973892 1367.74931323 1137 1380 C1136.5673584 1380.58426758 1136.1347168 1381.16853516 1135.68896484 1381.77050781 C1126.77768387 1393.73209664 1117.05729719 1404.99454011 1107 1416 C1106.0805861 1417.01289099 1105.16132221 1418.02591816 1104.2421875 1419.0390625 C1097.53111511 1426.42021124 1090.77315064 1433.5678506 1083.19921875 1440.07421875 C1081.65688828 1441.42478521 1080.140525 1442.8053124 1078.64453125 1444.20703125 C1071.20167881 1451.17696417 1063.27088699 1457.33165912 1055.10498047 1463.42578125 C1053.17764287 1464.86714901 1051.2615165 1466.32206954 1049.34765625 1467.78125 C1017.75006464 1491.66411631 982.14487 1509.55488791 945 1523 C944.09572266 1523.32983887 943.19144531 1523.65967773 942.25976562 1523.99951172 C918.24345876 1532.66803908 893.2238417 1538.23603875 868 1542 C866.36973877 1542.2477417 866.36973877 1542.2477417 864.70654297 1542.50048828 C829.08909324 1547.63879559 790.56599827 1547.40476623 755 1542 C753.84999512 1541.82839355 752.69999023 1541.65678711 751.51513672 1541.47998047 C713.94560782 1535.69806562 677.77945968 1524.95086748 643.30712891 1509.01904297 C640.59222993 1507.81989076 637.84424214 1506.84610228 635 1506 C634.83419434 1506.53802246 634.66838867 1507.07604492 634.49755859 1507.63037109 C632.61767113 1513.51848793 630.2978227 1519.0559049 627.625 1524.625 C627.19219727 1525.52742432 626.75939453 1526.42984863 626.31347656 1527.35961914 C607.88275131 1565.18032582 583.59875522 1600.42223099 555.265625 1631.48828125 C554.02018146 1632.86900573 552.78120567 1634.25604627 551.57324219 1635.66967773 C546.71427453 1641.33871508 541.52711122 1646.65905246 536.24951172 1651.93579102 C534.76106763 1653.42641615 533.28082723 1654.92487017 531.80078125 1656.42382812 C526.26703627 1661.98917615 520.5918537 1667.15706214 514.42651367 1672.03491211 C512.03466133 1673.97192987 509.79557364 1676.00825712 507.5625 1678.125 C499.57003032 1685.39434147 490.70963075 1691.62858181 482 1698 C481.25766113 1698.54624023 480.51532227 1699.09248047 479.75048828 1699.65527344 C468.59060643 1707.83833064 456.97740865 1715.07687042 445 1722 C444.28424805 1722.41378906 443.56849609 1722.82757812 442.83105469 1723.25390625 C438.88363367 1725.52456324 434.91373711 1727.75027441 430.92138672 1729.94091797 C429.03528673 1730.98054971 427.1604326 1732.03865929 425.28515625 1733.09765625 C374.26933725 1761.45707948 313.25834956 1780.33004304 254.78851414 1779.90734696 C250.85938485 1779.88519252 246.930321 1779.89952077 243.00115967 1779.90763855 C236.41965457 1779.91569006 229.83871471 1779.89563651 223.25732422 1779.85766602 C215.74570159 1779.81469362 208.23518261 1779.81833746 200.7235148 1779.8465336 C193.36524527 1779.87293516 186.00736991 1779.86456661 178.64910126 1779.84183311 C175.57648988 1779.83294474 172.50424273 1779.83538579 169.43164825 1779.84833717 C84.26833087 1780.14201259 -2.92019049 1739.43992634 -79.07421875 1679.5234375 C-81.93833734 1677.05318301 -84.86165224 1674.67802228 -87.8125 1672.3125 C-91.83296361 1669.04368828 -95.51086499 1665.60254498 -99.1171875 1661.88671875 C-100.94730865 1660.05280067 -102.84117186 1658.36751852 -104.8125 1656.6875 C-112.133185 1650.3755708 -118.93932305 1643.42482046 -125.20703125 1636.0703125 C-127.33146824 1633.6172589 -129.54188637 1631.25296853 -131.75 1628.875 C-136.9915491 1623.11957354 -141.78918983 1617.08250132 -146.52734375 1610.90966797 C-148.03708 1608.95191648 -149.5640426 1607.00858152 -151.09375 1605.06640625 C-163.23967125 1589.54754615 -174.26572749 1573.13928713 -184 1556 C-184.44520996 1555.21641113 -184.89041992 1554.43282227 -185.34912109 1553.62548828 C-197.85151554 1531.46618856 -208.49822727 1508.5918176 -218 1485 C-218.71615479 1485.13575439 -219.43230957 1485.27150879 -220.17016602 1485.41137695 C-266.72398762 1494.12063833 -314.96553354 1496.81989695 -362 1490 C-363.76512939 1489.75056641 -363.76512939 1489.75056641 -365.56591797 1489.49609375 C-437.90762491 1478.95094009 -507.81084981 1449.70451231 -565 1404 C-565.62471191 1403.50532227 -566.24942383 1403.01064453 -566.89306641 1402.50097656 C-575.75862937 1395.4716817 -584.25995446 1388.18260522 -592.48388672 1380.41455078 C-594.88827123 1378.17123293 -597.35899319 1376.0018338 -599.8125 1373.8125 C-618.43914031 1356.90442614 -634.19956198 1337.24538828 -649 1317 C-649.54188965 1316.26346191 -650.0837793 1315.52692383 -650.64208984 1314.76806641 C-692.86251806 1257.18994088 -727.85753064 1178.31671543 -728.19287109 1105.77734375 C-728.20104858 1104.78394485 -728.20922607 1103.79054596 -728.21765137 1102.76704407 C-728.24237711 1099.49053513 -728.25900655 1096.21406981 -728.2734375 1092.9375 C-728.27876118 1091.80429321 -728.28408485 1090.67108643 -728.28956985 1089.50354004 C-728.31627155 1083.48202189 -728.33563883 1077.46052405 -728.35009766 1071.43896484 C-728.3633122 1066.52242917 -728.39093457 1061.60632088 -728.43212891 1056.68994141 C-728.65333195 1029.67575466 -728.7029075 1003.50364083 -723 977 C-722.51811925 974.65464498 -722.03634762 972.30926753 -721.5546875 969.96386719 C-714.74708065 937.14706937 -703.04037139 905.3592019 -689 875 C-688.40131104 873.70545898 -688.40131104 873.70545898 -687.79052734 872.38476562 C-677.90325033 851.27963432 -665.77570727 830.79949673 -652 812 C-651.50516113 811.32404785 -651.01032227 810.6480957 -650.50048828 809.95166016 C-631.24430412 783.77217521 -609.90507805 758.03589628 -585 737 C-584.01 736.13246094 -583.02 735.26492188 -582 734.37109375 C-562.52168557 717.33785097 -541.46285814 701.86509148 -519 689 C-519.28609131 688.26289795 -519.57218262 687.5257959 -519.86694336 686.76635742 C-542.42662796 628.45527008 -557.64231893 568.82669138 -559 506 C-559.02191406 505.01628418 -559.04382813 504.03256836 -559.06640625 503.01904297 C-560.55228768 423.1900631 -543.18198464 345.03761 -439 169 C-438.07960938 167.92685547 -438.07960938 167.92685547 -437.140625 166.83203125 C-435.443775 164.87257351 -433.72598076 162.93384081 -432 161 C-431.30777344 160.21496094 -430.61554688 159.42992187 -429.90234375 158.62109375 C-423.43588822 151.41678592 -416.64790394 144.54006015 -409.8125 137.6875 C-409.33932343 137.21173523 -408.86614685 136.73597046 -408.37863159 136.24578857 C-402.76189689 130.60486425 -397.06111556 125.15963874 -391 120 C-389.9167546 119.05086309 -388.83467327 118.10039555 -387.75390625 117.1484375 C-378.81038755 109.34720704 -369.51792969 102.08507668 -360 95 C-359.28859863 94.46761719 -358.57719727 93.93523437 -357.84423828 93.38671875 C-339.15418235 79.44865935 -319.40731994 67.25048855 -299 56 C-298.19369141 55.55092285 -297.38738281 55.1018457 -296.55664062 54.63916016 C-243.78172709 25.40390591 -183.79388191 7.17319415 -124 0 C-122.86449707 -0.14808105 -121.72899414 -0.29616211 -120.55908203 -0.44873047 C-81.09649109 -5.48385572 -39.42246222 -5.39512004 0 0 Z " fill="#00A1E0" transform="translate(728,8)"/>
<path d="M0 0 C24.05197231 21.48371086 34.8150357 51.45425644 37.3046875 83.05859375 C39.23345608 117.28800616 33.4688031 153.76631023 11.3046875 181.05859375 C10.66789062 181.8475 10.03109375 182.63640625 9.375 183.44921875 C-6.46012805 202.14611693 -30.71594948 213.00612007 -54.8203125 215.74609375 C-84.40148581 217.81290062 -114.3532238 213.94749733 -137.57421875 193.9375 C-138.27417969 193.31746094 -138.97414063 192.69742188 -139.6953125 192.05859375 C-140.69884766 191.26775391 -140.69884766 191.26775391 -141.72265625 190.4609375 C-161.40338581 174.59943863 -170.52269574 148.15291125 -174.6953125 124.05859375 C-174.86305176 123.11927002 -175.03079102 122.17994629 -175.20361328 121.2121582 C-181.06920602 86.35145711 -175.57680487 45.99417396 -154.8203125 16.62109375 C-138.68884976 -5.26260204 -115.74769855 -18.17929724 -89.12890625 -22.5234375 C-56.93297467 -26.23131941 -25.33267908 -21.30436782 0 0 Z " fill="#FDFEFD" transform="translate(1671.6953125,746.94140625)"/>
<path d="M0 0 C26.16699875 -1.11676073 53.01753036 3.1407423 73.76318359 20.16210938 C84.21831964 29.86817317 90.33224191 41.42380477 93.76318359 55.16210938 C94.00550374 56.03624827 94.24782389 56.91038717 94.49748707 57.81101513 C96.77187102 66.58651105 97.17423131 74.95958695 97.10375977 83.95825195 C97.10291134 85.49709557 97.10339283 87.0359404 97.10508728 88.57478333 C97.10594027 92.71035451 97.08842887 96.84565918 97.06736541 100.98116899 C97.04848104 105.31862389 97.04683897 109.65608638 97.04328918 113.99357605 C97.034003 122.18845621 97.00943613 130.38321484 96.97924072 138.57804173 C96.94558938 147.91551232 96.92918383 157.25298902 96.91415441 166.59050524 C96.88288312 185.78110859 96.83019004 204.97159918 96.76318359 224.16210938 C93.16961658 225.99591973 89.93934935 227.55532725 85.98974609 228.40820312 C85.09416992 228.60373779 84.19859375 228.79927246 83.27587891 229.00073242 C81.84646973 229.29717651 81.84646973 229.29717651 80.38818359 229.59960938 C79.38883789 229.81206299 78.38949219 230.0245166 77.35986328 230.2434082 C67.12717096 232.37455519 56.82893096 234.07174303 46.50732422 235.70654297 C43.74440545 236.16522681 40.99802801 236.68511628 38.24755859 237.21289062 C26.65441623 239.31303099 15.0710169 239.40239316 3.32568359 239.41210938 C2.48069305 239.41311646 1.63570251 239.41412354 0.7651062 239.41516113 C-11.80409496 239.40502937 -23.93085904 238.92989567 -36.23681641 236.16210938 C-36.90036133 236.02820801 -37.56390625 235.89430664 -38.24755859 235.75634766 C-56.38893725 232.06816693 -72.95015978 222.42460838 -83.51806641 207.00585938 C-86.2002161 202.5681208 -88.3057432 197.96733806 -90.23681641 193.16210938 C-90.58744141 192.34355469 -90.93806641 191.525 -91.29931641 190.68164062 C-97.63571399 173.65257213 -95.97595931 151.00616591 -88.69384766 134.70898438 C-78.15374382 113.96644594 -60.79908214 100.79890095 -39.09619141 93.37695312 C-24.19462991 88.55957395 -9.63480299 87.93184858 5.88818359 87.91210938 C7.1422702 87.90860474 7.1422702 87.90860474 8.42169189 87.9050293 C22.41304418 87.8902998 35.9426065 88.84488687 49.76318359 91.16210938 C49.51121835 87.51472023 49.2331323 83.86975451 48.95068359 80.22460938 C48.84530273 78.69223633 48.84530273 78.69223633 48.73779297 77.12890625 C48.01147248 68.03537368 46.45247566 58.86752022 39.76318359 52.16210938 C28.6009863 43.48271858 15.72139993 41.49990743 1.95068359 41.78710938 C0.61287922 41.80489525 -0.72493017 41.82230706 -2.06274414 41.83935547 C-23.32190975 42.22885632 -43.29368246 45.90848765 -62.20556641 55.93945312 C-65.65156209 57.32939726 -66.80702481 57.49167876 -70.23681641 56.16210938 C-71.81420898 53.48168945 -71.81420898 53.48168945 -73.13134766 49.93164062 C-73.36842941 49.30360031 -73.60551117 48.67556 -73.84977722 48.02848816 C-74.34734988 46.69791393 -74.83510852 45.36363443 -75.3137207 44.02612305 C-76.04334274 41.99126943 -76.80403672 39.9703289 -77.57080078 37.94921875 C-81.7669552 26.62204352 -81.7669552 26.62204352 -81.23681641 21.16210938 C-71.83114641 11.79413745 -55.66540593 8.39103745 -43.23681641 5.16210938 C-42.21974609 4.88367188 -41.20267578 4.60523438 -40.15478516 4.31835938 C-27.03080264 1.08186554 -13.44717513 0.67347445 0 0 Z " fill="#FDFEFD" transform="translate(667.23681640625,722.837890625)"/>
<path d="M0 0 C8.98860799 7.94707811 17.38466155 16.30194328 23 27 C23.58910156 28.04027344 24.17820312 29.08054687 24.78515625 30.15234375 C28.26916159 36.60995875 30.82427686 42.95542891 32.8125 50 C33.00730957 50.68650635 33.20211914 51.3730127 33.40283203 52.08032227 C36.41700394 63.54081465 37.31678545 75.04322189 37.20581055 86.86132812 C37.18732126 88.89465707 37.18530353 90.92753232 37.18554688 92.9609375 C37.10611947 110.89388053 37.10611947 110.89388053 34 114 C31.39568138 114.24609566 31.39568138 114.24609566 28.02694702 114.24050903 C26.75366043 114.24325836 25.48037384 114.24600769 24.16850281 114.24884033 C22.7495413 114.24176156 21.33058074 114.23449193 19.91162109 114.22705078 C18.42366036 114.22648689 16.93569906 114.22680279 15.44773865 114.22793579 C11.40041707 114.22851117 7.3532133 114.21672695 3.30591917 114.20278788 C-0.92083424 114.19031135 -5.14759015 114.18911245 -9.37435913 114.18673706 C-17.38186887 114.18051322 -25.38932419 114.16409021 -33.39680994 114.14403808 C-42.51154829 114.12170717 -51.62628921 114.11069273 -60.7410481 114.10064721 C-79.49406295 114.07972473 -98.2470271 114.04453124 -117 114 C-116.55737337 117.16541844 -116.10200856 120.32888401 -115.64453125 123.4921875 C-115.52082153 124.37801514 -115.39711182 125.26384277 -115.26965332 126.17651367 C-113.52143051 138.15252818 -109.93649127 148.97628164 -103 159 C-102.13375 160.3303125 -102.13375 160.3303125 -101.25 161.6875 C-89.15238031 174.12116468 -71.82044064 179.86139185 -54.80859375 180.3984375 C-52.35158459 180.41146023 -49.89438269 180.4031255 -47.4375 180.375 C-46.13047119 180.36412354 -44.82344238 180.35324707 -43.47680664 180.34204102 C-27.06555225 180.0750521 -12.35382408 178.03779901 3.07641602 172.33764648 C7.55949729 170.69071931 11.13573659 169.58080332 16 170 C19.27697194 176.23657949 21.84944866 182.56820194 24.25 189.1875 C24.61351563 190.15880859 24.97703125 191.13011719 25.3515625 192.13085938 C25.86589844 193.54141602 25.86589844 193.54141602 26.390625 194.98046875 C26.70032227 195.82504639 27.01001953 196.66962402 27.32910156 197.53979492 C28.05736011 200.21034129 28.33891013 202.2487965 28 205 C15.36435588 215.26646084 -2.42465934 217.65486193 -18 220 C-19.05501709 220.17724609 -20.11003418 220.35449219 -21.19702148 220.53710938 C-25.74777904 221.09101811 -30.20175443 221.16217278 -34.78125 221.16796875 C-36.17796936 221.17296135 -36.17796936 221.17296135 -37.60290527 221.17805481 C-39.56957509 221.18309992 -41.53625341 221.18546388 -43.50292969 221.18530273 C-46.46304054 221.1874729 -49.42276824 221.20560942 -52.3828125 221.22460938 C-66.48221862 221.26804645 -80.16062145 220.66191055 -93.75 216.5 C-94.57999512 216.24718262 -95.40999023 215.99436523 -96.26513672 215.73388672 C-109.6369582 211.41461419 -122.70925205 204.6509087 -133 195 C-134.38251953 193.71802734 -134.38251953 193.71802734 -135.79296875 192.41015625 C-155.94086114 173.26439305 -162.61064021 149.65866464 -167 123 C-167.19722656 121.88625 -167.39445312 120.7725 -167.59765625 119.625 C-171.29896658 86.27727201 -165.29820692 49.35040319 -145 22 C-142.15212701 18.50312194 -139.13895596 15.2354519 -136 12 C-135.40058594 11.32710937 -134.80117187 10.65421875 -134.18359375 9.9609375 C-102.66114487 -24.21675005 -36.35708927 -28.51991059 0 0 Z " fill="#FDFEFD" transform="translate(2254,741)"/>
<path d="M0 0 C0.96421875 0.86496094 1.9284375 1.72992187 2.921875 2.62109375 C3.88609375 3.47574219 4.8503125 4.33039062 5.84375 5.2109375 C12.94830037 11.89353253 18.16945336 19.17793619 22.921875 27.62109375 C23.48777344 28.62527344 24.05367187 29.62945313 24.63671875 30.6640625 C29.58051407 40.38811793 31.80734699 50.97706809 33.921875 61.62109375 C34.19451172 62.97666382 34.19451172 62.97666382 34.47265625 64.35961914 C35.03400109 68.43516572 35.08415138 72.41833077 35.08984375 76.52734375 C35.09317215 77.37026978 35.09650055 78.2131958 35.09992981 79.08166504 C35.10497271 80.85668393 35.10733895 82.63171223 35.10717773 84.40673828 C35.10936801 87.11246382 35.127562 89.81778374 35.14648438 92.5234375 C35.14941815 94.25390487 35.15140305 95.98437415 35.15234375 97.71484375 C35.15952927 98.5181311 35.16671478 99.32141846 35.17411804 100.14904785 C35.17104141 100.91003784 35.16796478 101.67102783 35.16479492 102.45507812 C35.16621994 103.11648804 35.16764496 103.77789795 35.16911316 104.45935059 C34.921875 106.62109375 34.921875 106.62109375 32.921875 112.62109375 C-16.908125 112.62109375 -66.738125 112.62109375 -118.078125 112.62109375 C-115.58407255 132.57351331 -112.86187572 152.79586055 -96.2734375 166.1484375 C-73.43993019 181.46557675 -43.43970045 181.29295805 -17.1796875 176.75390625 C-10.57988498 175.41746555 -4.23046416 173.2703298 2.08544922 170.95874023 C2.90803223 170.65782471 3.73061523 170.35690918 4.578125 170.046875 C5.65803711 169.63562378 5.65803711 169.63562378 6.75976562 169.21606445 C9.28173176 168.52206813 11.31835587 168.36484187 13.921875 168.62109375 C18.32165772 173.53306492 20.06370438 179.90976278 22.171875 186.05859375 C22.53539062 187.06986328 22.89890625 188.08113281 23.2734375 189.12304688 C25.13749074 194.49446344 26.40216596 198.92964591 25.921875 204.62109375 C-8.97467187 224.18736569 -56.89193429 225.09007884 -94.890625 215.16015625 C-120.05017576 208.04536526 -141.20202438 192.09901239 -154.17211914 169.37011719 C-172.69244444 135.706367 -173.88877766 92.4177457 -163.73046875 55.92553711 C-157.29374126 34.33129391 -145.30798512 13.88659846 -126.640625 0.68359375 C-126.04862305 0.26392334 -125.45662109 -0.15574707 -124.84667969 -0.58813477 C-115.13473292 -7.27743421 -104.54693099 -12.54566484 -93.078125 -15.37890625 C-91.44617188 -15.87390625 -91.44617188 -15.87390625 -89.78125 -16.37890625 C-60.41832333 -24.30813539 -23.62271881 -20.16972832 0 0 Z " fill="#FDFEFD" transform="translate(1071.078125,742.37890625)"/>
<path d="M0 0 C2.04480859 -0.00218566 4.0890754 -0.02040139 6.13378906 -0.03930664 C15.90724836 -0.08162976 25.02795707 0.83226572 34.36816406 3.81030273 C35.19703125 4.07069336 36.02589844 4.33108398 36.87988281 4.59936523 C37.77126953 4.8894043 37.77126953 4.8894043 38.68066406 5.18530273 C40.11557331 9.81796282 39.11559376 12.65900582 37.44238281 17.13061523 C37.08114067 18.10815262 37.08114067 18.10815262 36.71260071 19.10543823 C36.2029872 20.47750226 35.68741212 21.84736502 35.16625977 23.21508789 C34.36978513 25.306047 33.59109922 27.40295411 32.81542969 29.50170898 C29.01437726 39.68473293 29.01437726 39.68473293 26.68066406 43.18530273 C22.47825459 43.63236757 18.92097147 43.05596899 14.80566406 42.18530273 C2.06243526 39.7630361 -10.37456024 39.87614555 -21.74121094 46.62280273 C-32.52842833 54.15213568 -36.30618422 64.86517305 -39.31933594 77.18530273 C-39.85701927 79.08226964 -40.3983871 80.97819811 -40.94433594 82.87280273 C-41.94769549 86.56692361 -42.73862163 90.24818722 -43.40527344 94.01733398 C-43.57849121 94.99033447 -43.75170898 95.96333496 -43.93017578 96.96582031 C-44.12281006 98.06446411 -44.12281006 98.06446411 -44.31933594 99.18530273 C-43.69737335 99.18086151 -43.07541077 99.17642029 -42.43460083 99.17184448 C-35.97872203 99.12770034 -29.52288589 99.09747355 -23.06689453 99.07543945 C-20.65541849 99.0653632 -18.24395472 99.05170192 -15.83251953 99.03442383 C-12.37236508 99.01024683 -8.91237174 98.99883605 -5.45214844 98.98999023 C-4.36878204 98.97966766 -3.28541565 98.96934509 -2.16921997 98.95870972 C-1.16833344 98.95855865 -0.1674469 98.95840759 0.86376953 98.95825195 C1.74757294 98.95381073 2.63137634 98.94936951 3.54196167 98.9447937 C5.68066406 99.18530273 5.68066406 99.18530273 7.68066406 101.18530273 C7.72094727 103.3671875 7.72094727 103.3671875 7.41894531 106.06420898 C7.25386475 107.5455835 7.25386475 107.5455835 7.08544922 109.05688477 C6.43345502 114.09587972 5.70295221 119.11080016 4.86816406 124.12280273 C4.71541016 125.13665039 4.56265625 126.15049805 4.40527344 127.19506836 C4.24220703 128.17024414 4.07914063 129.14541992 3.91113281 130.15014648 C3.70073364 131.4590686 3.70073364 131.4590686 3.48608398 132.79443359 C2.45718061 135.84870784 1.15666397 137.13642026 -1.31933594 139.18530273 C-3.73651123 139.6663208 -3.73651123 139.6663208 -6.45507812 139.6394043 C-7.98621246 139.63895111 -7.98621246 139.63895111 -9.54827881 139.63848877 C-10.64319641 139.61784363 -11.73811401 139.59719849 -12.86621094 139.57592773 C-13.99254944 139.57026794 -15.11888794 139.56460815 -16.27935791 139.55877686 C-19.87644976 139.53638819 -23.4725452 139.48618487 -27.06933594 139.43530273 C-29.50812363 139.41524106 -31.94692695 139.39698972 -34.38574219 139.38061523 C-40.36394668 139.33651517 -46.34157012 139.26957737 -52.31933594 139.18530273 C-52.28904297 140.15508057 -52.25875 141.1248584 -52.22753906 142.12402344 C-52.23255331 146.57424074 -52.98034692 150.80024965 -53.78808594 155.16577148 C-54.02149185 156.46780518 -54.02149185 156.46780518 -54.25961304 157.79614258 C-54.77378941 160.65609665 -55.29658479 163.51440468 -55.81933594 166.37280273 C-56.185927 168.40371067 -56.55196561 170.43471841 -56.91748047 172.46582031 C-58.68728491 182.28180587 -60.48455375 192.09278191 -62.28027344 201.90405273 C-62.75817012 204.51659837 -63.23591202 207.12917213 -63.71340942 209.74179077 C-64.03580585 211.50552976 -64.35846084 213.2692215 -64.68136597 215.03286743 C-67.69717995 231.52234032 -70.55084367 248.03821644 -73.38183594 264.56030273 C-76.9837061 285.57411454 -80.6590607 306.56957446 -84.62597656 327.51782227 C-85.24456388 330.78980065 -85.85300796 334.0634967 -86.45996094 337.33764648 C-92.10527625 367.28070408 -102.07668806 402.23309625 -127.87402344 421.04858398 C-149.3574427 435.25928766 -176.52272655 438.61839285 -201.69433594 433.93530273 C-214.59229512 430.91234355 -214.59229512 430.91234355 -218.31933594 427.18530273 C-218.00533017 419.40176583 -215.12001948 412.53019763 -212.38183594 405.31030273 C-211.69831055 403.45791992 -211.69831055 403.45791992 -211.00097656 401.56811523 C-207.58826807 392.45423487 -207.58826807 392.45423487 -205.31933594 390.18530273 C-202.24176838 390.4650816 -199.64774655 391.052928 -196.78027344 392.20874023 C-192.05361263 393.54244814 -187.5843878 393.56858604 -182.69433594 393.56030273 C-181.22589233 393.55788574 -181.22589233 393.55788574 -179.7277832 393.55541992 C-170.96092634 393.40708793 -164.08809312 391.98435586 -156.44433594 387.49780273 C-149.14360708 379.55289191 -144.6327684 369.84406819 -141.31933594 359.68530273 C-141.08472656 358.99694336 -140.85011719 358.30858398 -140.60839844 357.59936523 C-135.58153476 342.4106696 -132.88481982 326.812891 -130.20187378 311.08041382 C-129.11452064 304.70690968 -128.00743619 298.3368311 -126.90136719 291.96655273 C-126.68086197 290.69434372 -126.46035675 289.4221347 -126.23316956 288.1113739 C-124.33269242 277.18075246 -122.31767905 266.27413638 -120.25683594 255.37280273 C-117.03912723 238.32445564 -114.05203738 221.24110516 -111.11859131 204.14172363 C-108.20183567 187.14779901 -105.14808399 170.1891418 -101.90185547 153.25512695 C-101.01287406 148.57027688 -100.16248075 143.8785916 -99.31933594 139.18530273 C-100.89400635 139.20101318 -100.89400635 139.20101318 -102.50048828 139.21704102 C-106.38798627 139.25318726 -110.27546935 139.27618351 -114.16308594 139.29516602 C-115.8470306 139.3052359 -117.53095773 139.31889261 -119.21484375 139.33618164 C-121.63253094 139.36038699 -124.04998737 139.3717757 -126.46777344 139.38061523 C-127.22303314 139.39093781 -127.97829285 139.40126038 -128.75643921 139.41189575 C-130.61227574 139.41229592 -132.46752874 139.3075299 -134.31933594 139.18530273 C-136.31933594 137.18530273 -136.31933594 137.18530273 -136.58886719 134.41577148 C-136.40892908 128.37454511 -135.1074152 122.42327102 -134.00683594 116.49780273 C-133.79349609 115.27512695 -133.58015625 114.05245117 -133.36035156 112.79272461 C-133.14443359 111.6190332 -132.92851563 110.4453418 -132.70605469 109.23608398 C-132.51229248 108.17043213 -132.31853027 107.10478027 -132.11889648 106.00683594 C-131.24029899 102.90639281 -130.77931423 101.29033238 -128.31933594 99.18530273 C-125.464037 98.82960948 -123.00016213 98.71849134 -120.15136719 98.79467773 C-119.35655441 98.80033752 -118.56174164 98.80599731 -117.74284363 98.81182861 C-115.20522728 98.8342127 -112.66902514 98.88441011 -110.13183594 98.93530273 C-108.41115321 98.95536523 -106.69044834 98.97361644 -104.96972656 98.98999023 C-100.75238512 99.03408379 -96.53610025 99.10312308 -92.31933594 99.18530273 C-92.17455811 97.97285889 -92.02978027 96.76041504 -91.88061523 95.51123047 C-88.187446 66.03352593 -78.17360589 36.19094511 -55.09667969 16.31420898 C-38.51249256 3.60199804 -20.55342288 -0.00245268 0 0 Z " fill="#FDFEFD" transform="translate(1484.3193359375,628.814697265625)"/>
<path d="M0 0 C0.99 0.99 0.99 0.99 2 2 C1.64766471 6.8335998 0.44218101 11.03439542 -1.25 15.5546875 C-1.6934375 16.74578125 -2.136875 17.936875 -2.59375 19.1640625 C-3.0578125 20.38867188 -3.521875 21.61328125 -4 22.875 C-4.46933355 24.13519949 -4.9380887 25.39561455 -5.40625 26.65625 C-8.85224303 35.85224303 -8.85224303 35.85224303 -10 37 C-15.51226585 36.58832445 -19.72101266 35.00961473 -24.625 32.6875 C-36.05487997 27.50003192 -47.67854182 24.35557289 -60 22 C-61.03640625 21.79246094 -62.0728125 21.58492187 -63.140625 21.37109375 C-78.20641552 18.66455098 -93.33588627 17.87849283 -106.4375 26.8125 C-111.22655661 30.79518568 -113.6721308 34.10382206 -114.375 40.3125 C-114.61444469 47.37611829 -114.59076643 52.49108029 -110 58 C-100.11506469 67.75787959 -84.80068417 71.98619506 -71.85177612 76.08511353 C-24.04226912 91.27593669 -24.04226912 91.27593669 -6 109 C-5.42378906 109.56332031 -4.84757812 110.12664062 -4.25390625 110.70703125 C5.2318047 120.83333567 8.35001173 133.35258814 8.25 146.8125 C8.25773437 147.84181641 8.26546875 148.87113281 8.2734375 149.93164062 C8.22725203 168.18644856 1.95408705 184.81330048 -10.625 198.1875 C-30.27573005 216.88977853 -54.26501426 220.22226804 -80.0625 220.375 C-80.8204184 220.3830365 -81.57833679 220.391073 -82.35922241 220.39935303 C-107.62001463 220.60208647 -131.65421317 214.1560067 -154 202.4375 C-154.69399902 202.07374268 -155.38799805 201.70998535 -156.10302734 201.33520508 C-160.67281315 198.87374475 -164.82924382 196.09005243 -169 193 C-168.47715149 185.60800381 -166.17234334 179.17458205 -163.625 172.25 C-163.22539063 171.12722656 -162.82578125 170.00445313 -162.4140625 168.84765625 C-159.12515907 159.79235306 -159.12515907 159.79235306 -156 156 C-150.65061742 156.49312946 -146.66351776 159.39921707 -142.1875 162.125 C-118.79615066 175.93405458 -89.91048241 186.0467537 -62.4375 179.8125 C-54.10851077 177.33569131 -46.67064807 173.61085931 -42 166 C-39.32512796 159.44610391 -39.34380096 152.97730621 -40 146 C-41.35376462 142.42600891 -41.35376462 142.42600891 -44 140 C-44.474375 139.50371094 -44.94875 139.00742187 -45.4375 138.49609375 C-53.64015707 130.62864141 -65.61679018 127.56612517 -76.125 124 C-77.418979 123.55633195 -78.71292399 123.11256472 -80.00683594 122.66870117 C-86.71011813 120.381377 -93.42814839 118.21773155 -100.25 116.3125 C-122.21787385 110.09947349 -143.6341327 99.98453835 -156 80 C-162.93156631 65.37836266 -164.84624986 46.61263448 -160 31 C-159.5978125 29.67162109 -159.5978125 29.67162109 -159.1875 28.31640625 C-153.74329271 11.96110017 -142.37732227 -1.83321013 -127.09423828 -10.02099609 C-87.77030656 -29.53389838 -36.67804774 -21.90866355 0 0 Z " fill="#FDFEFD" transform="translate(1304,743)"/>
<path d="M0 0 C0.99 0.99 0.99 0.99 2 2 C1.64766471 6.8335998 0.44218101 11.03439542 -1.25 15.5546875 C-1.6934375 16.74578125 -2.136875 17.936875 -2.59375 19.1640625 C-3.0578125 20.38867188 -3.521875 21.61328125 -4 22.875 C-4.46933355 24.13519949 -4.9380887 25.39561455 -5.40625 26.65625 C-8.85224303 35.85224303 -8.85224303 35.85224303 -10 37 C-15.27403818 36.59634087 -19.48119288 35.07742541 -24.1875 32.8125 C-44.79811889 23.42635218 -74.62143214 14.22699076 -97.125 21.625 C-105.17449082 25.18060331 -110.5313667 29.23087826 -114.15234375 37.41796875 C-115.99601483 43.03394378 -115.80234672 47.76891644 -113.4375 53.1875 C-104.27422657 69.12088954 -80.00958303 73.59363445 -63.89575195 78.79418945 C-44.82623213 84.97636257 -25.3129482 91.60432374 -10 105 C-9.33097656 105.57105469 -8.66195312 106.14210938 -7.97265625 106.73046875 C1.75971049 115.69617203 7.40548083 127.87644106 8.11035156 141.06469727 C8.62066557 161.04262566 6.10890381 179.75871129 -8 195 C-8.60457031 195.68320312 -9.20914063 196.36640625 -9.83203125 197.0703125 C-23.07438848 211.25662595 -43.87506442 219.03849601 -63.02575684 220.11373901 C-65.12428763 220.17940918 -67.22087248 220.21618729 -69.3203125 220.23828125 C-70.47963791 220.25297203 -70.47963791 220.25297203 -71.66238403 220.26795959 C-88.42698791 220.43669554 -104.70889612 220.48773805 -121 216 C-121.78665039 215.78569336 -122.57330078 215.57138672 -123.38378906 215.35058594 C-138.11364507 211.18793227 -157.93379867 204.06620133 -169 193 C-169.33349911 188.38511626 -168.52269145 184.9598162 -166.91796875 180.6484375 C-166.26151367 178.87726563 -166.26151367 178.87726563 -165.59179688 177.0703125 C-165.12837891 175.85085938 -164.66496094 174.63140625 -164.1875 173.375 C-163.73568359 172.1478125 -163.28386719 170.920625 -162.81835938 169.65625 C-159.09977307 159.73278173 -159.09977307 159.73278173 -156 156 C-150.65048952 156.49314125 -146.66371003 159.39937362 -142.1875 162.125 C-126.89619381 171.14444717 -112.42680656 176.47689109 -95 180 C-94.02804687 180.20367188 -93.05609375 180.40734375 -92.0546875 180.6171875 C-87.45419174 181.19372022 -82.88232648 181.2249604 -78.25 181.25 C-77.3115625 181.270625 -76.373125 181.29125 -75.40625 181.3125 C-64.84626134 181.37084248 -54.14521045 178.6188541 -46.17578125 171.33203125 C-40.23283579 164.81349785 -39.41162404 158.06365658 -39.56640625 149.4140625 C-40.35010949 143.24328205 -43.31200533 140.33986797 -47.83984375 136.3984375 C-54.11884784 131.69822331 -61.5179617 129.30600001 -68.84863281 126.75439453 C-70.9669924 126.01157439 -73.07383023 125.2423227 -75.1796875 124.46484375 C-82.34461325 121.84344785 -89.49255798 119.55186886 -96.875 117.625 C-119.14406985 111.71554217 -143.09231893 101.12737828 -155.36328125 80.734375 C-162.9567928 66.84653677 -164.53021248 48.62084991 -160.6875 33.25 C-160.460625 32.5075 -160.23375 31.765 -160 31 C-159.731875 30.113125 -159.46375 29.22625 -159.1875 28.3125 C-153.01959854 9.80879563 -140.22056558 -2.7762037 -123.1875 -11.75 C-86.02995217 -29.63462192 -34.28112749 -20.94957791 0 0 Z " fill="#FDFEFD" transform="translate(538,743)"/>
<path d="M0 0 C-0.47708708 7.80864978 -3.180532 14.60557527 -5.9375 21.875 C-6.62102539 23.72738281 -6.62102539 23.72738281 -7.31835938 25.6171875 C-10.73106787 34.73106787 -10.73106787 34.73106787 -13 37 C-14.85546875 36.86328125 -14.85546875 36.86328125 -17.1875 36.3125 C-18.07308594 36.11398437 -18.95867188 35.91546875 -19.87109375 35.7109375 C-20.90363281 35.47632813 -21.93617188 35.24171875 -23 35 C-25.58221344 34.47236506 -28.16504148 33.95117561 -30.75 33.4375 C-32.59851562 33.06431641 -32.59851562 33.06431641 -34.484375 32.68359375 C-55.06206092 28.68237704 -79.82389572 28.30806775 -98 40 C-114.20543148 52.15407361 -122.27999862 70.41219447 -125.31689453 90.04907227 C-128.34865664 114.01843296 -127.6433877 142.96792313 -112.5 163.125 C-111.35670147 164.43739566 -110.19114899 165.73087512 -109 167 C-108.48050781 167.6084375 -107.96101563 168.216875 -107.42578125 168.84375 C-97.47718701 179.8281543 -82.26822246 185.28048318 -67.73095703 186.20874023 C-64.10980656 186.30427374 -60.49737115 186.32832131 -56.875 186.3125 C-55.59270508 186.30903564 -54.31041016 186.30557129 -52.98925781 186.30200195 C-40.94046073 186.16393964 -30.2708666 184.64966932 -18.89453125 180.58203125 C-15.75565721 179.61771737 -13.22704198 179.48367328 -10 180 C-6.26182472 185.22522316 -4.46847864 191.44408569 -2.3125 197.4375 C-1.89677734 198.55705078 -1.48105469 199.67660156 -1.05273438 200.83007812 C-0.66021484 201.91611328 -0.26769531 203.00214844 0.13671875 204.12109375 C0.49467529 205.1052124 0.85263184 206.08933105 1.22143555 207.10327148 C2.05059691 210.18825097 2.14065849 212.82029255 2 216 C-18.27233373 226.64467022 -41.64918616 228.22371491 -64.1875 228.3125 C-65.93994019 228.32083862 -65.93994019 228.32083862 -67.7277832 228.3293457 C-98.84272367 228.07099299 -126.02736387 217.89934205 -148.12890625 195.87890625 C-171.73753591 170.69944801 -178.1734433 134.13358944 -177.12109375 100.90039062 C-175.74610435 67.96717668 -163.90194809 37.97286792 -140.10546875 14.734375 C-108.19392714 -14.27799325 -37.14744009 -24.76496006 0 0 Z " fill="#FDFEFD" transform="translate(2070,734)"/>
<path d="M0 0 C1.28131554 -0.00934319 1.28131554 -0.00934319 2.58851624 -0.01887512 C3.50733078 -0.00966537 4.42614532 -0.00045563 5.37280273 0.0090332 C6.31824448 0.0085347 7.26368622 0.00803619 8.23777771 0.00752258 C10.23585106 0.00986284 12.23392737 0.0195885 14.23193359 0.03613281 C17.29803681 0.05975006 20.36327218 0.05669035 23.42944336 0.05004883 C25.36890169 0.05562466 27.30835635 0.06273394 29.24780273 0.0715332 C30.16864151 0.0706218 31.08948029 0.06971039 32.03822327 0.06877136 C32.88928146 0.07830338 33.74033966 0.08783539 34.6171875 0.09765625 C35.36758804 0.10226364 36.11798859 0.10687103 36.89112854 0.11161804 C38.74389648 0.37231445 38.74389648 0.37231445 40.74389648 2.37231445 C40.99459481 4.6766715 40.99459481 4.6766715 40.99557877 7.62599945 C41.00079426 8.74691813 41.00600976 9.86783681 41.0113833 11.02272272 C41.00469113 12.88542944 41.00469113 12.88542944 40.99786377 14.7857666 C41.00098375 16.09688463 41.00410373 17.40800265 41.00731826 18.75885153 C41.01570381 22.41041126 41.01152405 26.06186709 41.00534582 29.71342731 C41.00083762 33.64667148 41.00779694 37.57989725 41.01330566 41.51313782 C41.02221884 49.22321502 41.02026912 56.93325337 41.01448038 64.64333212 C41.00997144 70.9070967 41.00934765 77.17085036 41.01152802 83.43461609 C41.01183448 84.32465862 41.01214095 85.21470115 41.0124567 86.13171467 C41.01309612 87.93957715 41.01374455 89.74743962 41.01440188 91.55530208 C41.02011081 108.52466365 41.01353847 125.49400365 41.00280115 142.46336168 C40.99386513 157.03735284 40.99541701 171.61131215 41.00463867 186.18530273 C41.01533138 203.09217367 41.01956144 219.99902568 41.01341414 236.90589952 C41.01277702 238.70727062 41.01214828 240.50864172 41.01152802 242.31001282 C41.01121946 243.19642081 41.01091091 244.08282881 41.01059301 244.99609765 C41.00886307 251.25543425 41.0117876 257.51475888 41.01648712 263.77409363 C41.02208487 271.39769143 41.0206029 279.02124802 41.00992563 286.64484107 C41.00465395 290.53768805 41.00263747 294.43046622 41.00922394 298.32331276 C41.01624269 302.53522304 41.00788656 306.74695818 40.99786377 310.9588623 C41.00232521 312.20066679 41.00678666 313.44247127 41.0113833 314.72190619 C41.00356005 316.4032842 41.00356005 316.4032842 40.99557877 318.11862946 C40.99525406 319.09190768 40.99492936 320.0651859 40.99459481 321.0679574 C40.74389648 323.37231445 40.74389648 323.37231445 38.74389648 325.37231445 C36.89112854 325.63301086 36.89112854 325.63301086 34.6171875 325.64697266 C33.7661293 325.65650467 32.91507111 325.66603668 32.03822327 325.67585754 C31.11738449 325.67494614 30.19654572 325.67403473 29.24780273 325.6730957 C28.30331772 325.67738083 27.3588327 325.68166595 26.38572693 325.68608093 C24.38590294 325.69183031 22.38605803 325.69232004 20.38623047 325.68798828 C17.32214745 325.68483068 14.25903173 325.70827171 11.19506836 325.73364258 C9.25431437 325.7359157 7.31355778 325.73661901 5.37280273 325.7355957 C3.99458092 325.74941032 3.99458092 325.74941032 2.58851624 325.76350403 C1.73430588 325.75727524 0.88009552 325.75104645 0 325.74462891 C-0.75119614 325.74525833 -1.50239227 325.74588776 -2.27635193 325.74653625 C-4.88927012 325.25263037 -5.6356072 324.46820686 -7.25610352 322.37231445 C-7.63215101 319.95773363 -7.63215101 319.95773363 -7.63362694 317.02960968 C-7.64145018 315.91428344 -7.64927342 314.7989572 -7.65733373 313.6498332 C-7.65064157 312.41940558 -7.6439494 311.18897796 -7.63705444 309.92126465 C-7.64173442 308.61816487 -7.64641439 307.31506509 -7.65123618 305.97247744 C-7.66379892 302.34786699 -7.65755203 298.72349248 -7.64827752 295.09888101 C-7.64150884 291.19289286 -7.65195739 287.28694618 -7.66021729 283.38096619 C-7.6735802 275.72615439 -7.67066552 268.07143067 -7.66197936 260.41661537 C-7.65521326 254.19721557 -7.65428143 247.97784052 -7.65755081 241.75843811 C-7.65801051 240.87437051 -7.65847021 239.99030292 -7.65894384 239.07944539 C-7.65990298 237.28366418 -7.66087562 235.48788297 -7.66186161 233.69210178 C-7.670423 216.84001056 -7.66056965 199.98796825 -7.64446051 183.13588506 C-7.63105665 168.66567947 -7.63338453 154.19554608 -7.6472168 139.7253418 C-7.6632594 122.93490964 -7.66959896 106.14452038 -7.66038001 89.35408163 C-7.65942433 87.56478469 -7.65848121 85.77548775 -7.65755081 83.9861908 C-7.65708799 83.10574672 -7.65662516 82.22530264 -7.65614831 81.31817845 C-7.65355445 75.10387793 -7.65793791 68.88960454 -7.66498947 62.67530823 C-7.67339004 55.10554265 -7.67115485 47.53587043 -7.65514724 39.96611559 C-7.64724498 36.10146228 -7.64420598 32.23696482 -7.6540947 28.37231255 C-7.66463667 24.18919318 -7.65207771 20.00646976 -7.63705444 15.82336426 C-7.64374661 14.59293664 -7.65043877 13.36250901 -7.65733373 12.0947957 C-7.64951049 10.97946947 -7.64168725 9.86414323 -7.63362694 8.71501923 C-7.63313988 7.74873832 -7.63265282 6.78245742 -7.63215101 5.78689528 C-6.91293021 1.16881703 -4.38739986 -0.00367619 0 0 Z " fill="#FCFEFD" transform="translate(819.256103515625,632.627685546875)"/>
<path d="M0 0 C1.03253906 -0.00322266 2.06507812 -0.00644531 3.12890625 -0.00976562 C9.06761154 0.03184314 14.19057048 0.59221212 19.875 2.3125 C20.73867187 2.56128906 21.60234375 2.81007813 22.4921875 3.06640625 C34.94344074 7.5255921 43.32379753 17.81079645 49 29.375 C61.26947632 57.25433363 61.80314717 93.38528801 52.08984375 122.1953125 C46.21089589 137.28020122 38.19950796 149.41736914 23.26171875 156.5625 C9.99574427 161.62289821 -8.15268035 161.67152407 -21.4375 156.63671875 C-37.12215704 148.90837756 -44.85088369 136.11884908 -50.4375 120.0625 C-59.42439094 90.98952374 -58.74899971 52.80109687 -44.875 25.375 C-37.75372425 13.07041987 -28.64953337 4.86768633 -14.93237305 0.91235352 C-9.96555301 -0.14891067 -5.05840515 -0.07953467 0 0 Z " fill="#01A1E0" transform="translate(1601.125,763.6875)"/>
<path d="M0 0 C1.44282349 0.24762085 1.44282349 0.24762085 2.91479492 0.50024414 C4.2660144 0.75729126 4.2660144 0.75729126 5.64453125 1.01953125 C6.8507312 1.24733276 6.8507312 1.24733276 8.08129883 1.47973633 C10.58261202 2.32027266 11.72314648 2.97934787 13.1875 5.1875 C12.8828201 9.183379 11.31562382 12.90432632 9.97265625 16.66015625 C9.53373047 17.88927734 9.09480469 19.11839844 8.64257812 20.38476562 C8.4138501 21.01938721 8.18512207 21.65400879 7.94946289 22.30786133 C7.25145626 24.24595652 6.55990956 26.18626813 5.86914062 28.12695312 C2.15148767 38.49610228 2.15148767 38.49610228 0.1875 42.1875 C-0.74408936 42.16655273 -1.67567871 42.14560547 -2.63549805 42.12402344 C-6.15627312 42.05506138 -9.67631085 42.00532488 -13.19750977 41.96777344 C-14.70934512 41.94789563 -16.2211061 41.92078327 -17.73266602 41.88574219 C-33.46084021 41.5307751 -46.12037793 44.17157249 -57.99609375 55.21875 C-74.06647472 71.98784319 -74.93372936 95.08186159 -74.98608398 117.02026367 C-74.992771 118.21717834 -74.99945801 119.41409302 -75.00634766 120.64727783 C-75.02387239 123.88001391 -75.03751135 127.11274025 -75.0499599 130.3454988 C-75.06456684 133.7460098 -75.08601399 137.14647592 -75.10719299 140.54695129 C-75.17791002 152.09090551 -75.23843757 163.63489657 -75.28930664 175.17895508 C-75.31758712 181.58054519 -75.3529305 187.98205736 -75.39596039 194.38356572 C-75.41832085 197.76208859 -75.43684691 201.1405397 -75.44640923 204.51912498 C-75.45850712 208.27222168 -75.4826262 212.02506064 -75.50952148 215.77807617 C-75.51011063 216.89543655 -75.51069977 218.01279694 -75.51130676 219.16401672 C-75.52102509 220.18284943 -75.53074341 221.20168213 -75.54075623 222.25138855 C-75.54498816 223.13748401 -75.5492201 224.02357946 -75.55358028 224.9365263 C-75.8125 227.1875 -75.8125 227.1875 -77.8125 230.1875 C-79.70996094 230.56845093 -79.70996094 230.56845093 -82.046875 230.57568359 C-82.92118164 230.58514008 -83.79548828 230.59459656 -84.69628906 230.6043396 C-85.64213867 230.59826691 -86.58798828 230.59219421 -87.5625 230.5859375 C-88.53155273 230.58880768 -89.50060547 230.59167786 -90.49902344 230.59463501 C-92.55013614 230.59667869 -94.6012682 230.59112767 -96.65234375 230.57861328 C-99.79992061 230.56256414 -102.94621329 230.57845194 -106.09375 230.59765625 C-108.08333618 230.59567387 -110.07292156 230.59183031 -112.0625 230.5859375 C-113.00834961 230.59201019 -113.95419922 230.59808289 -114.92871094 230.6043396 C-115.80301758 230.59488312 -116.67732422 230.58542664 -117.578125 230.57568359 C-118.34930664 230.57329681 -119.12048828 230.57091003 -119.91503906 230.56845093 C-121.8125 230.1875 -121.8125 230.1875 -123.8125 227.1875 C-124.00680658 224.2060328 -124.08191017 221.31818811 -124.06646729 218.33628845 C-124.06958727 217.42042058 -124.07270725 216.50455271 -124.07592177 215.56093127 C-124.08392554 212.47927688 -124.07756888 209.39781811 -124.07128906 206.31616211 C-124.07399785 204.11209497 -124.07755814 201.90802874 -124.08190918 199.70396423 C-124.09104828 193.70830857 -124.0874828 187.71272152 -124.08115101 181.71706462 C-124.07609952 175.45326596 -124.08078003 169.18947332 -124.08392334 162.92567444 C-124.08779869 151.7319917 -124.08157073 140.53833424 -124.07140467 129.34465755 C-124.06246673 119.18865918 -124.06402272 109.03270653 -124.07324219 98.87670898 C-124.0839368 87.09014985 -124.08793391 75.30361287 -124.08201766 63.51704794 C-124.07889301 57.27507114 -124.0785022 51.03312585 -124.08509064 44.79115105 C-124.09084958 38.92498818 -124.08689392 33.05891202 -124.07530212 27.19275856 C-124.07264786 25.03438333 -124.07343359 22.87600086 -124.07782745 20.71762848 C-124.08325416 17.78222832 -124.07648397 14.84710988 -124.06646729 11.91172791 C-124.07092873 11.04802753 -124.07539017 10.18432715 -124.07998681 9.29445404 C-124.04080021 3.41580021 -124.04080021 3.41580021 -121.8125 1.1875 C-119.9462738 0.94026184 -119.9462738 0.94026184 -117.65405273 0.94458008 C-116.36778236 0.93996513 -116.36778236 0.93996513 -115.05552673 0.93525696 C-114.12841385 0.94244247 -113.20130096 0.94962799 -112.24609375 0.95703125 C-111.29686539 0.95748947 -110.34763702 0.95794769 -109.36964417 0.9584198 C-107.36140697 0.96144362 -105.35317216 0.96933376 -103.3449707 0.98168945 C-100.25919351 0.99994561 -97.17371617 1.00219918 -94.08789062 1.00195312 C-92.14062239 1.00686817 -90.1933562 1.01269643 -88.24609375 1.01953125 C-86.85238808 1.02120049 -86.85238808 1.02120049 -85.43052673 1.02290344 C-84.57616531 1.02928329 -83.72180389 1.03566315 -82.84155273 1.04223633 C-82.08591537 1.04604813 -81.33027802 1.04985992 -80.55174255 1.05378723 C-78.8125 1.1875 -78.8125 1.1875 -77.8125 2.1875 C-77.65594973 3.67388992 -77.56183057 5.16699127 -77.49609375 6.66015625 C-77.45419922 7.55927734 -77.41230469 8.45839844 -77.36914062 9.38476562 C-77.32982422 10.33029297 -77.29050781 11.27582031 -77.25 12.25 C-77.20681641 13.19939453 -77.16363281 14.14878906 -77.11914062 15.12695312 C-77.01270724 17.48031353 -76.91068992 19.83378354 -76.8125 22.1875 C-76.32523438 21.630625 -75.83796875 21.07375 -75.3359375 20.5 C-68.92537149 13.59989986 -62.07750502 9.45080857 -53.8125 5.1875 C-53.05324219 4.7646875 -52.29398438 4.341875 -51.51171875 3.90625 C-36.02415734 -4.03300478 -16.55683309 -2.87681538 0 0 Z " fill="#FDFEFD" transform="translate(1870.8125,726.8125)"/>
<path d="M0 0 C1.71993164 -0.0309375 1.71993164 -0.0309375 3.47460938 -0.0625 C16.22219016 -0.11724001 27.71009474 1.69271137 40.6875 3.25 C40.6875 25.69 40.6875 48.13 40.6875 71.25 C24.15820074 74.7919927 24.15820074 74.7919927 16.875 75.4375 C16.00464111 75.51500488 15.13428223 75.59250977 14.23754883 75.67236328 C-29.10967211 79.15053726 -29.10967211 79.15053726 -45.3125 66.25 C-52.13367246 59.93787026 -54.98083069 52.61651825 -55.55078125 43.39453125 C-55.82460056 32.72540119 -55.05566987 24.59080707 -48.125 16 C-35.37143306 2.68377569 -17.70018101 0.07480267 0 0 Z " fill="#01A1E0" transform="translate(676.3125,847.75)"/>
<path d="M0 0 C10.99765976 8.66045696 16.39967266 19.1176043 20.1875 32.375 C20.6825 40.295 20.6825 40.295 21.1875 48.375 C-13.4625 48.375 -48.1125 48.375 -83.8125 48.375 C-82.03820155 30.63201549 -76.14441026 14.69914381 -62.8125 2.375 C-45.49461131 -11.24840577 -18.36259568 -12.3584772 0 0 Z " fill="#01A1E0" transform="translate(2221.8125,770.625)"/>
<path d="M0 0 C1.4393875 1.05295734 2.85687996 2.13654946 4.25 3.25 C4.92675781 3.77851562 5.60351562 4.30703125 6.30078125 4.8515625 C16.87062394 14.16944324 21.74503188 28.59554968 23.25 42.25 C23.25 44.56 23.25 46.87 23.25 49.25 C-11.4 49.25 -46.05 49.25 -81.75 49.25 C-81.75 41.35536218 -81.75 41.35536218 -80.8671875 38.234375 C-80.67286133 37.54609619 -80.47853516 36.85781738 -80.27832031 36.14868164 C-80.06272461 35.4396167 -79.84712891 34.73055176 -79.625 34 C-79.3990918 33.25419678 -79.17318359 32.50839355 -78.94042969 31.73999023 C-74.10103653 16.42241714 -64.68015791 4.49580452 -50.6875 -3.5 C-34.97368727 -10.18672882 -14.47178562 -8.90197233 0 0 Z " fill="#01A1E0" transform="translate(1035.75,769.75)"/>
</svg>
