<svg xmlns="http://www.w3.org/2000/svg" version="1.1" viewBox="4 0.61 357 364.18"><path d="" stroke="none" fill="#58bc94" fill-rule="evenodd"/><path d="M 167.500 1.055 C 128.206 3.894, 89.837 20.129, 59.455 46.771 C 36.777 66.656, 17.281 96.523, 7.536 126.307 C 1.633 144.348, 1.873 144.735, 21.723 149.203 C 40.927 153.526, 40.339 153.784, 45.585 138.756 C 53.270 116.738, 63.076 100.329, 77.781 84.875 C 113.690 47.142, 166.052 31.870, 215.500 44.709 C 229.450 48.331, 232.178 48.565, 234.214 46.316 C 235.135 45.299, 238.167 38.506, 240.953 31.222 C 245.821 18.489, 245.962 17.844, 244.583 14.543 C 243.269 11.398, 242.431 10.891, 234.627 8.510 C 213.917 2.193, 189.410 -0.529, 167.500 1.055 M 283.500 36.388 C 279.105 38.306, 273.278 45.256, 271.959 50.151 C 268.802 61.877, 276.893 74.278, 289.166 76.521 C 297.463 78.037, 307.153 72.708, 311.388 64.300 C 314.751 57.623, 313.045 47.108, 307.633 41.153 C 302.437 35.435, 290.901 33.157, 283.500 36.388 M 145.174 113.314 C 143.134 115.487, 143 116.588, 143 131.242 L 143 146.855 145.635 148.927 C 148.262 150.994, 148.573 151, 252 151 C 355.427 151, 355.738 150.994, 358.365 148.927 L 361 146.855 361 130.927 C 361 116.333, 360.833 114.833, 359 113 C 357.025 111.025, 355.667 111, 252.174 111 L 147.349 111 145.174 113.314 M 324.768 196.968 C 322.726 198.574, 321.956 200.642, 320.579 208.218 C 311.558 257.849, 275.524 299.999, 227.688 316.878 C 211.536 322.578, 200.541 324.353, 181 324.417 C 161.712 324.481, 154.156 323.357, 136.580 317.811 C 123.076 313.549, 123.222 313.451, 115.561 331.894 C 109.932 345.445, 109.691 346.359, 111.090 348.858 C 113.011 352.289, 117.064 354.177, 130.500 357.902 C 146.861 362.439, 157.773 364.103, 175 364.690 C 263.157 367.692, 341.169 306.162, 358.984 219.575 C 361.731 206.227, 361.661 201.479, 358.689 199.532 C 356.985 198.415, 333.500 195, 327.528 195 C 327.386 195, 326.144 195.886, 324.768 196.968 M 6.635 204.073 L 4 206.145 4 222.073 C 4 236.667, 4.167 238.167, 6 240 C 7.975 241.975, 9.333 242, 112.826 242 L 217.651 242 219.826 239.686 C 221.866 237.513, 222 236.412, 222 221.758 L 222 206.145 219.365 204.073 C 216.738 202.006, 216.427 202, 113 202 C 9.573 202, 9.262 202.006, 6.635 204.073 M 59.764 283.996 C 48.726 287.319, 42.038 298.999, 44.959 309.849 C 46.302 314.834, 51.618 321.117, 56.425 323.397 C 60.798 325.472, 70.179 325.465, 74.300 323.383 C 82.020 319.482, 86 313.062, 86 304.508 C 86 297.346, 84.292 293.390, 79.224 288.817 C 73.503 283.655, 66.587 281.941, 59.764 283.996" stroke="none" fill="#54bc94" fill-rule="evenodd"/></svg>