<?xml version="1.0" encoding="UTF-8"?>
<!-- Generated by Pixelmator Pro 3.5.6 -->
<svg width="400" height="400" viewBox="0 0 400 400" xmlns="http://www.w3.org/2000/svg">
    <g id="Group">
        <g id="g1">
            <path id="Path" fill="#29b5e8" stroke="none" d="M 65.484848 98.78183 L 144.321213 146.05455 C 153.310623 151.457214 164.838348 149.94751 172.133331 142.412109 C 176.917099 137.800903 179.60434 131.432159 179.569702 124.787872 L 179.569702 30.042419 C 179.890778 21.588898 175.563492 13.636566 168.290909 9.315155 C 161.019836 4.993896 151.968033 4.993896 144.696976 9.315155 C 137.424393 13.636566 133.097107 21.588898 133.418182 30.042419 L 133.418182 83.957581 L 88.648483 57.1091 C 83.314873 53.943176 76.92762 53.068817 70.939392 54.684845 C 64.963638 56.290894 59.921215 60.381836 57 65.860626 C 50.593941 77.375763 54.333332 91.799988 65.484848 98.721191 M 255 145.993958 L 333.836365 98.721191 C 344.987885 91.793945 348.733337 77.309113 342.321228 65.84848 C 339.391174 60.384125 334.355835 56.354095 328.382294 54.692474 C 322.408722 53.030853 316.015656 53.881958 310.684845 57.048492 L 266.442444 83.533356 L 266.442444 29.95755 C 266.747498 21.514374 262.417023 13.578644 255.151505 9.266632 C 247.88649 4.955017 238.846817 4.955017 231.581818 9.266632 C 224.316315 13.578644 219.985825 21.514374 220.290909 29.95755 L 220.290909 122.818176 C 219.816452 127.792664 220.860275 132.794159 223.284851 137.163635 C 226.20607 142.636383 231.248474 146.678787 237.224228 148.339417 C 243.208664 150.013123 249.618896 149.13562 254.933334 145.915161 M 184.830307 199.818176 C 184.909088 198.303024 185.484848 196.787872 186.47879 195.69696 L 195.690903 186.121216 C 196.781784 185.106293 198.191528 184.502121 199.678787 184.412109 L 200.024246 184.412109 C 201.508453 184.499878 202.9151 185.104568 204 186.121216 L 213.212128 195.69696 C 214.209198 196.84877 214.78981 198.30246 214.860611 199.824234 L 214.860611 200.187881 C 214.787872 201.712845 214.207642 203.169785 213.212128 204.327286 L 204 213.909088 C 202.919754 214.93457 201.51123 215.544342 200.024246 215.630295 L 199.678787 215.630295 C 198.187881 215.545456 196.769699 214.93335 195.690903 213.909088 L 186.47879 204.333344 C 185.483261 203.175842 184.903046 201.718903 184.830307 200.193939 Z M 156.927277 195.878799 L 156.927277 204.212128 C 157.029724 206.289658 157.823227 208.273407 159.181808 209.848495 L 190.454544 242.315155 C 191.929993 243.710495 193.851318 244.539139 195.878784 244.654556 L 203.830307 244.654556 C 205.857788 244.539139 207.779099 243.710495 209.254547 242.315155 L 240.527283 209.848495 C 241.885864 208.273407 242.679367 206.289658 242.781815 204.212128 L 242.781815 195.94545 C 242.679367 193.867935 241.885864 191.884155 240.527283 190.309082 L 209.254547 157.842422 C 207.779099 156.447083 205.857788 155.618439 203.830307 155.503036 L 195.878784 155.503036 C 193.851318 155.618439 191.929993 156.447083 190.454544 157.842422 L 159.181808 190.369705 C 157.827225 191.947174 157.034286 193.929535 156.927277 196.006058 M 24.69697 173.581818 L 69.333328 200.351517 L 24.69697 227.096985 C 13.623569 234.031631 9.90083 248.411682 16.218182 259.848511 C 19.144178 265.320435 24.180302 269.358093 30.157576 271.024231 C 36.133335 272.684845 42.533333 271.830292 47.866665 268.648499 L 126.703033 221.375763 C 133.975754 216.757584 138.218185 208.781815 138.218185 200.212128 C 138.217026 191.661316 133.881927 183.693893 126.703033 179.048492 L 47.866665 131.775757 C 42.533051 128.609833 36.145802 127.735474 30.157576 129.351501 C 24.181818 130.957581 19.139395 135.048492 16.218182 140.527283 C 9.812121 152.042419 13.551515 166.454559 24.70303 173.387863 M 261.036346 200.309082 C 260.894592 208.886719 265.296783 216.900574 272.612122 221.381821 L 351.399994 268.654541 C 356.733337 271.830292 363.121216 272.690918 369.096985 271.030273 C 375.072723 269.36969 380.10907 265.333313 383.036377 259.860596 C 389.463959 248.398438 385.723633 233.907364 374.551514 226.987885 L 329.969696 200.236359 L 374.606079 173.46666 C 385.757599 166.539398 389.496948 152.072723 383.090912 140.606079 C 380.170502 135.129456 375.13208 131.089996 369.15152 129.430298 C 363.169708 127.769684 356.775757 128.618164 351.454559 131.854553 L 272.666687 179.127274 C 265.294525 183.641525 260.884003 191.739853 261.090912 200.381821 M 160.151505 251.569702 C 154.710495 250.519653 149.073364 251.521423 144.327271 254.381821 L 65.490906 301.654541 C 54.339394 308.581818 50.60606 323.048462 57.006058 334.515167 C 59.933334 339.987885 64.969696 344.030304 70.94545 345.684845 C 76.92527 347.343872 83.323425 346.485535 88.654549 343.309082 L 133.42424 316.460602 L 133.42424 369.975739 C 133.089478 378.436157 137.412003 386.401245 144.687988 390.731445 C 151.963974 395.061646 161.026352 395.062378 168.30304 390.733337 C 175.57843 386.402008 179.899734 378.436188 179.563644 369.975739 L 179.563644 275.157562 C 179.732346 263.587891 171.520889 253.588104 160.139404 251.503021 M 333.836365 301.660583 L 255 254.387878 C 249.668884 251.211441 243.270737 250.353088 237.290909 252.012131 C 231.311432 253.670395 226.273209 257.70755 223.351517 263.181824 C 220.926926 267.557861 219.883224 272.565125 220.35759 277.545441 L 220.35759 369.969696 C 220.022812 378.430115 224.345337 386.395172 231.621323 390.725403 C 238.897308 395.055573 247.959686 395.056335 255.236359 390.727264 C 262.514069 386.397522 266.837891 378.431396 266.503021 369.969696 L 266.503021 316.854553 L 310.666656 343.339386 C 316.000275 346.50531 322.387543 347.379669 328.375763 345.763641 C 334.351501 344.157593 339.393951 340.066681 342.315155 334.587891 C 348.721222 323.072723 344.981812 308.648499 333.830322 301.727295"/>
        </g>
    </g>
</svg>
