<?xml version="1.0" encoding="UTF-8"?>
<!-- Generated by Pixelmator Pro 3.5.6 -->
<svg width="400" height="400" viewBox="0 0 400 400" xmlns="http://www.w3.org/2000/svg">
    <radialGradient id="radialGradient1" cx="261.59697" cy="169.94" r="350.089091" fx="261.59697" fy="169.94" gradientUnits="userSpaceOnUse">
        <stop offset="1e-05" stop-color="#ffffff" stop-opacity="1"/>
        <stop offset="0.8655" stop-color="#99a5b4" stop-opacity="1"/>
        <stop offset="0.9939" stop-color="#8a97a8" stop-opacity="1"/>
    </radialGradient>
    <path id="Path" fill="url(#radialGradient1)" stroke="none" d="M 237.049088 190.909088 C 236.443039 189.090912 230.382431 192.727264 228.56424 193.333344 C 230.98848 206.060608 231.594543 219.393951 232.200607 231.515152 C 220.079407 225.454544 197.655151 210.30304 191.594543 205.454559 L 187.352112 207.272736 C 187.352112 206.666656 187.352112 206.060608 187.352112 205.454559 L 181.291519 207.272736 C 179.473328 208.484863 180.079391 207.272736 180.079391 209.69696 C 181.897568 226.060608 178.867279 243.636368 173.412735 261.212097 C 161.291519 250.909103 149.776367 236.363632 146.746063 223.030304 C 145.533936 223.636368 144.321808 224.242432 142.503632 224.242432 C 140.685455 224.84848 140.079391 224.242432 140.685455 226.060608 C 145.533936 244.242416 159.473328 258.787903 169.170303 266.060608 C 157.655151 270.30304 144.927872 275.15152 130.382431 280 C 125.533943 281.818176 118.261215 283.636353 110.382423 286.666656 C 117.655151 276.363617 134.018784 244.242416 140.079391 224.84848 L 130.98848 228.484848 C 121.291512 251.515152 106.139999 275.757568 99.473335 286.060608 C 98.867271 286.666656 98.867271 287.272736 98.261208 287.878784 C 92.200607 276.363617 89.776367 263.030334 94.624847 247.878799 C 95.230904 245.454544 86.746063 251.515152 86.139999 252.121201 C 83.715759 253.333328 83.715759 255.151505 83.109695 257.575745 C 82.503639 261.212097 81.897575 264.848511 81.897575 269.090912 C 81.897575 277.575745 84.927879 286.060608 89.776367 293.939392 C 70.988426 299.393951 49.776302 306.060608 29.170242 311.515167 C 29.170242 310.909088 29.170242 310.30304 29.170242 309.69696 C 32.200546 295.15152 46.746002 276.363617 63.715694 266.666687 L 67.958122 261.818176 L 44.927879 277.575745 C 34.018787 286.666656 21.897528 301.212128 18.867224 314.545471 C 14.6248 333.939392 29.170303 349.090912 44.927879 360.606049 C 61.897575 372.727264 80.079391 378.787872 100.685455 384.84848 C 123.109695 391.515137 169.170303 397.575745 192.806656 397.575745 C 194.624847 397.575745 197.049088 397.575745 197.049088 397.575745 C 197.049088 397.575745 198.261215 395.757599 198.261215 395.151489 C 200.079391 391.515137 227.352127 340.606079 234.624847 297.575745 C 241.291519 267.272705 244.927872 228.484848 237.049088 190.909088 Z M 187.352112 209.090912 C 197.049088 215.757568 222.503632 230.303024 231.594543 233.939392 C 220.079407 242.42424 203.715759 252.121201 180.079391 261.818176 C 187.352112 238.787888 188.56424 220 187.352112 209.090912 Z M 137.655151 287.272736 C 148.56424 283.636353 158.867279 279.393921 167.958191 275.15152 C 160.685455 293.333344 150.98848 311.515167 141.897568 327.272736 C 137.049088 324.84848 132.806671 321.818176 128.56424 318.787872 C 119.473335 312.121216 111.594551 304.84848 105.533943 296.969696 C 116.443031 293.939392 127.352119 290.909088 137.655151 287.272736 Z M 30.988424 314.545471 C 50.382362 309.69696 70.988426 305.454559 91.594543 300.606049 C 76.44297 323.030304 63.109634 339.393951 55.83691 352.121216 C 43.715698 343.030304 31.594484 329.090912 30.988424 314.545471 Z M 58.26115 353.939392 C 70.382362 335.757568 85.533943 319.393951 98.867271 303.030304 C 101.897575 307.272736 106.139999 310.909088 109.776367 314.545471 C 116.443031 320.606079 124.321815 326.060608 132.806671 330.30304 C 109.170303 338.787903 84.927879 347.878784 61.291454 355.757568 C 59.473274 355.151489 58.867214 354.545471 58.26115 353.939392 Z M 110.382423 378.787872 C 109.170303 378.181824 107.958183 378.181824 106.746063 377.575745 C 85.533943 370.303009 76.44297 366.666656 63.715694 358.181824 C 73.412666 355.151489 115.836975 344.242432 135.83696 337.575775 C 124.321815 356.363647 114.018791 371.515137 110.382423 378.787872 Z M 195.83696 393.939392 C 179.473328 392.121185 146.139999 386.666656 123.715752 382.424225 C 154.624847 375.15152 175.230911 372.121216 210.382431 355.151489 C 204.321823 371.515137 198.867264 387.272736 195.83696 393.939392 Z M 118.261215 380 C 117.655151 380.606049 117.655151 380.606049 118.261215 380 C 116.443031 380 115.836975 380 114.624855 379.393921 C 126.746056 364.84848 137.655151 350.909088 146.139999 336.969696 C 176.443039 349.69696 206.746063 352.121216 210.382431 352.121216 C 195.83696 358.181824 121.897575 379.393921 118.261215 380 Z M 226.139999 301.212128 C 223.715759 313.333344 217.655151 332.727295 211.594543 350.909088 C 191.594543 347.272736 169.776367 341.212128 150.98848 332.121216 C 171.594543 323.636383 215.230927 303.636353 226.746063 295.757568 C 226.746063 297.575745 226.139999 299.393951 226.139999 301.212128 Z M 227.958191 292.121216 C 215.836975 299.393951 174.624847 315.15152 155.230911 322.424255 C 165.533936 304.242432 172.806671 287.272736 177.655151 272.121216 C 198.867264 284.84848 220.685455 290.30304 227.958191 292.121216 Z M 227.958191 289.69696 C 211.594543 285.454529 196.443024 277.575745 182.503632 268.484863 C 210.98848 253.939407 230.382431 239.999985 232.200607 238.181808 C 232.200607 256.969727 230.382431 275.15152 227.958191 289.69696 Z"/>
    <radialGradient id="radialGradient2" cx="221.80303" cy="90.494545" r="171.436364" fx="221.80303" fy="90.494545" gradientUnits="userSpaceOnUse">
        <stop offset="1e-05" stop-color="#ffffff" stop-opacity="1"/>
        <stop offset="0.8655" stop-color="#99a5b4" stop-opacity="1"/>
        <stop offset="0.9939" stop-color="#8a97a8" stop-opacity="1"/>
    </radialGradient>
    <path id="path1" fill="url(#radialGradient2)" stroke="none" d="M 96.443031 54.545441 C 88.564247 48.484863 97.049088 40 101.897575 36.363647 C 103.715759 34.545471 106.139999 33.333344 107.958183 31.515167 C 114.018791 38.787903 129.170303 58.181824 135.230911 64.242401 L 146.139999 63.636353 C 140.685455 58.787872 117.655151 35.757599 110.988487 29.696991 C 121.897575 33.939392 158.867279 41.212128 178.867279 42.424255 C 178.867279 42.424255 178.867279 42.424255 178.867279 43.030304 C 172.200607 46.666656 159.473328 52.727264 146.139999 61.818176 L 155.230911 63.030304 C 165.533936 57.575745 172.806671 52.727264 180.685455 45.454559 C 184.321808 53.333344 188.56424 61.818176 194.018784 70.909088 L 202.503632 72.121216 C 186.746048 44.84848 175.230911 20.606079 170.382431 0 C 158.867279 3.636353 96.443031 25.454559 84.927879 40.606079 C 79.473335 46.666656 92.200607 51.515137 96.443031 54.545441 Z M 167.958191 3.030304 C 169.170303 15.15152 171.594543 26.060608 176.443039 38.181824 C 161.897583 34.545471 126.746056 29.090912 114.018791 27.878784 C 135.230911 14.545471 164.321823 4.242401 167.958191 3.030304 Z"/>
    <radialGradient id="radialGradient3" cx="176.995152" cy="163.057576" r="145.190909" fx="176.995152" fy="163.057576" gradientUnits="userSpaceOnUse">
        <stop offset="1e-05" stop-color="#e23126" stop-opacity="1"/>
        <stop offset="1" stop-color="#b92226" stop-opacity="1"/>
    </radialGradient>
    <path id="path2" fill="url(#radialGradient3)" stroke="none" d="M 381.291504 157.57576 C 359.473328 123.636383 326.746063 92.121216 227.958191 73.939392 C 207.352127 70.303009 182.503632 67.272705 138.867264 59.393921 C 123.715752 56.969696 78.261154 49.69696 83.715759 40.606079 C 80.685455 44.242432 83.109695 47.878784 84.927879 49.69696 C 107.352119 75.15152 140.079391 90.30304 140.079391 142.424255 C 140.079391 190.30304 97.049088 235.151505 53.412666 270.909088 C 50.988422 272.727264 48.564182 274.545441 46.139938 276.969696 C 98.261208 244.848495 130.98848 232.121201 171.594543 216.363647 C 222.503632 196.363647 323.715759 167.878799 381.897583 160.000015 L 381.291504 157.57576 Z M 296.443024 102.424255 C 302.503632 104.84848 307.958191 107.272736 313.41272 109.69696 C 285.533936 115.757568 260.685455 123.636383 238.261215 132.727295 C 246.746048 115.757568 250.382431 100.606049 251.594559 87.878784 C 266.746063 92.121216 281.897583 96.969696 296.443024 102.424255 Z M 227.958191 133.939392 C 217.655151 127.878784 207.352127 122.424255 196.443024 118.181824 C 210.98848 107.878784 227.958191 96.969696 246.746048 87.272736 C 246.139999 98.787872 240.079391 114.545471 227.958191 133.939392 Z M 143.715759 113.333344 C 153.41272 115.15152 164.927887 118.787872 177.655151 123.636383 C 167.958191 131.515167 157.049088 141.212128 144.927872 153.333328 C 146.746063 139.393951 145.533936 125.454559 143.715759 113.333344 Z M 181.897568 129.696991 C 178.867279 144.242416 172.200607 158.787888 163.715759 173.333328 C 157.655151 166.666672 150.98848 162.42424 146.139999 160.606064 C 152.200607 153.939407 164.927887 142.424255 181.897568 129.696991 Z M 189.170303 127.878784 C 198.261215 132.121216 207.958176 136.969696 217.655151 141.818176 C 201.897568 149.090897 187.958176 156.969711 175.230911 165.454544 C 182.503632 152.72728 187.352112 140 189.170303 127.878784 Z M 241.291519 86.060608 C 223.109711 93.939392 207.958176 101.212128 190.98848 113.333344 C 191.594543 99.393951 188.56424 86.060608 183.715759 75.15152 C 203.109695 78.181824 221.897583 81.818176 241.291519 86.060608 Z M 179.473328 74.545441 C 183.715759 87.272736 184.927872 100.606049 183.715759 113.939392 C 170.988495 109.69696 157.655151 106.060608 145.533936 103.030304 C 154.018784 93.939392 166.139999 84.242432 179.473328 74.545441 Z M 98.261208 56.363617 C 105.533943 58.787872 114.018791 61.212097 123.715752 63.636353 C 127.958183 75.757568 130.98848 86.666656 134.018784 96.363647 C 125.533943 81.212128 113.412727 67.878784 98.261208 56.363617 Z M 127.958183 64.84848 C 145.533936 69.090912 164.321823 72.121216 175.230911 73.939392 C 167.352127 78.181824 149.170303 89.090912 140.685455 99.393951 C 136.443024 83.030304 130.382431 70.303009 127.958183 64.84848 Z M 141.291504 170.303024 C 146.746063 172.72728 150.98848 175.757568 154.624847 178.787872 C 144.321808 186.060608 134.624847 193.333344 126.746056 200 C 133.41272 190.909088 138.2612 180.606049 141.291504 170.303024 Z M 119.473335 210.909088 C 127.352119 205.454559 138.2612 197.575745 152.200607 188.484833 C 138.867264 204.84848 121.291512 220.606064 100.079391 233.333328 C 107.352119 226.060608 114.018791 218.787872 119.473335 210.909088 Z M 109.776367 233.939392 C 132.200607 218.181824 149.170303 202.424255 161.291519 186.060608 C 166.746063 193.333344 169.776367 200.606049 170.382431 207.272736 C 146.746063 216.969696 127.958183 224.242432 109.776367 233.939392 Z M 174.624847 206.060608 C 174.624847 194.545441 171.594543 186.060608 167.958191 178.787872 C 182.503632 170.303024 198.867264 161.212112 217.049103 152.121201 C 206.139999 167.878799 192.200607 186.060608 174.624847 206.060608 Z M 181.291519 203.636353 C 203.109695 184.242432 218.26123 166.060608 229.170303 149.090897 C 241.897568 156.969711 254.018784 166.666672 264.321808 176.969696 C 240.079391 183.636353 212.200623 192.121216 181.291519 203.636353 Z M 270.382416 175.15152 C 261.897583 161.212112 250.98848 150.303024 238.867264 141.212128 C 262.503632 130.909088 289.170288 120.606079 317.655151 112.727264 C 308.56424 129.090912 293.41272 146.060593 270.382416 175.15152 Z M 278.2612 173.333328 C 300.079407 152.72728 310.382416 140 322.503632 114.545471 C 347.958191 128.484863 365.533936 144.848495 374.624847 155.757584 C 375.230896 156.363632 375.836975 156.969711 377.049072 157.57576 C 364.321808 158.181808 329.776367 160.606064 278.2612 173.333328 Z"/>
    <path id="path3" fill="#231f20" stroke="none" d="M 218.867279 386.666656 L 215.230927 386.666656 L 215.230927 397.575745 L 214.018799 397.575745 L 214.018799 386.666656 L 210.382431 386.666656 L 210.382431 385.454529 L 218.867279 385.454529"/>
    <path id="path4" fill="#231f20" stroke="none" d="M 232.806671 397.575745 L 231.594543 397.575745 L 231.594543 389.090881 C 231.594543 388.484833 231.594543 387.878784 231.594543 386.666656 C 231.594543 387.272736 231.594543 387.878784 230.98848 387.878784 L 226.746063 396.969696 L 226.139999 396.969696 L 221.897583 387.878784 C 221.897583 387.878784 221.897583 387.272736 221.291519 386.666656 C 221.291519 387.272736 221.291519 387.878784 221.291519 389.090881 L 221.291519 396.969696 L 220.079407 396.969696 L 220.079407 384.84848 L 221.897583 384.84848 L 225.533936 393.333344 C 225.533936 393.939392 226.139999 394.545441 226.139999 394.545441 C 226.139999 393.939392 226.746063 393.333344 226.746063 393.333344 L 230.382431 384.84848 L 232.200607 384.84848"/>
</svg>
