<?xml version="1.0" encoding="UTF-8"?>
<!-- Generated by Pixelmator Pro 3.5.6 -->
<svg width="400" height="400" viewBox="0 0 400 400" xmlns="http://www.w3.org/2000/svg">
    <path id="Path" fill="#e8762d" stroke="none" d="M 189.054733 269.400085 L 210.945267 269.400085 L 210.945267 209.698578 L 266.003296 209.698578 L 266.003296 188.471375 L 210.945267 188.471375 L 210.945267 128.769897 L 189.054733 128.769897 L 189.054733 188.471375 L 134.660034 188.471375 L 134.660034 209.698578 L 189.054733 209.698578 Z"/>
    <path id="path1" fill="#c72037" stroke="none" d="M 87.562187 355.635559 L 106.135986 355.635559 L 106.135986 302.567566 L 155.223877 302.567566 L 155.223877 285.983826 L 106.135986 285.983826 L 106.135986 232.252457 L 87.562187 232.252457 L 87.562187 285.983826 L 38.474297 285.983826 L 38.474297 302.567566 L 87.562187 302.567566 Z"/>
    <path id="path2" fill="#5b879b" stroke="none" d="M 293.864014 163.927429 L 312.437805 163.927429 L 312.437805 110.859436 L 362.189056 110.859436 L 362.189056 94.939056 L 312.437805 94.939056 L 312.437805 41.207703 L 293.864014 41.207703 L 293.864014 94.939056 L 244.776138 94.939056 L 244.776138 110.859436 L 293.864014 110.859436 Z"/>
    <path id="path3" fill="#5c6692" stroke="none" d="M 192.37149 397.426605 L 208.29187 397.426605 L 208.29187 359.615662 L 242.122711 359.615662 L 242.122711 345.685303 L 208.29187 345.685303 L 208.29187 307.874359 L 192.37149 307.874359 L 192.37149 345.685303 L 159.203979 345.685303 L 159.203979 359.615662 L 192.37149 359.615662 Z"/>
    <path id="path4" fill="#eb9129" stroke="none" d="M 88.22554 163.927429 L 105.472633 163.927429 L 105.472633 110.196106 L 155.223877 110.196106 L 155.223877 94.939056 L 105.472633 94.939056 L 105.472633 41.207703 L 88.22554 41.207703 L 88.22554 94.939056 L 38.474297 94.939056 L 38.474297 110.196106 L 88.22554 110.196106 Z"/>
    <path id="path5" fill="#5c6692" stroke="none" d="M 350.248749 243.529419 L 366.169128 243.529419 L 366.169128 206.381836 L 400 206.381836 L 400 191.788132 L 366.169128 191.788132 L 366.169128 154.640533 L 350.248749 154.640533 L 350.248749 191.788132 L 317.081238 191.788132 L 317.081238 206.381836 L 350.248749 206.381836 Z"/>
    <path id="path6" fill="#1f457e" fill-rule="evenodd" stroke="none" d="M 293.864014 355.635559 L 312.437805 355.635559 L 312.437805 302.567566 L 362.189056 302.567566 L 362.189056 285.983826 L 312.437805 285.983826 L 312.437805 232.252457 L 293.864014 232.252457 L 293.864014 285.983826 L 244.776138 285.983826 L 244.776138 302.567566 L 293.864014 302.567566 Z"/>
    <path id="path7" fill="#7199a6" stroke="none" d="M 239.469315 50.494598 L 239.469315 39.217651 L 206.301834 39.217651 L 206.301834 2.733398 L 194.361526 2.733398 L 194.361526 39.217651 L 161.194031 39.217651 L 161.194031 50.494598 L 194.361526 50.494598 L 194.361526 86.978821 L 206.301834 86.978821 L 206.301834 50.494598 Z M 33.167496 240.876022 L 45.1078 240.876022 L 45.1078 204.391785 L 78.275291 204.391785 L 78.275291 193.114822 L 45.1078 193.114822 L 45.1078 157.29393 L 33.167496 157.29393 L 33.167496 193.114822 L -0 193.114822 L -0 205.055115 L 33.167496 204.391785 Z"/>
</svg>
