<?xml version="1.0" encoding="UTF-8"?>
<svg width="400" height="400" viewBox="0 0 400 400" xmlns="http://www.w3.org/2000/svg">
    <g id="Layer2">
        <g id="Layer1-2">
            <g id="Group" opacity="0.4">
                <linearGradient id="linearGradient1" x1="354.227338" y1="199.907914" x2="-3.205755" y2="199.907914" gradientUnits="userSpaceOnUse">
                    <stop offset="1e-05" stop-color="#d53c97" stop-opacity="1"/>
                    <stop offset="0.52" stop-color="#ac1bb5" stop-opacity="1"/>
                    <stop offset="1" stop-color="#8934d9" stop-opacity="1"/>
                </linearGradient>
                <path id="Path" fill="url(#linearGradient1)" stroke="none" d="M 283.919434 199.907913 C 283.919434 156.846039 264.621582 118.227325 234.244598 92.166901 C 232.627335 91.654663 230.992813 91.171234 229.346756 90.733795 C 219.088394 93.468536 209.26976 97.644409 200.184174 103.136688 C 232.989929 122.935242 254.958267 158.889206 254.958267 199.907913 C 254.932755 239.536636 234.148056 276.255463 200.184174 296.673401 C 209.269485 302.167542 219.08815 306.345337 229.346756 309.082031 C 230.992813 308.644592 232.627335 308.155396 234.244598 307.643158 C 264.621582 281.58847 283.919434 242.969788 283.919434 199.907913 Z"/>
                <linearGradient id="linearGradient2" x1="354.227338" y1="90.417266" x2="-3.205755" y2="90.417266" gradientUnits="userSpaceOnUse">
                    <stop offset="1e-05" stop-color="#d53c97" stop-opacity="1"/>
                    <stop offset="0.52" stop-color="#ac1bb5" stop-opacity="1"/>
                    <stop offset="1" stop-color="#8934d9" stop-opacity="1"/>
                </linearGradient>
                <path id="path1" fill="url(#linearGradient2)" stroke="none" d="M 231.873383 90.140991 L 231.833099 90.106476 C 230.99855 90.307922 230.169785 90.509369 229.346756 90.733795 C 230.18129 90.509369 231.033096 90.348206 231.873383 90.140991 Z"/>
                <linearGradient id="linearGradient3" x1="354.227338" y1="199.907914" x2="-3.205755" y2="199.907914" gradientUnits="userSpaceOnUse">
                    <stop offset="1e-05" stop-color="#d53c97" stop-opacity="1"/>
                    <stop offset="0.52" stop-color="#ac1bb5" stop-opacity="1"/>
                    <stop offset="1" stop-color="#8934d9" stop-opacity="1"/>
                </linearGradient>
                <path id="path2" fill="url(#linearGradient3)" stroke="none" d="M 28.961151 199.907913 C 28.961151 149.456116 62.215828 106.60144 107.965462 92.138123 C 126.04644 76.596436 147.759476 65.872559 171.090637 60.961151 C 161.511032 58.955566 151.749893 57.944946 141.962585 57.945313 C 63.683453 57.945313 -0 121.628784 -0 199.907913 C -0 278.187073 63.683453 341.870514 141.962585 341.870514 C 151.750244 341.871887 161.511688 340.859283 171.090637 338.848938 C 147.758804 333.939392 126.045334 323.215302 107.965462 307.671936 C 62.215828 293.208618 28.961151 250.376984 28.961151 199.907913 Z"/>
                <linearGradient id="linearGradient4" x1="354.227338" y1="309.392806" x2="-3.205755" y2="309.392806" gradientUnits="userSpaceOnUse">
                    <stop offset="1e-05" stop-color="#d53c97" stop-opacity="1"/>
                    <stop offset="0.52" stop-color="#ac1bb5" stop-opacity="1"/>
                    <stop offset="1" stop-color="#8934d9" stop-opacity="1"/>
                </linearGradient>
                <path id="path3" fill="url(#linearGradient4)" stroke="none" d="M 229.346756 309.082031 C 230.169785 309.30072 230.99855 309.507904 231.833099 309.709351 C 231.833099 309.709351 231.861862 309.709351 231.873383 309.674805 C 231.033096 309.456116 230.18129 309.306458 229.346756 309.082031 Z"/>
            </g>
            <linearGradient id="linearGradient5" x1="354.227338" y1="199.907914" x2="-3.205755" y2="199.907914" gradientUnits="userSpaceOnUse">
                <stop offset="1e-05" stop-color="#ff3b65" stop-opacity="1"/>
                <stop offset="0.61" stop-color="#f9597c" stop-opacity="1"/>
                <stop offset="1" stop-color="#d53c97" stop-opacity="1"/>
            </linearGradient>
            <path id="path4" fill="url(#linearGradient5)" stroke="none" d="M 342.175568 199.907913 C 342.175568 156.828766 322.86618 118.181305 292.471954 92.138123 C 271.990143 85.683014 250.092346 85.201843 229.346756 90.751068 C 277.576996 103.631653 313.214386 147.683456 313.214386 199.925171 C 313.214386 252.166901 277.576996 296.218689 229.346756 309.082031 C 250.094101 314.627289 271.99292 314.138123 292.471954 307.671936 C 324.014374 280.757111 342.179504 241.372742 342.175568 199.907913 Z"/>
            <linearGradient id="linearGradient6" x1="354.227338" y1="199.907914" x2="-3.205755" y2="199.907914" gradientUnits="userSpaceOnUse">
                <stop offset="1e-05" stop-color="#ff3b65" stop-opacity="1"/>
                <stop offset="0.61" stop-color="#f9597c" stop-opacity="1"/>
                <stop offset="1" stop-color="#d53c97" stop-opacity="1"/>
            </linearGradient>
            <path id="path5" fill="url(#linearGradient6)" stroke="none" d="M 166.221588 307.671936 C 120.471947 293.208618 87.217262 250.376984 87.217262 199.907913 C 87.217262 149.438843 120.471947 106.60144 166.221588 92.138123 C 184.302567 76.596436 206.015594 65.872559 229.346756 60.961151 C 219.767212 58.955261 210.006027 57.944611 200.218704 57.945313 C 121.945328 57.945313 58.256115 121.628784 58.256115 199.907913 C 58.256115 278.187073 121.939568 341.870514 200.218704 341.870514 C 210.006363 341.872192 219.767853 340.859558 229.346756 338.848938 C 206.014923 333.939392 184.301453 323.215302 166.221588 307.671936 Z"/>
            <path id="path6" fill="#383838" stroke="none" d="M 258.474823 57.945313 C 180.201447 57.945313 116.51223 121.628784 116.51223 199.907913 C 116.51223 278.187073 180.195679 341.870514 258.474823 341.870514 C 336.753937 341.870514 400.431641 278.187073 400.431641 199.907913 C 400.431641 121.628784 336.753937 57.945313 258.474823 57.945313 Z M 371.476257 199.907913 C 371.476257 262.21582 320.782715 312.909363 258.474823 312.909363 C 196.166901 312.909363 145.473373 262.21582 145.473373 199.907913 C 145.473373 137.600006 196.166901 86.906464 258.474823 86.906464 C 320.782715 86.906464 371.476257 137.600006 371.476257 199.907913 Z"/>
        </g>
    </g>
</svg>
