<?xml version="1.0" encoding="UTF-8"?>
<!-- Generated by Pixelmator Pro 3.5.9 -->
<svg width="400" height="400" viewBox="0 0 400 400" xmlns="http://www.w3.org/2000/svg">
    <path id="Path" fill="#615eff" fill-rule="evenodd" stroke="none" d="M 139.638947 51.753479 C 181.661331 4.54068 251.248871 -9.309204 308.458038 17.94281 C 384.469025 54.154694 412.197296 146.399033 370.81546 217.555374 L 277.719696 377.450989 C 272.515076 386.386292 263.956421 392.904663 253.914948 395.57666 C 243.876404 398.248657 233.179535 396.854828 224.176025 391.703583 L 336.886169 198.083298 C 366.90976 146.440536 346.826843 79.499817 291.720276 53.143158 C 250.371048 33.368286 199.822601 43.246979 169.277054 77.255493 C 152.42952 95.924988 142.969315 120.028992 142.651978 145.097107 C 142.337631 170.165237 151.186951 194.497894 167.562927 213.578506 C 170.504791 217.003769 173.672043 220.233307 177.040955 223.243378 L 111.242546 336.478424 C 108.669312 340.903046 105.243469 344.785034 101.160149 347.895905 C 97.077126 351.009796 92.416702 353.290314 87.44519 354.615967 C 82.473679 355.938599 77.28833 356.276672 72.185165 355.609406 C 67.082268 354.942169 62.161461 353.284393 57.703598 350.728058 L 129.134842 227.795517 C 118.875084 213.106995 111.50679 196.621277 107.419014 179.210297 L 63.646633 254.69342 C 58.443211 263.628723 49.882164 270.147095 39.843052 272.819092 C 29.803942 275.491089 19.107351 274.09726 10.102051 268.943054 L 123.297966 74.237671 C 128.01088 66.241852 133.482376 58.712799 139.638947 51.753479 Z M 270.287933 113.729187 C 297.550568 129.364685 306.966339 164.13324 291.192352 191.194244 L 182.645905 377.427277 C 177.441315 386.362579 168.879654 392.880951 158.841125 395.552948 C 148.802612 398.224945 138.105743 396.834045 129.099243 391.679871 L 229.887726 218.293777 C 221.803543 216.603378 214.181961 213.190033 207.550934 208.290848 C 200.922836 203.391693 195.442429 197.119492 191.492264 189.913086 C 187.542099 182.703735 185.211136 174.729279 184.665482 166.541336 C 184.119812 158.353302 185.371277 150.144531 188.330948 142.481506 C 191.293564 134.82135 195.893204 127.887817 201.8125 122.16214 C 207.734787 116.437378 214.837387 112.056946 222.627975 109.322937 C 230.42157 106.589264 238.716309 105.567627 246.945801 106.328308 C 255.175323 107.088959 263.137939 109.614166 270.287933 113.729187 Z M 230.807053 148.72998 C 228.941711 150.150513 227.375885 151.923904 226.201523 153.946457 L 226.195587 153.946457 C 224.42514 156.995087 223.603638 160.494492 223.834961 164.002731 C 224.066284 167.514008 225.341476 170.876999 227.497467 173.667603 C 229.656403 176.458252 232.595291 178.54895 235.952362 179.681854 C 239.306427 180.811691 242.921509 180.927353 246.343765 180.016937 C 249.766083 179.106537 252.838409 177.208511 255.172348 174.566193 C 257.509216 171.920898 259.000916 168.646881 259.463562 165.159363 C 259.926178 161.671799 259.33606 158.127945 257.770233 154.97258 C 256.204346 151.817154 253.731049 149.192627 250.661697 147.434021 C 248.627289 146.268539 246.376404 145.509354 244.045456 145.203903 C 241.714523 144.898453 239.344986 145.052673 237.073364 145.657639 C 234.801712 146.262604 232.672409 147.306503 230.807053 148.72998 Z"/>
</svg>
