<?xml version="1.0" encoding="UTF-8"?>
<!-- Generated by Pixelmator Pro 3.5.6 -->
<svg width="400" height="400" viewBox="0 0 400 400" xmlns="http://www.w3.org/2000/svg">
    <g id="Group">
        <path id="Path" fill="#e33921" fill-rule="evenodd" stroke="none" opacity="0.999" d="M 212.857147 52.285706 C 224.725708 67.935455 229.773148 85.649689 228 105.428558 C 224.764572 135.605164 216.288574 164.176559 202.571426 191.142853 C 200.276581 190.432571 197.99086 190.432571 195.714279 191.142853 C 185.031998 168.36113 170.746292 148.075424 152.857147 130.285706 C 146.513153 124.446289 139.275421 120.065155 131.142853 117.142853 C 125.782852 115.465729 120.830856 116.132568 116.285713 119.142853 C 79.145142 82.288574 41.716858 45.71698 4 9.428558 C 2.648869 7.157806 2.934583 5.157806 4.857143 3.428558 C 41.760571 2.611359 78.522285 4.897064 115.14286 10.285706 C 140.561722 13.806915 164.751999 21.235504 187.714279 32.571442 C 197.18515 37.75708 205.566284 44.328522 212.857147 52.285706 Z"/>
    </g>
    <g id="g1">
        <path id="path1" fill="#00c6d3" fill-rule="evenodd" stroke="none" opacity="0.996" d="M 344.857147 214 C 329.266846 224.804001 311.933685 229.470291 292.857147 228 C 273.664001 226.154282 254.997147 221.963425 236.857147 215.428574 C 226.743423 211.322281 216.648575 207.226852 206.571426 203.142853 C 207.84343 200.76915 208.033707 198.293137 207.142853 195.714279 C 224.363419 187.392578 240.363419 177.202286 255.142853 165.142853 C 265.558289 156.637131 273.843994 146.446869 280 134.571442 C 281.789703 130.349152 282.361145 125.968567 281.714294 121.428558 C 281.143433 119.524567 280.286285 117.810272 279.142853 116.285706 C 315.806854 79.335999 352.187988 42.097748 388.285706 4.571442 C 390.960602 2.461853 393.341125 2.747559 395.428558 5.428558 C 395.764587 42.380524 393.288574 79.142303 388 115.714294 C 384.440582 141.386871 376.821136 165.76799 365.142853 188.857147 C 359.877716 198.427994 353.115997 206.809128 344.857147 214 Z"/>
    </g>
    <g id="g2">
        <path id="path2" fill="#fe7456" fill-rule="evenodd" stroke="none" opacity="0.997" d="M 212.857147 52.285706 C 235.125717 73.411407 257.22113 94.744568 279.142853 116.285706 C 280.286285 117.810272 281.143433 119.524567 281.714294 121.428558 C 282.361145 125.968567 281.789703 130.349152 280 134.571442 C 273.843994 146.446869 265.558289 156.637131 255.142853 165.142853 C 240.363419 177.202286 224.363419 187.392578 207.142853 195.714279 C 205.809708 194 204.285721 192.475998 202.571426 191.142853 C 216.288574 164.176559 224.764572 135.605164 228 105.428558 C 229.773148 85.649689 224.725708 67.935455 212.857147 52.285706 Z"/>
    </g>
    <g id="g3">
        <path id="path3" fill="#0fb5fe" fill-rule="evenodd" stroke="none" opacity="0.996" d="M 195.714279 191.142853 C 193.988571 192.298859 192.654861 193.822861 191.714279 195.714279 C 165.668579 183.002289 138.240005 174.716568 109.428574 170.857147 C 88.911995 168.177719 70.245712 172.654282 53.42857 184.285721 C 74.381149 162.571426 95.333138 140.857147 116.285713 119.142853 C 120.830856 116.132568 125.782852 115.465729 131.142853 117.142853 C 139.275421 120.065155 146.513153 124.446289 152.857147 130.285706 C 170.746292 148.075424 185.031998 168.36113 195.714279 191.142853 Z"/>
    </g>
    <g id="g4">
        <path id="path4" fill="#017ced" fill-rule="evenodd" stroke="none" opacity="0.998" d="M 191.714279 195.714279 C 191.203415 198.256577 191.012573 200.732574 191.142853 203.142853 C 169.029709 213.197144 149.31543 226.721146 132 243.714279 C 125.270287 250.883423 120.127434 259.07373 116.571426 268.285706 C 116.190285 271.142853 116.190285 274 116.571426 276.857147 C 117.142281 278.761139 117.999428 280.475433 119.14286 282 C 82.288574 319.140564 45.716972 356.569122 9.428572 394.285706 C 7.4328 395.506287 5.528046 395.410858 3.714286 394 C 2.589011 356.92627 4.779486 319.974304 10.285714 283.142853 C 13.728114 258.151428 20.966228 234.341705 32 211.714279 C 37.537998 201.318863 44.680855 192.17601 53.42857 184.285721 C 70.245712 172.654282 88.911995 168.177719 109.428574 170.857147 C 138.240005 174.716568 165.668579 183.002289 191.714279 195.714279 Z"/>
    </g>
    <g id="g5">
        <path id="path5" fill="#4a4948" fill-rule="evenodd" stroke="none" d="M 202.571426 191.142853 C 204.285721 192.475998 205.809708 194 207.142853 195.714279 C 208.033707 198.293137 207.84343 200.76915 206.571426 203.142853 C 205.413132 204.682281 204.079437 206.015427 202.571426 207.142853 C 200.011993 207.974274 197.535995 207.784012 195.142853 206.571426 C 193.809708 205.428574 192.475998 204.285721 191.142853 203.142853 C 191.012573 200.732574 191.203415 198.256577 191.714279 195.714279 C 192.654861 193.822861 193.988571 192.298859 195.714279 191.142853 C 197.99086 190.432571 200.276581 190.432571 202.571426 191.142853 Z"/>
    </g>
    <g id="g6">
        <path id="path6" fill="#04d559" fill-rule="evenodd" stroke="none" opacity="0.997" d="M 191.142853 203.142853 C 192.475998 204.285721 193.809708 205.428574 195.142853 206.571426 C 189.030289 221.189133 183.410858 236.04628 178.285721 251.142853 C 174.811996 262.942261 172.335434 274.942261 170.857147 287.142853 C 169.117142 302.938843 171.212006 318.176575 177.142853 332.857147 C 179.405151 337.293701 181.976578 341.484589 184.857147 345.428558 C 162.778854 324.493713 140.874283 303.350861 119.14286 282 C 117.999428 280.475433 117.142281 278.761139 116.571426 276.857147 C 116.190285 274 116.190285 271.142853 116.571426 268.285706 C 120.127434 259.07373 125.270287 250.883423 132 243.714279 C 149.31543 226.721146 169.029709 213.197144 191.142853 203.142853 Z"/>
    </g>
    <g id="g7">
        <path id="path7" fill="#11e0ed" fill-rule="evenodd" stroke="none" opacity="0.999" d="M 206.571426 203.142853 C 216.648575 207.226852 226.743423 211.322281 236.857147 215.428574 C 254.997147 221.963425 273.664001 226.154282 292.857147 228 C 311.933685 229.470291 329.266846 224.804001 344.857147 214 C 324.112579 235.887985 303.160004 257.602295 282 279.142853 C 276.596588 282.410858 270.882294 282.886841 264.857147 280.571411 C 252.442856 274.447998 241.871429 265.971985 233.142853 255.142853 C 221.08342 240.363419 210.893143 224.363419 202.571426 207.142853 C 204.079437 206.015427 205.413132 204.682281 206.571426 203.142853 Z"/>
    </g>
    <g id="g8">
        <path id="path8" fill="#00ad46" fill-rule="evenodd" stroke="none" opacity="0.998" d="M 195.142853 206.571426 C 197.535995 207.784012 200.011993 207.974274 202.571426 207.142853 C 210.893143 224.363419 221.08342 240.363419 233.142853 255.142853 C 241.871429 265.971985 252.442856 274.447998 264.857147 280.571411 C 270.882294 282.886841 276.596588 282.410858 282 279.142853 C 319.140564 315.997131 356.569122 352.568573 394.285706 388.857147 C 395.480011 390.92627 395.384552 392.92627 394 394.857147 C 359.231445 395.725128 324.564545 393.820557 290 389.142853 C 269.710297 386.355988 249.900558 381.594269 230.571426 374.857147 C 218.003433 370.194305 206.384567 363.9086 195.714279 356 C 191.807419 352.75943 188.188004 349.235413 184.857147 345.428558 C 181.976578 341.484589 179.405151 337.293701 177.142853 332.857147 C 171.212006 318.176575 169.117142 302.938843 170.857147 287.142853 C 172.335434 274.942261 174.811996 262.942261 178.285721 251.142853 C 183.410858 236.04628 189.030289 221.189133 195.142853 206.571426 Z"/>
    </g>
</svg>
