<?xml version="1.0" encoding="UTF-8"?>
<!-- Generated by Pixelmator Pro 3.5.6 -->
<svg width="400" height="400" viewBox="0 0 400 400" xmlns="http://www.w3.org/2000/svg">
    <path id="Path" fill="#4386fa" stroke="none" d="M 91.591621 361.932098 L 5.452177 212.722794 C 3.190609 208.805588 2 204.362335 2 199.839081 C 2 195.315826 3.190609 190.872574 5.452177 186.955353 L 91.591621 37.746002 C 93.850235 33.834137 97.097206 30.584747 101.007439 28.323486 C 104.917679 26.062256 109.353958 24.868622 113.870697 24.862274 L 286.242798 24.862274 C 290.744202 24.884888 295.160919 26.086182 299.053497 28.346649 C 302.946045 30.607086 306.178589 33.847748 308.428833 37.746002 L 394.568359 186.955353 C 396.830231 190.872574 398.020477 195.315826 398.020477 199.839081 C 398.020477 204.362335 396.830231 208.805588 394.568359 212.722794 L 308.428833 361.932098 C 306.170227 365.84375 302.923248 369.093506 299.013031 371.354431 C 295.102783 373.615814 290.666992 374.809296 286.14978 374.815826 L 113.824188 374.815826 C 109.315346 374.801392 104.888832 373.603729 100.98745 371.342773 C 97.086052 369.081848 93.846046 365.837219 91.591621 361.932098 L 91.591621 361.932098 Z"/>
    <path id="path1" fill="#000000" stroke="none" opacity="0.1" d="M 253.824188 151.792557 C 253.824188 151.792557 277.777679 209.234421 245.126526 241.792572 C 212.475357 274.350708 153.033478 253.513474 153.033478 253.513474 C 153.033478 253.513474 241.405579 343.04837 273.963715 374.769318 L 286.242798 374.769318 C 290.759552 374.763245 295.195831 373.569305 299.106049 371.30838 C 303.016266 369.046967 306.263275 365.797668 308.521851 361.885559 L 365.545135 263.141418 L 253.824188 151.792557 Z"/>
    <path id="path2" fill="#ffffff" stroke="none" d="M 282.103729 269.326538 L 255.638596 242.861389 C 255.351624 242.566498 255.022324 242.315353 254.661865 242.117203 C 265.860474 227.627441 271.112549 209.412567 269.348389 191.184189 C 267.58371 172.956284 258.935364 156.086975 245.165115 144.013947 C 231.39534 131.940948 213.539993 125.572571 195.237671 126.20697 C 176.935349 126.840912 159.563736 134.429749 146.662323 147.426987 C 133.761398 160.424179 126.301399 177.851624 125.802788 196.158142 C 125.304192 214.464661 131.804657 232.272095 143.979065 245.95256 C 156.153961 259.632568 173.086975 268.155823 191.327438 269.785095 C 209.567917 271.414856 227.743256 266.027466 242.150238 254.721863 C 242.337677 255.063263 242.572556 255.37674 242.8479 255.652084 L 269.313019 282.117218 C 269.697205 282.502777 270.153961 282.80835 270.656738 283.016724 C 271.159546 283.225586 271.698608 283.333008 272.243256 283.333008 C 272.787445 283.333008 273.326508 283.225586 273.829285 283.016724 C 274.332092 282.80835 274.788849 282.502777 275.173492 282.117218 L 282.103729 275.186981 C 282.488831 274.802795 282.794434 274.346039 283.003265 273.843262 C 283.211609 273.339996 283.319061 272.801392 283.319061 272.256744 C 283.319061 271.712585 283.211609 271.173492 283.003265 270.670715 C 282.794434 270.167908 282.488831 269.711182 282.103729 269.326538 Z M 197.778137 252.210236 C 187.070236 252.210236 176.602798 249.034882 167.699539 243.086044 C 158.79628 237.137222 151.857208 228.681854 147.759537 218.789307 C 143.661865 208.896286 142.589767 198.010696 144.678604 187.508835 C 146.767899 177.006516 151.924179 167.360001 159.495804 159.788376 C 167.066971 152.216751 176.713943 147.060471 187.215805 144.971634 C 197.71814 142.882782 208.603714 143.954895 218.496277 148.052551 C 228.38884 152.150238 236.84465 159.08931 242.793488 167.992569 C 248.742325 176.895813 251.917679 187.362793 251.917679 198.070709 C 251.917679 205.180466 250.517197 212.220459 247.79628 218.789307 C 245.075806 225.357681 241.087906 231.32605 236.060471 236.353012 C 231.03302 241.380478 225.064651 245.368378 218.496277 248.089294 C 211.927902 250.809769 204.887909 252.210236 197.778137 252.210236 L 197.778137 252.210236 Z"/>
    <path id="path3" fill="#ffffff" stroke="none" d="M 163.173492 195.186966 L 163.173492 217.559067 C 166.620941 223.643723 171.609756 228.713013 177.638596 232.256744 L 177.638596 195.04744 L 163.173492 195.186966 Z"/>
    <path id="path4" fill="#ffffff" stroke="none" d="M 163.173492 195.186966 L 163.173492 217.559067 C 166.620941 223.643723 171.609756 228.713013 177.638596 232.256744 L 177.638596 195.04744 L 163.173492 195.186966 Z"/>
    <path id="path5" fill="#ffffff" stroke="none" d="M 190.242783 176.629303 L 190.242783 237.094421 C 195.024185 237.975342 199.926514 237.975342 204.707901 237.094421 L 204.707901 176.629303 L 190.242783 176.629303 Z"/>
    <path id="path6" fill="#ffffff" stroke="none" d="M 190.242783 176.629303 L 190.242783 237.094421 C 195.024185 237.975342 199.926514 237.975342 204.707901 237.094421 L 204.707901 176.629303 L 190.242783 176.629303 Z"/>
    <path id="path7" fill="#ffffff" stroke="none" d="M 232.103729 217.512573 L 232.103729 204.256744 L 217.638611 204.256744 L 217.638611 232.163712 C 223.661392 228.633026 228.650238 223.579987 232.103729 217.512573 L 232.103729 217.512573 Z"/>
    <path id="path8" fill="#ffffff" stroke="none" d="M 232.103729 217.512573 L 232.103729 204.256744 L 217.638611 204.256744 L 217.638611 232.163712 C 223.661392 228.633026 228.650238 223.579987 232.103729 217.512573 L 232.103729 217.512573 Z"/>
</svg>
