<?xml version="1.0" encoding="UTF-8"?>
<svg width="400" height="400" viewBox="0 0 400 400" xmlns="http://www.w3.org/2000/svg">
    <path id="Path" fill="#135594" stroke="none" d="M 59.399998 340.160004 C 78.173332 358.880005 102.799995 369.52002 129.146667 370.680023 C 147.880005 387.720001 172.693344 398.213348 199.986679 398.213348 C 226.506668 398.213348 251.466675 388.399994 270.906647 370.666656 C 297.23999 369.493317 321.839996 358.853363 340.58667 340.160004 C 359.359985 321.440002 370.040009 296.893341 371.199982 270.626648 C 388.293335 251.960007 398.82666 227.213333 398.82666 200 C 398.82666 173.559998 388.986664 148.693314 371.199982 129.306671 C 370.026642 103.066681 359.34668 78.533325 340.58667 59.839996 C 321.813324 41.119995 297.186676 30.47998 270.82666 29.319977 C 252.119995 12.279999 227.293335 1.786652 200 1.786652 C 173.479996 1.786652 148.520004 11.600006 129.093338 29.333344 C 102.760002 30.506683 78.159996 41.146637 59.413334 59.839996 C 40.639999 78.559998 29.959999 103.106659 28.800001 129.373322 C 11.693334 148.039993 1.16 172.786667 1.16 200 C 1.16 227.213333 11 251.306656 28.786667 270.693359 C 29.959999 296.933319 40.639999 321.466675 59.399998 340.160004 Z M 24.666666 200 C 24.666666 160.720016 52.679996 127.839996 89.839996 120.160004 C 89.893333 120.160004 89.959999 120.133331 90.013336 120.119995 C 92.293335 119.65332 94.640007 119.333344 96.986664 119.053345 C 97.386665 119.013336 97.773338 118.920013 98.173332 118.880005 C 100.893333 118.600006 103.666664 118.466675 106.466667 118.466675 C 109.040001 118.466675 111.58667 118.613312 114.09333 118.853333 C 114.880005 118.920013 115.653328 119.040009 116.426666 119.133331 C 118.173332 119.34668 119.90667 119.600006 121.613335 119.920013 C 122.466667 120.079987 123.306671 120.253326 124.146667 120.440002 C 125.853333 120.813324 127.546669 121.253326 129.213333 121.746674 C 129.919998 121.946655 130.639999 122.133331 131.333328 122.359985 C 133.653336 123.093353 135.933334 123.920013 138.146667 124.853333 C 138.426666 124.973358 138.693329 125.119995 138.973343 125.23999 C 140.906662 126.079987 142.813339 127 144.666672 127.986664 C 145.373337 128.359985 146.053329 128.76001 146.746658 129.160004 C 148.906158 130.386505 151.010422 131.707794 153.053329 133.119995 C 154.46666 134.106659 155.853333 135.146667 157.199997 136.213348 C 157.733337 136.640015 158.293335 137.040009 158.813339 137.480011 C 160.626663 139 162.386673 140.58667 164.066666 142.23999 C 164.400009 142.573334 164.720001 142.946655 165.053329 143.279999 C 166.386673 144.65332 167.680008 146.053345 168.919998 147.520004 C 169.440002 148.146667 169.946671 148.786667 170.453323 149.41333 C 171.466675 150.680008 172.440002 151.986649 173.386658 153.319992 C 173.866653 154 174.346664 154.666672 174.800003 155.359985 C 175.786667 156.853333 176.706665 158.386673 177.599991 159.946655 C 177.906662 160.479996 178.23999 161 178.533325 161.546677 C 179.666672 163.65332 180.706665 165.800003 181.653336 168 C 181.880005 168.533325 182.066666 169.080002 182.280014 169.599991 C 182.786667 170.866653 183.23999 172.146667 183.693344 173.440002 C 183.679993 173.440002 183.653336 173.426682 183.639999 173.41333 C 180.17334 171.559998 176.599991 169.933334 172.960007 168.479996 C 171.880005 168.053345 170.773331 167.706665 169.680008 167.306686 C 167.039993 166.359985 164.373337 165.493332 161.666672 164.76001 C 157.670776 163.682205 153.614853 162.840759 149.520004 162.23999 C 148.293335 162.053345 147.093338 161.840012 145.853333 161.706665 C 141.893326 161.266663 137.893326 160.973343 133.853333 160.973343 C 112.760002 160.973343 92.613335 167.106674 75.466667 178.546677 C 69.692818 182.401291 64.31144 186.813553 59.399998 191.719986 C 56.533337 194.573318 53.919998 197.599991 51.426666 200.706665 C 50.653336 201.666672 49.960003 202.679993 49.226665 203.666672 C 47.565639 205.894028 45.991135 208.184616 44.506668 210.533325 C 43.786667 211.679993 43.080002 212.840012 42.399998 214.026672 C 41 216.466675 39.733334 218.946671 38.546665 221.479996 C 38.053333 222.533325 37.506664 223.559998 37.053333 224.639999 C 35.52 228.226669 34.146667 231.866653 33.013332 235.599991 C 32.986668 235.679993 32.959999 235.746658 32.933334 235.82666 C 27.519999 224.813339 24.666666 212.626663 24.666666 200 Z M 76.013329 76.399994 C 91.959999 60.506683 112.90667 52.559967 133.853333 52.559967 C 149.493332 52.559967 165.119995 57 178.666672 65.853333 C 178.733337 65.906647 178.813339 65.933319 178.880005 65.986664 C 180.786667 67.23999 182.639999 68.639984 184.453323 70.066681 C 184.800003 70.346649 185.186661 70.573334 185.533325 70.866669 C 187.653336 72.58667 189.706665 74.440002 191.679993 76.41333 C 193.440002 78.17334 195.093338 80.013336 196.679993 81.906647 C 197.253342 82.58667 197.773331 83.293335 198.306656 83.973328 C 199.253342 85.186676 200.186661 86.41333 201.066666 87.666656 C 201.693344 88.573334 202.293335 89.480011 202.880005 90.399994 C 203.559998 91.466675 204.199997 92.559998 204.840012 93.65332 C 205.453323 94.720001 206.066666 95.773346 206.626663 96.866669 C 207.093338 97.786652 207.506668 98.720001 207.946671 99.65332 C 209.228561 102.393738 210.359146 105.202393 211.333328 108.066681 C 211.453323 108.426666 211.599991 108.773346 211.719986 109.146667 C 212.186661 110.600006 212.573318 112.079987 212.946671 113.559998 C 213.146667 114.359985 213.360001 115.146667 213.546677 115.946655 C 213.866653 117.373322 214.146667 118.800018 214.400009 120.226654 C 214.559998 121.146667 214.679993 122.066681 214.813339 122.986664 C 215 124.373322 215.199997 125.746674 215.306656 127.146667 C 215.41333 128.359985 215.440002 129.58667 215.479996 130.813324 C 215.559998 132.946655 215.573318 135.079987 215.479996 137.213348 C 215.440002 138.333344 215.400009 139.440002 215.320007 140.559998 C 215.213333 141.920013 215.053329 143.279999 214.880005 144.626663 C 214.76001 145.573318 214.613342 146.506668 214.466675 147.453323 C 214.226669 148.880005 213.986679 150.293335 213.679993 151.706665 C 213.520004 152.453323 213.306656 153.17334 213.133347 153.906662 C 212.386658 156.880005 211.479996 159.813339 210.400009 162.706665 C 210.213333 163.213333 210.053329 163.746658 209.853333 164.253342 C 209.346664 165.520004 208.76001 166.76001 208.199997 168 C 207.919998 168.613327 207.626663 169.226669 207.333328 169.840012 C 207.280014 169.666672 207.213333 169.506668 207.159988 169.333328 C 206.906662 168.520004 206.599991 167.733337 206.333328 166.933334 C 205.599991 164.733337 204.813339 162.546677 203.933334 160.41333 C 203.506668 159.359985 203.026672 158.333328 202.573318 157.306686 C 201.733337 155.440002 200.840012 153.58667 199.893326 151.773331 C 199.360001 150.746658 198.82666 149.733337 198.253342 148.733337 C 197.196121 146.883133 196.084534 145.064575 194.919998 143.279999 C 194.373337 142.440002 193.866653 141.58667 193.293335 140.76001 C 191.555176 138.216522 189.704468 135.751862 187.746658 133.373322 C 187.573318 133.160004 187.386658 132.973358 187.213333 132.773346 C 185.386658 130.600006 183.479996 128.519989 181.493332 126.506683 C 180.76001 125.773346 180 125.079987 179.253342 124.359985 C 177.751282 122.911469 176.203857 121.510773 174.613342 120.160004 C 173.733337 119.41333 172.840012 118.693329 171.933334 117.973358 C 170.333328 116.706665 168.706665 115.493317 167.039993 114.319977 C 166.133331 113.680023 165.240005 113.040009 164.306671 112.426666 C 162.333328 111.133331 160.306671 109.920013 158.253342 108.76001 C 157.58667 108.386688 156.946671 107.973358 156.279999 107.613312 C 153.530075 106.134003 150.713791 104.781464 147.839996 103.559998 C 147.106674 103.23999 146.346664 102.986664 145.599991 102.693329 C 143.41333 101.813324 141.186661 100.986664 138.933334 100.253326 C 137.866669 99.906647 136.786667 99.613312 135.706665 99.293335 C 133.680008 98.706665 131.626663 98.17334 129.546677 97.706665 C 128.41333 97.453339 127.266663 97.199982 126.119995 96.986664 C 123.933327 96.573334 121.720001 96.253326 119.49334 95.973358 C 118.466667 95.839996 117.440002 95.680023 116.400002 95.58667 C 113.133331 95.279999 109.839996 95.079987 106.49334 95.079987 C 102.426666 95.079987 98.426666 95.359985 94.466667 95.813324 C 93.053337 95.973358 91.666664 96.23999 90.266663 96.453339 C 87.773338 96.839996 85.306664 97.279999 82.879997 97.839996 C 81.186668 98.226654 79.519997 98.666656 77.853333 99.133331 C 75.786667 99.720001 73.773338 100.373322 71.760002 101.079987 C 69.986671 101.693329 68.213333 102.293335 66.480003 103.013336 C 64.586662 103.800018 62.74667 104.693329 60.906666 105.58667 C 59.440002 106.293335 57.919998 106.853333 56.493332 107.626678 C 60.48 96.026642 67.106667 85.399994 76.053337 76.466675 Z M 200 25.213348 C 239.440002 25.213348 272.453339 53.186676 280.119995 90.279999 C 280.119995 90.293335 280.119995 90.319977 280.133331 90.333344 C 280.613342 92.640015 280.933319 94.986664 281.213348 97.359985 C 281.253326 97.733337 281.346649 98.093353 281.373322 98.466675 C 281.653351 101.186676 281.800018 103.946655 281.800018 106.733337 C 281.800018 109.306671 281.653351 111.82666 281.41333 114.34668 C 281.346649 115.119995 281.226654 115.893341 281.133331 116.65332 C 280.920013 118.399994 280.653351 120.133331 280.333344 121.853333 C 279.857483 124.421204 279.247772 126.962433 278.506683 129.466675 C 278.306671 130.146667 278.133331 130.839996 277.920013 131.506683 C 277.183624 133.823517 276.342743 136.105865 275.399994 138.34668 C 275.306671 138.559998 275.199982 138.773346 275.093353 138.986664 C 274.226654 140.986664 273.266663 142.946655 272.23999 144.866653 C 271.893341 145.533325 271.506683 146.17334 271.133331 146.813339 C 270.297943 148.291626 269.413025 149.741333 268.480011 151.159988 C 268.053314 151.82666 267.613342 152.479996 267.160004 153.133347 C 266.133331 154.613327 265.040009 156.039993 263.920013 157.453323 C 263.533325 157.933334 263.17334 158.426682 262.786652 158.893326 C 261.242798 160.732712 259.623627 162.507553 257.933319 164.213333 C 257.666656 164.479996 257.373322 164.720016 257.106659 164.986649 C 255.666672 166.400009 254.17334 167.746658 252.626663 169.053345 C 252.053329 169.533325 251.466675 170 250.866653 170.466675 C 249.533325 171.520004 248.17334 172.546677 246.773331 173.520004 C 246.133347 173.960007 245.506668 174.400009 244.866653 174.82666 C 243.306656 175.853333 241.693344 176.82666 240.053329 177.746658 C 239.573318 178.013321 239.119995 178.306656 238.639999 178.559998 C 236.506668 179.706665 234.320007 180.76001 232.080002 181.719986 C 231.613342 181.919998 231.133347 182.080002 230.666672 182.266663 C 229.346664 182.800003 228 183.266663 226.653336 183.733337 C 226.653336 183.706665 226.666672 183.693344 226.679993 183.666672 C 228.546677 180.213333 230.159988 176.653336 231.613342 173.026672 C 232.039993 171.973328 232.373337 170.880005 232.773331 169.813339 C 233.733337 167.159988 234.613342 164.479996 235.360001 161.746658 C 235.706665 160.466675 236.026672 159.17334 236.333328 157.880005 C 236.973328 155.146667 237.479996 152.386673 237.893326 149.58667 C 238.066666 148.400009 238.280014 147.23999 238.41333 146.053345 C 238.866653 142.093353 239.159988 138.093353 239.159988 134.053345 C 239.159988 109.519989 230.773331 86.266663 215.346664 67.559998 C 213.146667 64.893341 210.800003 62.306671 208.306656 59.82666 C 205.440002 56.973358 202.400009 54.34668 199.280014 51.866669 C 198.333328 51.106689 197.346664 50.426666 196.373337 49.720001 C 194.10881 48.040863 191.778061 46.452911 189.386658 44.959991 C 188.266663 44.253326 187.133347 43.573334 185.986679 42.920013 C 183.498367 41.502563 180.949265 40.194672 178.346664 39 C 177.333328 38.533325 176.360001 38.013336 175.333328 37.573334 C 171.715378 36.013062 168.011612 34.65976 164.240005 33.52002 C 164.173325 33.506683 164.119995 33.466675 164.066666 33.453339 C 175.106674 28.06665 187.333328 25.213348 200 25.213348 Z M 334.693329 178.533325 C 334.600006 178.679993 334.519989 178.82666 334.426666 178.960007 C 333.199982 180.813339 331.82666 182.599991 330.440002 184.373337 C 330.133331 184.773331 329.866669 185.186661 329.546661 185.573318 C 327.813324 187.679993 325.973328 189.733337 323.986664 191.706665 C 322.226654 193.466675 320.373322 195.106674 318.480011 196.693344 C 317.800018 197.253342 317.106659 197.773331 316.41333 198.306656 C 315.186676 199.266663 313.946686 200.199997 312.666656 201.080002 C 311.773346 201.693344 310.880005 202.280014 309.973328 202.866653 C 308.880005 203.559998 307.773346 204.213333 306.639984 204.853333 C 305.58667 205.453323 304.546661 206.053329 303.480011 206.599991 C 302.506683 207.093338 301.519989 207.533325 300.533325 207.986679 C 297.986664 209.159988 295.386658 210.213333 292.76001 211.106674 C 292.199982 211.293335 291.666656 211.520004 291.106659 211.693344 C 289.704376 212.12323 288.290497 212.514511 286.866669 212.866653 C 286 213.093338 285.133331 213.320007 284.253326 213.520004 C 282.880005 213.82666 281.506683 214.093338 280.133331 214.333328 C 279.119995 214.506668 278.106659 214.639999 277.093353 214.786667 C 275.786652 214.960007 274.480011 215.146667 273.17334 215.253342 C 271.626678 215.386658 270.053314 215.440002 268.480011 215.479996 C 266.746674 215.533325 265.013336 215.520004 263.279999 215.453323 C 262.040009 215.41333 260.800018 215.373337 259.573334 215.266663 C 258.266663 215.159988 256.973328 215.013321 255.679993 214.840012 C 254.666672 214.706665 253.639999 214.559998 252.639999 214.386658 C 251.266663 214.159988 249.893326 213.919998 248.533325 213.626663 C 247.706665 213.453323 246.893326 213.226669 246.080002 213.013321 C 243.226669 212.293335 240.400009 211.426682 237.613342 210.400009 C 237.039993 210.186661 236.453323 210.013321 235.880005 209.786667 C 234.613342 209.280014 233.360001 208.693344 232.106674 208.133347 C 231.493332 207.853333 230.880005 207.559998 230.280014 207.266663 C 230.453323 207.213333 230.626663 207.146667 230.800003 207.093338 C 231.58667 206.853333 232.346664 206.546677 233.133347 206.293335 C 235.373337 205.546677 237.599991 204.76001 239.773331 203.866653 C 240.786667 203.453323 241.786667 203 242.786667 202.546677 C 244.706665 201.693344 246.599991 200.786667 248.466675 199.813339 C 249.453323 199.306656 250.440002 198.786667 251.400009 198.23999 C 253.320007 197.159988 255.186661 196.013321 257.040009 194.82666 C 257.82666 194.320007 258.639984 193.840012 259.41333 193.306656 C 261.986664 191.546677 264.493317 189.693344 266.906647 187.719986 C 267 187.639999 267.079987 187.559998 267.17334 187.479996 C 269.480011 185.573318 271.679993 183.559998 273.800018 181.466675 C 274.493317 180.786667 275.146667 180.066666 275.813324 179.373337 C 277.315002 177.827072 278.769012 176.235214 280.17334 174.599991 C 280.893341 173.76001 281.58667 172.906662 282.266663 172.053329 C 283.573334 170.41333 284.82666 168.746658 286.040009 167.026657 C 286.653351 166.159988 287.279999 165.306686 287.866669 164.41333 C 289.199982 162.400009 290.453339 160.319992 291.639984 158.213333 C 291.986664 157.599991 292.373322 157.013351 292.706665 156.386673 C 294.186676 153.640015 295.559998 150.82666 296.800018 147.933334 C 297.106659 147.226669 297.346649 146.493332 297.639984 145.786667 C 298.533325 143.573334 299.373322 141.34668 300.119995 139.053345 C 300.466675 138 300.76001 136.933319 301.066681 135.866669 C 301.653351 133.839996 302.186676 131.786652 302.653351 129.706665 C 302.906647 128.573334 303.160004 127.440002 303.373322 126.293335 C 303.786652 124.106659 304.106659 121.906647 304.386658 119.680023 C 304.519989 118.65332 304.679993 117.640015 304.773346 116.600006 C 305.079987 113.34668 305.279999 110.053345 305.279999 106.720001 C 305.279999 102.666656 304.986664 98.680023 304.546661 94.733337 C 304.386658 93.319977 304.119995 91.933319 303.906647 90.533325 C 303.519989 88.053345 303.079987 85.600006 302.533325 83.186676 C 301.662262 79.439789 300.580536 75.745026 299.293335 72.119995 C 298.666656 70.333344 298.053314 68.546661 297.333344 66.800018 C 296.573334 64.959991 295.693329 63.199982 294.82666 61.41333 C 294.106659 59.906647 293.506683 58.333344 292.720001 56.866669 C 304.360016 60.839996 315.026672 67.440002 323.973328 76.373322 C 351.76001 104.079987 355.319977 146.906662 334.679993 178.506668 Z M 375.34668 200 C 375.34668 239.226669 347.399994 272.066681 310.320007 279.800018 L 310 279.880005 C 307.746674 280.346649 305.440002 280.653351 303.119995 280.933319 C 302.693329 280.986664 302.279999 281.079987 301.853333 281.119995 C 299.133331 281.399994 296.360016 281.533325 293.573334 281.533325 C 291 281.533325 288.453339 281.386658 285.946686 281.146667 C 285.160004 281.079987 284.386658 280.959991 283.613342 280.866669 C 281.866669 280.653351 280.133331 280.399994 278.426666 280.079987 C 277.573334 279.920013 276.733337 279.746674 275.893341 279.559998 C 274.184845 279.185699 272.490387 278.749847 270.813324 278.253326 C 270.106659 278.053314 269.386658 277.866669 268.693329 277.639984 C 266.373322 276.906647 264.093353 276.079987 261.880005 275.146667 C 261.600006 275.026672 261.333344 274.880005 261.040009 274.76001 C 259.106659 273.920013 257.199982 273 255.346664 272.026672 C 254.639999 271.65332 253.946671 271.23999 253.23999 270.840027 C 251.813339 270.026672 250.41333 269.186646 249.053329 268.293335 C 248.346664 267.82666 247.639999 267.359985 246.933334 266.880005 C 245.520004 265.906677 244.159988 264.866638 242.813339 263.813354 C 242.266663 263.386658 241.706665 262.973328 241.17334 262.533325 C 239.357971 261.028625 237.609619 259.444885 235.933334 257.786682 C 235.573318 257.426697 235.253342 257.053345 234.893326 256.679993 C 233.58667 255.333328 232.306656 253.946671 231.093338 252.506668 C 230.559998 251.866653 230.039993 251.213333 229.533325 250.573318 C 228.533325 249.320007 227.573318 248.039993 226.639999 246.719986 C 226.146667 246.026672 225.666672 245.333328 225.199997 244.626663 C 224.226669 243.146667 223.320007 241.639999 222.440002 240.106674 C 222.119995 239.546677 221.773331 239.013321 221.479996 238.453323 C 220.346664 236.360001 219.306656 234.213333 218.360001 232.013321 C 218.133347 231.479996 217.946671 230.933334 217.719986 230.386658 C 217.213333 229.133347 216.76001 227.840012 216.306656 226.559998 C 216.320007 226.559998 216.346664 226.573318 216.360001 226.58667 C 219.82666 228.440002 223.386658 230.066666 227.039993 231.506668 C 228.119995 231.933334 229.226669 232.280014 230.320007 232.679993 C 232.960007 233.626663 235.613342 234.493332 238.320007 235.226669 C 242.315323 236.303467 246.37146 237.140518 250.466675 237.733337 C 251.693344 237.919998 252.906662 238.133347 254.146667 238.280014 C 258.106659 238.719986 262.106659 239.013321 266.146667 239.013321 C 294.279999 239.013321 320.720001 228.093338 340.600006 208.266663 C 343.466675 205.41333 346.093353 202.386658 348.573334 199.266663 C 349.333344 198.306656 350.026642 197.320007 350.76001 196.333328 C 352.437531 194.093506 354.021118 191.784851 355.506683 189.41333 C 356.213348 188.280014 356.906647 187.146667 357.573334 185.986679 C 359 183.506668 360.293335 180.973328 361.506683 178.386658 C 361.973358 177.386658 362.493317 176.400009 362.93335 175.386658 C 364.501587 171.779465 365.859467 168.084366 367 164.319992 C 367.013336 164.266663 367.040009 164.199997 367.06665 164.146667 C 372.47998 175.17334 375.34668 187.360001 375.34668 199.973328 Z M 323.986664 323.600006 C 296.160004 351.34668 253.093338 354.853363 221.386658 334.186676 L 221.106674 334.026672 C 219.199997 332.773346 217.360001 331.373322 215.533325 329.946686 C 215.186661 329.666656 214.800003 329.440002 214.453323 329.146667 C 212.309891 327.405304 210.258255 325.553925 208.306656 323.600006 C 206.479996 321.786652 204.800003 319.880005 203.186661 317.946686 C 202.693344 317.346649 202.226669 316.720001 201.746658 316.119995 C 200.653336 314.733337 199.613342 313.320007 198.626663 311.880005 C 198.146667 311.17334 197.679993 310.466675 197.213333 309.76001 C 196.266663 308.266663 195.373337 306.746674 194.520004 305.213348 C 194.17334 304.58667 193.800003 303.973328 193.479996 303.333344 C 192.360001 301.160004 191.320007 298.959991 190.41333 296.733337 C 190.320007 296.519989 190.266663 296.293335 190.17334 296.079987 C 189.360001 294.040009 188.653336 291.986664 188.013321 289.906647 C 187.786667 289.17334 187.599991 288.440002 187.400009 287.720001 C 186.946671 286.093353 186.546677 284.466675 186.199997 282.82666 C 186.039993 282.040009 185.866653 281.23999 185.733337 280.453339 C 185.426682 278.720001 185.17334 276.973328 184.973328 275.226654 C 184.906662 274.58667 184.800003 273.946686 184.746658 273.306671 C 184.533325 270.93335 184.41333 268.546692 184.400009 266.17334 C 184.400009 265.773315 184.440002 265.373352 184.440002 264.986694 C 184.466675 263 184.559998 261 184.719986 259.026672 C 184.786667 258.253357 184.880005 257.493347 184.973328 256.719971 C 185.159988 255.066666 185.400009 253.41333 185.693344 251.773331 C 185.82666 250.986679 185.973328 250.199997 186.133347 249.41333 C 186.506668 247.639999 186.946671 245.866653 187.426682 244.119995 C 187.58667 243.546677 187.719986 242.973328 187.880005 242.400009 C 188.573318 240.106674 189.360001 237.82666 190.266663 235.58667 C 190.466675 235.093338 190.706665 234.626663 190.906662 234.133347 C 191.453323 232.840012 192.080002 231.559998 192.693344 230.280014 C 192.746658 230.453323 192.813339 230.613342 192.866653 230.773331 C 193.106674 231.533325 193.400009 232.266663 193.639999 233.026672 C 194.386658 235.280014 195.199997 237.520004 196.093338 239.706665 C 196.506668 240.719986 196.960007 241.706665 197.41333 242.706665 C 198.280014 244.626663 199.186661 246.506668 200.146667 248.373337 C 200.666672 249.360001 201.186661 250.346664 201.733337 251.306656 C 202.813339 253.213333 203.960007 255.066666 205.146667 256.893311 C 205.666672 257.693359 206.159988 258.506653 206.693344 259.293335 C 208.453323 261.853333 210.306656 264.34668 212.280014 266.733337 C 212.386658 266.853333 212.493332 266.960022 212.599991 267.080017 C 214.479996 269.333313 216.479996 271.506653 218.546677 273.600006 C 219.253342 274.320007 220 274.986664 220.733337 275.693329 C 222.266663 277.160004 223.813339 278.573334 225.426682 279.946686 C 226.293335 280.679993 227.186661 281.399994 228.080002 282.106659 C 229.693344 283.386658 231.333328 284.600006 233.013321 285.786652 C 233.906662 286.41333 234.800003 287.053314 235.706665 287.653351 C 237.693344 288.959991 239.733337 290.186676 241.813339 291.360016 C 242.466675 291.733337 243.080002 292.133331 243.746658 292.480011 C 246.493332 293.959991 249.306656 295.306671 252.186661 296.546661 C 252.919998 296.866669 253.679993 297.119995 254.426682 297.41333 C 256.613342 298.293335 258.839996 299.119995 261.093353 299.853333 C 262.160004 300.199982 263.23999 300.493317 264.320007 300.813324 C 266.346649 301.399994 268.399994 301.933319 270.480011 302.399994 C 271.613342 302.653351 272.76001 302.906647 273.906647 303.119995 C 276.093353 303.533325 278.306671 303.853333 280.533325 304.133331 C 281.559998 304.266663 282.58667 304.426666 283.626678 304.519989 C 286.893341 304.82666 290.186676 305.026672 293.533325 305.026672 C 297.600006 305.026672 301.613342 304.733337 305.559998 304.293335 C 306.959991 304.133331 308.333344 303.866669 309.720001 303.653351 C 312.226654 303.266663 314.720001 302.82666 317.160004 302.266663 C 318.839996 301.880005 320.480011 301.453339 322.133331 300.986664 C 324.226654 300.399994 326.293335 299.720001 328.333344 299.013336 C 330.066681 298.41333 331.786652 297.82666 333.493317 297.133331 C 335.519989 296.293335 337.480011 295.333344 339.440002 294.386658 C 340.786652 293.733337 342.199982 293.213348 343.52002 292.506683 C 339.533325 304.119995 332.906647 314.746674 323.959991 323.679993 Z M 200 374.786652 C 160.613327 374.786652 127.640007 346.880005 119.920006 309.853333 C 119.90667 309.786652 119.880005 309.720001 119.866669 309.639984 C 119.400002 307.360016 119.079994 305.040009 118.799995 302.693329 C 118.760002 302.293335 118.666664 301.906647 118.626671 301.506683 C 118.346672 298.786652 118.213341 296.040009 118.213341 293.23999 C 118.213341 290.666656 118.359993 288.146667 118.599998 285.639984 C 118.666664 284.853333 118.786659 284.093353 118.880005 283.320007 C 119.193726 280.736359 119.629768 278.169037 120.186668 275.626678 C 120.573334 273.906647 121.013336 272.213348 121.50666 270.546692 C 121.706665 269.853333 121.893333 269.146667 122.106667 268.453308 C 122.853333 266.133362 123.68 263.853333 124.613335 261.640015 C 124.706665 261.400024 124.839996 261.186646 124.933327 260.946655 C 125.799995 258.960022 126.733337 257.026672 127.746666 255.119995 C 128.106674 254.440002 128.506668 253.773331 128.880005 253.106674 C 129.706665 251.653336 130.573334 250.226669 131.493332 248.82666 C 131.946671 248.146667 132.400009 247.466675 132.866669 246.786667 C 133.866669 245.346664 134.919998 243.960007 136.013336 242.599991 C 136.426666 242.080002 136.813339 241.546677 137.240005 241.039993 C 138.773331 239.213333 140.373337 237.453323 142.053329 235.76001 C 142.346664 235.466675 142.666672 235.199997 142.973343 234.906662 C 144.386673 233.533325 145.839996 232.199997 147.360001 230.933334 C 147.960007 230.426682 148.58667 229.946671 149.199997 229.453323 C 150.493332 228.426682 151.813339 227.440002 153.173325 226.493332 C 153.839996 226.026672 154.506668 225.559998 155.186661 225.106674 C 156.695862 224.119812 158.239029 223.185913 159.813339 222.306656 C 160.346664 222 160.866669 221.679993 161.400009 221.386658 C 163.520004 220.253342 165.680008 219.213333 167.906662 218.253342 C 168.400009 218.039993 168.919998 217.866653 169.426666 217.666672 C 170.733337 217.146667 172.066666 216.679993 173.400009 216.213333 C 173.320007 216.360001 173.253342 216.520004 173.17334 216.679993 C 172.786667 217.400009 172.466675 218.133347 172.106674 218.866653 C 171.039993 220.986679 170.026657 223.119995 169.119995 225.293335 C 168.693329 226.306656 168.319992 227.320007 167.919998 228.333328 C 167.16922 230.290512 166.475586 232.269119 165.839996 234.266663 C 165.506668 235.320007 165.173325 236.386658 164.880005 237.453323 C 164.279999 239.559998 163.786667 241.693344 163.319992 243.82666 C 163.119995 244.746658 162.893326 245.666672 162.720001 246.599991 C 162.146667 249.653336 161.680008 252.733337 161.386673 255.82666 C 161.386673 255.960007 161.386673 256.080017 161.360001 256.213318 C 161.080002 259.17334 160.960007 262.133362 160.933334 265.106689 C 160.933334 266.093323 160.973343 267.06665 161 268.039978 C 161.039993 270.186646 161.133331 272.320007 161.306671 274.453339 C 161.400009 275.559998 161.506668 276.666656 161.639999 277.773346 C 161.880005 279.839996 162.173325 281.893341 162.53334 283.946686 C 162.720001 285 162.880005 286.053314 163.106674 287.106659 C 163.58667 289.453339 164.173325 291.786652 164.813339 294.106659 C 165 294.800018 165.160004 295.506683 165.360001 296.199982 C 166.253342 299.186676 167.293335 302.133331 168.46666 305.053314 C 168.746658 305.76001 169.093338 306.453339 169.400009 307.160004 C 170.333328 309.360016 171.333328 311.519989 172.426682 313.666656 C 172.933334 314.653351 173.479996 315.613342 174.013321 316.58667 C 175.034012 318.44339 176.114609 320.266571 177.253342 322.053314 C 177.880005 323.040009 178.506668 324.013336 179.17334 324.986664 C 180.426682 326.813324 181.76001 328.613342 183.146667 330.373322 C 183.786667 331.186676 184.386658 332.026672 185.053329 332.82666 C 187.15686 335.376648 189.377014 337.828156 191.706665 340.17334 C 194.573318 343.040009 197.613342 345.65332 200.746658 348.133331 C 201.693344 348.880005 202.666672 349.560028 203.626663 350.266693 C 206.953323 352.744629 210.426285 355.019867 214.026672 357.079987 C 216.533325 358.506683 219.106674 359.813324 221.706665 361.026642 C 222.693344 361.493317 223.666672 361.986664 224.666672 362.426666 C 228.293335 363.973358 231.986679 365.359985 235.773331 366.493317 C 235.82666 366.506683 235.880005 366.533325 235.946671 366.560028 C 224.893326 371.946655 212.679993 374.800018 200.013321 374.800018 Z M 76.026665 323.600006 C 48.119999 295.786652 44.639999 252.706665 65.559998 221.066666 C 66.893333 219.053329 68.360001 217.106674 69.879997 215.199997 C 70.080002 214.946671 70.239998 214.679993 70.453331 214.440002 C 72.186668 212.320007 74.040001 210.266663 76.026665 208.293335 C 77.799995 206.533325 79.653336 204.880005 81.546669 203.306656 C 82.200005 202.76001 82.879997 202.253342 83.559998 201.733337 C 84.799995 200.76001 86.066673 199.813339 87.359993 198.919998 C 89.318123 197.575943 91.333336 196.317001 93.400002 195.146667 C 94.426666 194.559998 95.453331 193.973328 96.49334 193.440002 C 97.49334 192.919998 98.519997 192.466675 99.546669 192 C 102.040001 190.853333 104.559998 189.82666 107.133331 188.946671 C 107.720001 188.746658 108.306671 188.506668 108.90667 188.320007 C 110.306671 187.880005 111.720001 187.520004 113.133331 187.146667 C 114 186.919998 114.880005 186.693344 115.760002 186.493332 C 117.133331 186.186661 118.50666 185.919998 119.893333 185.679993 C 120.893333 185.506668 121.893333 185.373337 122.893333 185.23999 C 124.213341 185.066666 125.533333 184.880005 126.853333 184.773331 C 128.319992 184.653336 129.786667 184.599991 131.266663 184.559998 C 133.119995 184.506668 134.960007 184.506668 136.813339 184.573318 C 138.013336 184.613342 139.213333 184.653336 140.400009 184.746658 C 141.720001 184.853333 143.039993 185 144.360001 185.17334 C 145.360001 185.306656 146.346664 185.453323 147.346664 185.613342 C 148.733337 185.840012 150.119995 186.080002 151.506668 186.386658 C 152.293335 186.559998 153.080002 186.773331 153.866669 186.973328 C 156.786667 187.706665 159.680008 188.58667 162.520004 189.639999 C 163.053329 189.840012 163.599991 190 164.133331 190.213333 C 165.41333 190.719986 166.666672 191.306656 167.919998 191.880005 C 168.53334 192.159988 169.133331 192.440002 169.746658 192.746658 C 169.573334 192.800003 169.400009 192.866653 169.226669 192.933334 C 168.440002 193.17334 167.680008 193.479996 166.893326 193.733337 C 164.653336 194.479996 162.440002 195.266663 160.266663 196.159988 C 159.240005 196.573318 158.240005 197.039993 157.226669 197.479996 C 155.319931 198.330154 153.439087 199.237228 151.58667 200.199997 C 150.58667 200.719986 149.599991 201.23999 148.613327 201.786667 C 146.706665 202.853333 144.853333 204 143.026657 205.17334 C 142.226669 205.693344 141.400009 206.186661 140.599991 206.719986 C 138.035736 208.469894 135.544724 210.324814 133.133331 212.280014 L 132.733337 212.639999 C 130.479996 214.506668 128.319992 216.479996 126.239998 218.520004 C 125.519997 219.226669 124.853333 219.960007 124.160004 220.693344 C 122.693329 222.226669 121.253334 223.773331 119.880005 225.386658 C 117.816406 227.820938 115.859016 230.343307 114.013336 232.946671 C 113.386665 233.840012 112.746666 234.719986 112.133331 235.626663 C 110.813332 237.613342 109.58667 239.653336 108.41333 241.719986 C 108.053337 242.360001 107.640007 242.986679 107.293335 243.639999 C 105.808044 246.386475 104.446678 249.198196 103.213341 252.066666 C 102.90667 252.800003 102.653328 253.546677 102.346672 254.280014 C 101.466667 256.466675 100.626671 258.679993 99.893333 260.946655 C 99.546669 262 99.253334 263.080017 98.933327 264.146667 C 98.346672 266.17334 97.813332 268.213318 97.346672 270.293335 C 97.09333 271.426697 96.839996 272.559998 96.626671 273.706665 C 96.213341 275.880005 95.893333 278.093353 95.613335 280.320007 C 95.480003 281.346649 95.32 282.360016 95.226662 283.399994 C 94.920006 286.653351 94.720001 289.946686 94.720001 293.279999 C 94.720001 297.333344 95.013336 301.320007 95.453331 305.266663 C 95.613335 306.666656 95.880005 308.040009 96.09333 309.440002 C 96.480003 311.933319 96.920006 314.399994 97.480003 316.839996 C 97.866669 318.519989 98.306671 320.17334 98.773338 321.82666 C 99.359993 323.906647 100.026665 325.933319 100.733337 327.959991 C 101.346672 329.706665 101.946663 331.453339 102.653328 333.17334 C 103.453331 335.106659 104.373329 336.973328 105.293335 338.839996 C 105.986664 340.266663 106.533333 341.76001 107.293335 343.146637 C 95.653328 339.17334 84.986671 332.573334 76.040001 323.639984 Z"/>
</svg>
