<?xml version="1.0" encoding="UTF-8"?>
<!-- Generated by Pixelmator Pro 3.5.6 -->
<svg width="400" height="400" viewBox="0 0 400 400" xmlns="http://www.w3.org/2000/svg">
    <path id="Path" fill="#ff694a" stroke="none" d="M 383.00177 16.636536 C 392.404877 25.678131 398.553345 37.613007 400 50.632904 C 400 56.05777 398.553345 59.674683 395.298218 66.546234 C 392.043549 73.417755 351.898682 142.85733 339.963989 162.02533 C 333.092438 173.236877 329.475586 186.618668 329.475586 199.638214 C 329.475586 213.020004 333.092438 226.040009 339.963989 237.251556 C 351.898682 256.419556 392.043549 326.220428 395.298218 333.09201 C 398.553345 339.963989 400 343.218658 400 348.643555 C 398.553345 361.663544 392.766663 373.598663 383.363556 382.278687 C 374.321777 391.681793 362.387115 397.830231 349.728912 398.9151 C 344.303986 398.9151 340.687134 397.468445 334.177338 394.213318 C 327.667114 390.958221 256.781342 351.898682 237.612885 339.963989 C 236.166229 339.240448 234.719559 338.155548 232.91156 337.432007 L 138.155548 281.374207 C 140.325333 299.457336 148.282211 316.817322 161.301773 329.475586 C 163.833771 332.007111 166.365341 334.177338 169.258667 336.347107 C 167.08844 337.432007 164.556885 338.517334 162.387115 339.963989 C 143.218674 351.898682 73.41777 392.043549 66.546227 395.298218 C 59.674667 398.553345 56.419556 400 50.632889 400 C 37.613022 398.553345 25.678133 392.766663 16.998178 383.363556 C 7.594934 374.321777 1.446653 362.387115 0 349.367096 C 0.361664 343.94223 1.80832 338.517334 4.701644 333.815552 C 7.956623 326.944 48.101334 257.14267 60.035999 237.97467 C 66.907555 226.763123 70.524445 213.743118 70.524445 200.361786 C 70.524445 186.979996 66.907555 173.959991 60.035999 162.748444 C 48.101334 142.85733 7.594934 73.056 4.701644 66.184448 C 1.80832 61.482666 0.361664 56.05777 0 50.632904 C 1.446653 37.613007 7.233289 25.678131 16.636534 16.636536 C 25.678133 7.233276 37.613022 1.446655 50.632889 0 C 56.057777 0.361664 61.482666 1.80835 66.546227 4.70163 C 72.332893 7.233276 123.32711 36.889679 150.451996 52.803101 L 156.600449 56.419556 C 158.770233 57.866211 160.578659 58.951111 162.02533 59.674683 L 164.918671 61.482666 L 261.482666 118.625763 C 259.312897 96.925781 248.101334 77.034241 230.741333 63.652893 C 232.91156 62.567993 235.443115 61.482666 237.612885 60.036011 C 256.781342 48.101318 326.582245 7.59494 333.453766 4.70163 C 338.155548 1.80835 343.580444 0.361664 349.367096 0 C 362.02536 1.446655 373.960449 7.233276 383.00177 16.636536 Z M 205.06311 225.678223 L 225.678223 205.06311 C 228.571564 202.169785 228.571564 197.830215 225.678223 194.93689 L 205.06311 174.321777 C 202.169785 171.428436 197.830215 171.428436 194.93689 174.321777 L 174.321777 194.93689 C 171.428436 197.830215 171.428436 202.169785 174.321777 205.06311 L 194.93689 225.678223 C 197.468445 228.209778 202.169785 228.209778 205.06311 225.678223 Z"/>
</svg>
