<?xml version="1.0" encoding="UTF-8"?>
<svg width="400" height="400" viewBox="0 0 400 400" xmlns="http://www.w3.org/2000/svg">
    <g id="Group">
        <path id="Rectangle" fill="#01011b" fill-rule="evenodd" stroke="none" d="M 0 400 L 400 400 L 400 0 L 0 0 Z"/>
        <path id="Path" fill="#f5c0c0" fill-rule="evenodd" stroke="none" d="M 95.892105 134.158447 L 95.892105 177.940887 L 84.91851 177.940887 L 84.91851 134.158447 L 41 134.158447 L 41 177.971603 L 41 178.094513 L 41 221.905487 L 41 265.841553 L 84.91851 265.841553 L 84.91851 199.848557 L 95.892105 199.848557 L 95.892105 265.841553 L 139.825989 265.841553 L 139.825989 134.158447 L 95.892105 134.158447 Z M 150.738129 134.158447 L 150.738129 265.841553 L 249.564102 265.841553 L 249.564102 210.923111 L 205.625839 210.923111 L 205.625839 243.62442 L 194.652237 243.62442 L 194.652237 199.848557 L 249.564102 199.848557 L 249.564102 134.158447 L 150.738129 134.158447 Z M 194.652237 177.940887 L 194.652237 156.105621 L 205.625839 156.105621 L 205.625839 177.940887 L 194.652237 177.940887 Z M 315.36615 177.940887 L 315.36615 134.158447 L 359.300049 134.158447 L 359.300049 167.079224 L 337.352875 189.046158 L 359.300049 211.013092 L 359.300049 265.841553 L 315.36615 265.841553 L 315.36615 199.848557 L 304.392578 199.848557 L 304.392578 265.841553 L 260.47406 265.841553 L 260.47406 211.013092 L 282.445374 189.046158 L 260.47406 167.079224 L 260.47406 134.158447 L 304.392578 134.158447 L 304.392578 177.940887 L 315.36615 177.940887 Z"/>
    </g>
</svg>
