<?xml version="1.0" encoding="UTF-8"?>
<svg width="400" height="400" viewBox="0 0 400 400" xmlns="http://www.w3.org/2000/svg">
    <g id="Group">
        <path id="Path" fill="#1a1919" stroke="none" d="M 160.767273 35.585144 C 156.343826 31.144501 150.206833 28.408844 143.36554 28.408844 C 136.541412 28.408844 130.451675 31.144501 126.084061 35.585144 L 125.972397 35.585144 C 121.561844 39.995667 118.82618 46.149841 118.82618 52.948212 C 118.82618 59.785217 121.561844 65.900726 125.972397 70.268311 L 126.084061 70.38855 C 130.451675 74.790497 136.541412 77.487549 143.36554 77.487549 C 150.206833 77.487549 156.343826 74.790497 160.767273 70.38855 L 160.818802 70.268311 C 165.246536 65.900726 167.947845 59.785217 167.947845 52.948212 C 167.947845 46.149841 165.246536 39.995667 160.818802 35.585144 L 160.767273 35.585144 Z M 143.36554 371.508942 C 150.206833 371.508942 156.343826 368.721741 160.767273 364.362701 L 160.818802 364.233887 C 165.246536 359.883453 167.947845 353.729279 167.947845 346.965271 C 167.947845 340.128265 165.246536 334.00415 160.818802 329.572144 L 160.767273 329.572144 C 156.343826 325.088562 150.206833 322.378693 143.36554 322.378693 C 136.541412 322.378693 130.451675 325.088562 126.084061 329.572144 L 125.972397 329.572144 C 121.561844 334.00415 118.82618 340.128265 118.82618 346.965271 C 118.82618 353.729279 121.561844 359.883453 125.972397 364.233887 L 126.084061 364.362701 C 130.451675 368.721741 136.541412 371.508942 143.36554 371.508942 Z M 277.069397 297.156464 C 283.146271 295.558899 288.647644 291.659393 292.010315 285.758606 L 292.461273 284.895386 C 295.450287 279.308105 295.995728 272.84903 294.398102 267.115723 C 292.787659 260.995911 288.845184 255.567535 282.957306 252.187698 L 282.609436 251.955765 C 276.871857 248.803543 270.344055 248.116379 264.34021 249.75264 C 258.237579 251.277237 252.753357 255.33992 249.41217 261.189178 C 246.02803 267.004089 245.3237 273.686462 246.942764 279.836334 C 248.613373 285.887451 252.525742 291.354492 258.379272 294.77298 L 258.413635 294.77298 C 264.28006 298.144257 270.91095 298.749786 277.069397 297.156464 Z M 168.536209 174.811844 C 162.094299 168.387131 153.204483 164.358765 143.36554 164.358765 C 133.53949 164.358765 124.67543 168.387131 118.246407 174.811844 C 111.83886 181.227997 107.887825 190.079163 107.887825 199.918076 C 107.887825 209.757019 111.83886 218.646866 118.246407 225.135971 C 124.67543 231.522079 133.53949 235.511734 143.36554 235.511734 C 153.204483 235.511734 162.094299 231.522079 168.536209 225.135971 C 174.960922 218.646866 178.911972 209.757019 178.911972 199.918076 C 178.911972 190.079163 174.960922 181.227997 168.536209 174.811844 Z M 154.381195 132.986694 C 168.665039 135.340149 181.488724 142.181458 191.293304 152.054733 L 191.366318 152.054733 C 192.925262 153.60936 194.441238 155.322937 195.854172 157.032196 L 220.354889 142.859985 C 217.060928 132.90509 216.906311 122.499298 219.556091 112.737671 C 223.047592 99.669189 231.520844 87.970673 244.224274 80.639801 L 244.636551 80.377838 C 257.202576 73.270264 271.482117 71.788635 284.370239 75.280121 C 297.425812 78.780243 309.20163 87.292114 316.532501 99.974091 L 316.532501 100.012756 C 323.829041 112.626007 325.306396 127.098816 321.827759 140.128632 C 318.353394 153.19281 309.850128 164.9729 297.159546 172.260834 L 293.814056 174.236343 L 293.474792 174.236343 C 281.73764 179.823624 268.832367 180.699738 256.979248 177.577545 C 247.247696 175.000824 238.323502 169.563843 231.331879 161.855042 L 206.86554 175.988556 C 209.678497 183.426804 211.233154 191.444824 211.233154 199.918076 C 211.233154 208.348404 209.678497 216.482376 206.86554 223.95929 L 231.331879 238.054169 C 238.323502 230.225098 247.247696 224.912704 256.979248 222.327347 C 270.039154 218.758499 284.511963 220.274521 297.159546 227.648331 L 297.971222 228.02626 L 297.971222 228.064926 C 310.189392 235.473099 318.392059 246.90535 321.827759 259.819214 C 325.306396 272.771729 323.829041 287.253143 316.532501 299.892151 L 316.090179 300.772522 L 316.038635 300.699524 C 308.712006 312.883301 297.159546 321.137543 284.408875 324.629028 C 271.331818 328.077637 256.854736 326.604553 244.224274 319.338104 L 244.224274 319.239349 C 231.520844 311.895569 223.047592 300.171295 219.556091 287.128601 C 216.906311 277.409882 217.060928 267.004089 220.354889 257.053497 L 195.854172 242.915649 C 194.441238 244.624908 192.925262 246.261139 191.366318 247.815811 L 191.293304 247.893082 C 181.488724 257.732025 168.665039 264.569031 154.381195 266.845154 L 154.381195 295.155212 C 164.559402 297.281006 173.672546 302.370148 180.810181 309.512024 L 180.848831 309.585052 C 190.417206 319.110474 196.343765 332.380798 196.343765 346.965271 C 196.343765 361.506805 190.417206 374.699829 180.848831 384.272491 L 180.810181 384.422821 C 171.173096 393.99118 157.9543 399.917725 143.36554 399.917725 C 128.85408 399.917725 115.600929 393.99118 105.985321 384.422821 L 105.946663 384.422821 L 105.946663 384.272491 C 96.369705 374.699829 90.430267 361.506805 90.430267 346.965271 C 90.430267 332.380798 96.369705 319.110474 105.946663 309.585052 L 105.946663 309.512024 L 105.985321 309.512024 C 113.118652 302.370148 122.248978 297.281006 132.388535 295.155212 L 132.388535 266.845154 C 118.108986 264.569031 105.30677 257.732025 95.519371 247.893082 L 95.416298 247.815811 C 83.193863 235.5504 75.540878 218.646866 75.540878 199.918076 C 75.540878 181.227997 83.193863 164.324417 95.416298 152.054733 L 95.519371 152.054733 C 105.30677 142.181458 118.108986 135.340149 132.388535 132.986694 L 132.388535 104.796936 C 122.248978 102.598083 113.118652 97.508972 105.985321 90.405701 L 105.946663 90.405701 L 105.946663 90.3284 C 96.369705 80.717102 90.430267 67.536926 90.430267 52.948212 C 90.430267 38.436768 96.369705 25.140656 105.946663 15.567993 L 105.985321 15.529297 C 115.600929 5.922302 128.85408 3.1e-05 143.36554 3.1e-05 C 157.9543 3.1e-05 171.173096 5.922302 180.810181 15.529297 L 180.810181 15.567993 L 180.848831 15.567993 C 190.417206 25.140656 196.343765 38.436768 196.343765 52.948212 C 196.343765 67.536926 190.417206 80.717102 180.848831 90.3284 L 180.810181 90.405701 C 173.672546 97.508972 164.559402 102.598083 154.381195 104.796936 L 154.381195 132.986694 Z M 292.010315 114.184937 L 291.799896 113.875702 C 288.424347 108.181091 283.030304 104.384644 277.069397 102.748413 C 270.91095 101.112152 264.28006 101.799286 258.379272 105.183441 L 258.413635 105.183441 C 252.525742 108.524658 248.587616 113.987366 246.942764 120.111481 C 245.3237 126.188354 246.02803 132.90509 249.41217 138.758636 L 249.528107 138.908966 C 252.916565 144.685196 258.31488 148.558945 264.34021 150.117859 C 270.395599 151.831436 277.142395 151.105637 282.957306 147.721481 L 283.270813 147.571167 C 288.995514 144.152664 292.809113 138.758636 294.398102 132.832092 C 296.021484 126.716583 295.372986 120.03418 292.010315 114.184937 Z"/>
    </g>
</svg>
