<?xml version="1.0" encoding="UTF-8"?>
<!-- Generated by Pixelmator Pro 3.5.6 -->
<svg width="400" height="400" viewBox="0 0 400 400" xmlns="http://www.w3.org/2000/svg">
    <path id="Path" fill="#5059c9" stroke="none" d="M 278.929443 153.530884 L 382.289063 153.530884 C 392.054047 153.530884 399.970032 161.446869 399.970032 171.211853 C 399.970032 171.211853 399.970032 171.211853 399.970032 171.211853 L 399.970032 265.358704 C 399.970032 301.247559 370.876465 330.341125 334.98761 330.341125 L 334.98761 330.341125 L 334.68045 330.341125 C 298.791565 330.34613 269.693878 301.256714 269.68869 265.367859 C 269.68869 265.364807 269.68869 265.361755 269.68869 265.358521 L 269.68869 162.771652 C 269.688873 157.66806 273.82605 153.530884 278.929443 153.530884 L 278.929443 153.530884 Z"/>
    <path id="path1" fill="#5059c9" stroke="none" d="M 390.664276 93.043091 C 390.664276 116.170624 371.91568 134.91922 348.788147 134.91922 C 325.660614 134.91922 306.912018 116.170624 306.912018 93.043091 C 306.912018 69.915527 325.660614 51.166962 348.788147 51.166962 C 371.91568 51.166962 390.664276 69.915527 390.664276 93.043091 Z"/>
    <path id="path2" fill="#7b83eb" stroke="none" d="M 278.994629 74.43161 C 278.994629 107.838104 251.9133 134.919373 218.506821 134.919373 C 185.100342 134.919373 158.019028 107.838104 158.019028 74.43161 C 158.019028 41.025116 185.100342 13.943817 218.506821 13.943817 C 251.9133 13.943817 278.994629 41.025116 278.994629 74.43161 Z"/>
    <path id="path3" fill="#7b83eb" stroke="none" d="M 299.160309 153.530884 L 128.547577 153.530884 C 118.898926 153.769669 111.266243 161.777023 111.490128 171.426041 L 111.490128 278.805756 C 110.142731 336.708618 155.952774 384.759064 213.854034 386.176117 C 271.75531 384.759064 317.565186 336.708618 316.217957 278.805756 L 316.217957 171.426041 C 316.441467 161.777023 308.80899 153.769669 299.160309 153.530884 Z"/>
    <path id="path4" fill="#000000" stroke="none" opacity="0.1" d="M 223.15979 153.530884 L 223.15979 304.005737 C 223.113449 310.906097 218.931961 317.105225 212.551178 319.732483 C 210.519562 320.591919 208.33609 321.034821 206.130157 321.03537 L 119.679169 321.03537 C 118.469482 317.964447 117.352791 314.893555 116.422081 311.729614 C 113.164635 301.051514 111.50251 289.950989 111.489952 278.787079 L 111.489952 171.398026 C 111.266243 161.764465 118.88636 153.769669 128.519577 153.530884 L 223.15979 153.530884 Z"/>
    <path id="path5" fill="#000000" stroke="none" opacity="0.2" d="M 213.854034 153.530884 L 213.854034 313.311493 C 213.853683 315.517426 213.410599 317.700897 212.551178 319.732483 C 209.923874 326.113281 203.724762 330.294983 196.824417 330.341125 L 124.052956 330.341125 C 122.470917 327.270203 120.982048 324.19928 119.679169 321.03537 C 118.376305 317.87146 117.352791 314.893555 116.422081 311.729614 C 113.164635 301.051697 111.50251 289.950989 111.489952 278.787079 L 111.489952 171.398026 C 111.266243 161.764465 118.88636 153.769669 128.519577 153.530884 L 213.854034 153.530884 Z"/>
    <path id="path6" fill="#000000" stroke="none" opacity="0.2" d="M 213.854034 153.530884 L 213.854034 294.700012 C 213.783112 304.075775 206.20018 311.658691 196.824417 311.729614 L 116.422256 311.729614 C 113.16481 301.051697 111.502693 289.950989 111.490128 278.787079 L 111.490128 171.398026 C 111.266434 161.764465 118.886536 153.769669 128.519745 153.530884 L 213.854034 153.530884 Z"/>
    <path id="path7" fill="#000000" stroke="none" opacity="0.2" d="M 204.548111 153.530884 L 204.548111 294.700012 C 204.477203 304.075775 196.894257 311.658691 187.518494 311.729614 L 116.422256 311.729614 C 113.16481 301.051697 111.502693 289.950989 111.490128 278.787079 L 111.490128 171.398026 C 111.266434 161.764465 118.886536 153.769669 128.519745 153.530884 L 204.548111 153.530884 Z"/>
    <path id="path8" fill="#000000" stroke="none" opacity="0.1" d="M 223.15979 105.419922 L 223.15979 134.733215 C 221.577728 134.826233 220.088867 134.919373 218.506821 134.919373 C 216.924774 134.919373 215.435913 134.826385 213.853867 134.733215 C 210.712753 134.52478 207.597488 134.026398 204.548111 133.244354 C 185.703766 128.781677 170.135361 115.565887 162.671997 97.696228 C 161.387787 94.695343 160.390854 91.579376 159.694077 88.390472 L 206.12999 88.390472 C 215.520462 88.426025 223.124069 96.029449 223.15979 105.419922 Z"/>
    <path id="path9" fill="#000000" stroke="none" opacity="0.2" d="M 213.854034 114.725677 L 213.854034 134.733215 C 210.712936 134.52478 207.597656 134.026398 204.548294 133.244354 C 185.703949 128.781677 170.135559 115.565887 162.672165 97.696228 L 196.824417 97.696228 C 206.214722 97.731781 213.818314 105.335358 213.854034 114.725677 Z"/>
    <path id="path10" fill="#000000" stroke="none" opacity="0.2" d="M 213.854034 114.725677 L 213.854034 134.733215 C 210.712936 134.52478 207.597656 134.026398 204.548294 133.244354 C 185.703949 128.781677 170.135559 115.565887 162.672165 97.696228 L 196.824417 97.696228 C 206.214722 97.731781 213.818314 105.335358 213.854034 114.725677 Z"/>
    <path id="path11" fill="#000000" stroke="none" opacity="0.2" d="M 204.548111 114.725677 L 204.548111 133.244171 C 185.703766 128.781494 170.135361 115.565704 162.671997 97.696045 L 187.518494 97.696045 C 196.908966 97.731781 204.51239 105.335358 204.548111 114.725677 Z"/>
    <linearGradient id="linearGradient1" x1="35.385817" y1="84.36763" x2="168.982837" y2="315.752172" gradientUnits="userSpaceOnUse">
        <stop offset="1e-05" stop-color="#5a62c3" stop-opacity="1"/>
        <stop offset="0.5" stop-color="#4d55bd" stop-opacity="1"/>
        <stop offset="1" stop-color="#3940ab" stop-opacity="1"/>
    </linearGradient>
    <path id="path12" fill="url(#linearGradient1)" stroke="none" d="M 16.877918 97.696045 L 187.490494 97.696045 C 196.911133 97.696045 204.547943 105.333038 204.547943 114.75351 L 204.547943 285.366089 C 204.547943 294.786713 196.910934 302.423523 187.490494 302.423523 L 16.877918 302.423523 C 7.457271 302.423523 -0.179533 294.78653 -0.179533 285.366089 L -0.179533 114.75351 C -0.179533 105.333038 7.45745 97.696045 16.877918 97.696045 Z"/>
    <path id="path13" fill="#ffffff" stroke="none" d="M 147.075577 162.631958 L 112.969666 162.631958 L 112.969666 255.503952 L 91.240753 255.503952 L 91.240753 162.631958 L 57.293175 162.631958 L 57.293175 144.615982 L 147.075577 144.615982 L 147.075577 162.631958 Z"/>
</svg>
