<?xml version="1.0" encoding="UTF-8"?>
<!-- Generated by Pixelmator Pro 3.5.6 -->
<svg width="400" height="400" viewBox="0 0 400 400" xmlns="http://www.w3.org/2000/svg">
    <path id="Path" fill="#6a7e91" fill-rule="evenodd" stroke="none" d="M 365.090881 305.395447 C 344.181824 304.486359 327.818176 307.213654 313.272736 312.668182 C 309.636353 314.486389 303.272736 314.486389 302.363647 319.03183 C 304.181824 320.850006 305.090912 324.486359 306.909088 327.213623 C 310.545441 332.668182 316 339.940918 320.545471 343.577301 C 326 348.122742 331.454559 351.759094 337.818176 355.395447 C 347.818176 361.759094 359.636353 365.395447 369.636353 371.759094 C 375.090912 375.395477 381.454559 379.940918 386.909088 384.486389 C 389.636353 386.304535 391.454559 389.940918 395.090912 391.759094 L 395.090912 390.849976 C 393.272736 388.122711 392.363617 385.395447 390.545471 382.668182 C 387.818176 379.940918 385.090912 377.213623 382.363647 375.395477 C 375.090912 365.395447 365.090881 356.304535 355.090912 348.122742 C 346.909088 342.668182 327.818176 334.486389 324.181793 324.486359 C 324.181793 324.486359 324.181793 324.486359 323.272736 323.577271 C 328.727264 322.668152 336 320.850006 341.454559 319.03183 C 350.545441 316.304565 358.727295 317.213623 367.818207 314.486389 C 372.363647 313.577271 376 311.759094 380.545441 310.850006 L 380.545441 308.122742 C 376 303.577271 372.363647 297.213623 366.909088 292.668182 C 353.272736 280.850006 338.727295 269.940918 323.272736 259.940918 C 315.090881 254.486374 304.181824 250.849991 296 246.304535 C 293.272736 244.486359 287.818176 243.577271 286 240.850006 C 281.454529 235.395462 278.727264 227.213638 275.090912 220.849991 C 267.818176 206.304535 259.636353 189.940918 253.27272 174.486359 C 248.727264 164.486359 246 153.577271 239.636353 144.486359 C 212.363632 99.03183 182.363632 71.759369 136.909088 45.395721 C 126.909088 39.941193 115.090912 37.213928 103.272728 34.486633 C 96.909096 34.486633 89.636368 33.577545 83.273003 33.577545 C 78.727547 31.759369 75.091187 26.30481 71.454819 24.486633 C 56.000271 14.486603 16.909363 -5.513367 6.000272 21.759369 C -1.272464 39.032074 16.909273 56.30481 22.363817 64.486664 C 26.909271 70.85025 32.363819 77.213898 36.000183 84.486633 C 37.818363 89.032074 38.727451 93.577545 40.545639 98.122986 C 45.091091 109.940918 48.727455 122.668182 54.182003 133.577271 C 56.909271 139.03183 60.545635 145.395447 64.181999 149.940903 C 66.000183 152.668182 69.636551 154.486374 70.545631 159.03183 C 66.909271 164.486359 66.909271 172.668182 64.181999 179.031815 C 54.182003 209.03183 58.727547 246.304535 71.454819 268.122742 C 76.000267 274.486359 86.000175 289.031799 99.63636 283.577271 C 111.454544 279.031799 108.727272 263.577271 112.36364 249.940918 C 113.27272 246.304535 112.36364 244.486359 114.181816 242.668182 L 114.181816 243.577271 C 117.818176 250.849991 121.454544 258.122742 125.090904 265.395447 C 133.272736 278.122711 147.818192 291.759094 159.636368 300.850006 C 166 305.395447 171.454544 313.577271 178.72728 317.213623 L 178.72728 316.304565 L 177.818176 316.304565 C 176 313.577271 174.181824 312.668182 171.454544 310.850006 C 166.909088 306.304535 161.454559 299.940887 157.818176 294.486359 C 146.909088 279.940918 136.909088 263.577271 127.818184 246.304535 C 123.272728 238.122726 119.636368 229.031815 116 220.849991 C 114.181816 218.122726 114.181816 212.668182 111.454544 210.849991 C 107.818184 216.30455 101.454552 221.759094 98.727272 229.031815 C 93.272728 240.850006 93.272728 254.486374 91.454544 269.031799 C 90.545448 269.031799 90.545448 269.031799 90.545448 269.940918 C 82.363815 268.122742 78.727547 259.03183 76.000267 251.759079 C 67.818459 232.668167 66.909271 202.668182 73.272911 180.850006 C 75.091087 175.395447 83.272911 158.122726 79.636543 152.668182 C 77.818367 147.213638 72.363907 144.486359 69.636635 140.849976 C 66.000275 135.395447 62.363819 129.031799 59.636547 123.577271 C 53.272911 109.031799 49.636547 92.668457 43.272907 77.213898 C 39.636547 69.941193 34.181999 62.668457 29.636547 56.30481 C 24.181999 49.032104 18.727547 44.486633 15.091182 35.395721 C 14.182092 32.668457 12.363818 28.123016 14.182 24.486633 C 15.09109 22.668457 16.000183 21.759369 17.818363 20.85025 C 21.454727 18.122986 31.454727 21.759369 34.181999 23.577545 C 44.182003 27.213898 52.363907 30.850281 60.545727 37.213928 C 64.182091 39.941193 67.818367 44.486633 73.272911 46.30484 L 78.727547 46.30484 C 86.909088 48.122986 96.909096 47.213898 105.090912 49.032104 C 118.727272 53.577545 131.454544 59.941193 143.272736 67.213928 C 177.818176 89.032074 206.909103 120.850006 226 158.122726 C 229.636368 164.486359 230.545441 169.940903 233.272736 176.30455 C 238.72728 189.031815 246 202.668182 251.454544 215.395447 C 256.909088 228.122711 262.363617 240.850006 270.545471 250.849991 C 274.181824 256.304535 290.545471 259.03183 297.818176 262.668182 C 303.272736 265.395447 311.454559 267.213623 316 269.940918 C 325.090912 275.395447 334.181824 281.759094 342.363617 288.122711 C 350.545441 293.577271 364.181824 299.940887 365.090881 305.395447 Z"/>
    <path id="path1" fill="#6a7e91" fill-rule="evenodd" stroke="none" d="M 98.182732 66.486176 C 93.637276 66.486176 90.910004 67.395264 87.273636 67.395264 L 87.273636 68.304382 L 88.18264 68.304382 C 90.000824 72.849823 93.637276 75.577087 96.36454 79.21344 C 98.182732 83.758881 100.000908 87.395264 102.728188 91.940887 L 103.637268 91.03183 C 107.273636 88.304352 109.09182 83.758881 109.09182 77.395294 C 107.273636 75.577087 107.273636 73.758911 105.455452 71.940704 C 103.637268 70.122528 100.000908 68.304382 98.182732 66.486176 Z"/>
</svg>
