<?xml version="1.0" encoding="UTF-8"?>
<!-- Generated by Pixelmator Pro 3.5.6 -->
<svg width="400" height="400" viewBox="0 0 400 400" xmlns="http://www.w3.org/2000/svg">
    <path id="Path" fill="#25c151" stroke="none" d="M 41.900002 370.106232 L 0 370.106232 L 0 159.793762 C 0 138.200012 8.8625 125.143768 16.275002 117.893738 C 32.712502 101.768768 55.024998 101.293762 58.662498 101.293762 L 124.574997 101.293762 C 148.106247 101.293762 161.637497 110.793732 169.056244 118.793762 C 183.71875 134.75 183.881241 155.375 183.556244 160.856247 L 183.556244 240.149994 C 183.556244 263.037476 174.206238 276.575012 166.474991 283.824982 C 150.518753 298.8125 129.412491 299.137512 124.412498 298.974976 L 41.900002 298.974976 Z M 126.024994 256.96875 C 128.274994 256.96875 134.568756 256.325012 137.949997 253.09375 C 140.53125 250.675018 141.824997 246.324997 141.824997 239.96875 L 141.824997 158.59375 C 141.824997 156.34375 141.34375 150.374985 138.118759 146.987488 C 134.993759 143.762482 129.09375 143.112518 124.581253 143.112518 L 58.331253 143.112518 C 41.893749 143.112518 41.893749 155.518753 41.893749 159.712509 L 41.893749 256.899994 Z M 358.100006 29.893768 L 400 29.893768 L 400 240.375 C 400 261.96875 391.137512 275.025024 383.725006 282.275024 C 367.287506 298.399994 344.975006 298.875 341.337494 298.875 L 275.425018 298.875 C 251.893753 298.875 238.362503 289.375 230.943756 281.375 C 216.28125 265.418762 216.118744 244.793747 216.443756 239.3125 L 216.443756 160.125015 C 216.443756 137.237488 225.793747 123.700012 233.524994 116.450012 C 249.481247 101.462494 270.587494 101.137482 275.587524 101.299988 L 358.100006 101.299988 Z M 273.974976 143.125 C 271.725006 143.125 265.431274 143.768738 262.050018 147 C 259.46875 149.418732 258.174988 153.768753 258.174988 160.125015 L 258.174988 241.5 C 258.174988 243.75 258.65625 249.718765 261.881256 253.106262 C 265.006256 256.331238 270.90625 256.981262 275.418762 256.981262 L 341.65625 256.981262 C 358.256256 256.818726 358.256256 244.481247 358.256256 240.218765 L 358.256256 143.125 Z"/>
</svg>
