<?xml version="1.0" encoding="UTF-8"?>
<!-- Generated by Pixelmator Pro 3.5.6 -->
<svg width="400" height="400" viewBox="0 0 400 400" xmlns="http://www.w3.org/2000/svg">
    <path id="Path" fill="#ffffff" stroke="none" d="M 237.476852 8.632324 C 220.799988 5.620056 203.732574 5.468109 187.004944 8.182861 C 177.388763 10.287506 168.094391 13.657715 159.364487 18.205353 C 131.724045 9.576141 102.016174 3.913208 73.207191 9.75592 C 62.975731 11.63327 53.241707 15.599396 44.611866 21.406738 C 35.982025 27.214081 28.641933 34.737915 23.049707 43.508698 C 9.566557 65.306519 7.319371 92.048096 9.341843 117.036865 C 13.199775 145.12674 19.209976 172.878647 27.31937 200.048096 C 33.736629 223.915512 43.160404 246.87056 55.364494 268.362701 C 62.780224 280.13797 72.622925 291.913269 86.600449 295.598633 C 92.075958 296.937988 97.793709 296.938873 103.270119 295.600891 C 108.746063 294.263367 113.819321 291.626526 118.061119 287.913269 C 122.444946 292.270111 127.719101 295.627869 133.52179 297.755981 C 150.343369 303.664734 168.724045 303.361816 185.34201 296.902039 C 186.285843 319.373932 185.34201 343.059326 193.791458 364.54248 C 195.157761 370.142029 197.620239 375.41571 201.03595 380.058411 C 204.451675 384.701141 208.753708 388.621124 213.693039 391.592377 C 218.631912 394.563141 224.111023 396.526276 229.813034 397.36853 C 235.515503 398.210327 241.327637 397.914154 246.915054 396.497559 C 257.782013 394.933472 268.25708 391.334839 277.791443 385.890808 C 287.45755 379.720459 295.075043 370.820221 299.679077 360.317749 C 310.240906 337.081818 310.73526 310.879547 312.173492 286.070557 C 336.398224 287.463837 362.151001 282.025604 380.667877 265.486298 C 387.948761 259.328979 394.151031 249.755966 391.409454 239.868317 C 390.0625 235.402695 387.217072 231.537979 383.352814 228.9263 C 379.488556 226.314606 374.841339 225.115509 370.195953 225.531235 C 361.207184 226.160461 351.768982 229.126755 342.330811 229.126755 C 363.89212 192.890793 379.093018 153.232361 387.274628 111.868317 C 390.151031 94.609863 391.769012 76.54248 387.274628 59.373932 C 384.622925 49.396393 377.386963 41.666016 370.33078 34.564911 C 354.066956 18.693237 333.388763 8.103577 311.004944 4.182861 C 286.466522 0.241119 261.360443 1.760345 237.476852 8.632324 L 237.476852 8.632324 Z"/>
    <path id="path1" fill="#ffffff" stroke="none" d="M 237.477753 19.957367 C 263.618408 11.334595 291.666962 10.290558 318.376617 16.946106 C 339.660248 22.72522 358.443146 35.363098 371.814819 52.901123 C 376.587433 60.461121 379.011688 69.266968 378.781128 78.204498 C 378.930756 93.858429 377.042236 109.465149 373.163147 124.63147 C 363.108765 164.50383 346.590576 202.45932 324.264252 236.991013 C 336.578888 242.249451 350.376648 239.6427 363.050781 237.350571 C 368.309204 236.316864 375.140656 235.013489 379.185608 239.687653 C 383.23056 244.361786 379.185608 251.148315 375.410339 254.878647 C 356.938446 272.856171 328.983368 277.665161 304.309235 273.485382 C 301.792358 295.552795 299.185638 317.620239 295.724945 339.597748 C 293.837311 351.867401 289.702484 364.63147 280.129456 373.080902 C 270.694824 380.36496 259.497986 385.017059 247.679993 386.564026 C 241.747864 387.889862 235.595963 387.884491 229.666077 386.547852 C 223.736633 385.210785 218.177078 382.57663 213.387863 378.833679 C 203.716858 369.812164 197.76944 357.500244 196.713699 344.316833 C 194.570786 322.13797 193.715515 299.853485 194.151917 277.575256 C 183.433258 286.7883 169.508316 291.392365 155.410339 290.384247 C 145.52269 289.575287 134.646286 288.04718 127.140671 280.811218 C 126.243591 279.932587 125.531242 278.883606 125.044945 277.72583 C 124.558197 276.568542 124.307861 275.325378 124.307861 274.069672 C 124.307861 272.813934 124.558197 271.571228 125.044945 270.413483 C 125.531242 269.255737 126.243591 268.206726 127.140671 267.328094 L 128.039551 266.519104 C 135.949661 260.541565 146.466507 260.991028 155.455276 257.530334 C 162.106964 255.552811 165.567642 249.080887 169.747406 244.04718 C 161.940674 243.525391 154.309219 241.495728 147.275497 238.069672 C 136.623825 249.440445 126.33168 261.170776 116.354156 273.125854 C 110.601349 280.04718 102.062019 285.889893 92.623817 284.721344 C 82.017082 283.417969 74.151909 275.103363 68.21933 266.743835 C 56.444046 249.979767 49.387775 230.788757 42.736092 211.373032 C 32.555012 180.61438 25.036674 149.037308 20.264179 116.991028 C 17.927101 92.811218 19.949574 66.42923 34.016991 45.800049 C 45.163055 29.305664 64.623817 20.22702 84.084496 18.204529 C 110.29213 16.249207 136.60405 20.212128 161.073257 29.800049 C 181.52269 16.316895 207.500229 14.294434 231.050781 19.058472 C 233.128998 19.709961 235.300674 20.013672 237.477753 19.957367 L 237.477753 19.957367 Z M 256.668762 26.653931 C 261.747406 30.159576 267.455292 32.631439 272.533936 36.092133 C 293.320435 50.355072 309.710999 70.139343 319.859772 93.215729 C 323.270111 99.731689 325.029663 106.985168 324.983368 114.339325 C 324.983368 129.350586 319.949646 144.04718 321.477753 159.283142 C 322.915955 175.238205 326.376617 191.597763 322.331665 207.462921 C 320.721771 212.920898 318.677765 218.241348 316.21933 223.373032 C 316.21933 224.13707 316.668762 225.710114 316.803589 226.429214 C 318.7164 223.933929 320.472351 221.321793 322.062012 218.608994 C 338.443146 191.091675 351.121796 161.533035 359.769867 130.698853 C 364.663361 114.097107 367.264282 96.904236 367.500214 79.597778 C 367.884064 72.114166 365.919556 64.697083 361.882233 58.384277 C 351.956421 45.901917 338.875977 36.297424 323.994598 30.564087 C 302.320923 23.004395 278.954163 21.711487 256.578857 26.83371 L 256.668762 26.653931 Z M 194.91597 28.766296 C 186.621582 29.86496 178.627853 32.599884 171.398651 36.812347 C 164.169434 41.024841 157.848984 46.631012 152.803589 53.305603 C 139.32045 71.283142 133.253036 94.069672 131.590118 116.226959 C 145.073257 109.84494 160.668762 103.867401 175.994598 107.687653 C 180.862015 109.02652 185.26651 111.681335 188.723145 115.360474 C 192.180222 119.039551 194.556396 123.600433 195.590103 128.541595 C 200.084488 148.182022 202.466507 168.990997 198.106964 188.811234 C 194.736191 204.901123 184.938431 218.788773 181.612579 234.923599 C 185.804489 234.937531 189.943832 235.857071 193.747421 237.620224 C 197.478653 239.819778 200.530792 243.005829 202.568542 246.827408 C 204.606293 250.649445 205.550568 254.959549 205.297974 259.283142 C 204.713699 281.215729 204.758652 303.193268 205.927185 325.080872 C 206.178421 334.154633 207.29213 343.184265 209.253036 352.04718 C 212.533936 362.564056 219.814819 373.260681 231.410339 375.373047 C 243.73259 376.728516 256.174377 374.265167 267.050781 368.316864 C 277.927185 362.83371 282.376648 350.83371 284.21933 339.6427 C 288.039551 316.226959 290.691223 292.676392 293.208099 269.170776 C 294.376617 260.766296 292.713715 251.552811 297.387878 244.002258 C 300.539337 239.644501 304.94516 236.351913 310.017059 234.564041 C 305.857971 229.660675 302.10022 224.430115 298.781128 218.923584 C 287.005829 194.833694 271.320465 172.04718 266.466522 145.260666 C 264.354156 133.755035 265.567627 120.496643 274.781128 112.541595 C 285.073242 103.552826 299.455292 104.226959 312.174377 104.676422 C 304.325867 83.002258 290.562256 63.960907 272.444061 49.710114 C 250.354614 32.706177 222.436401 25.128876 194.781113 28.6315 L 194.91597 28.766296 Z M 78.376633 30.609039 C 70.651237 31.860901 63.28854 34.770813 56.795055 39.138733 C 50.301212 43.506653 44.830379 49.229218 40.758564 55.912354 C 30.376539 73.889893 29.252945 95.687653 31.09564 115.957306 C 35.03973 142.466522 40.928268 168.649429 48.713619 194.294373 C 54.721348 216.295273 63.511459 237.439545 74.87101 257.215729 C 79.365395 263.822479 84.488991 271.193237 92.578873 273.530334 C 99.500229 274.923584 104.938423 269.260681 109.073257 264.541565 C 118.062019 253.215729 128.264267 242.698883 137.747421 231.552811 C 130.796844 225.243149 125.459328 217.3591 122.182922 208.561798 C 118.906517 199.764954 117.786064 190.310562 118.915955 180.991013 C 120.867859 166.65123 121.379776 152.151901 120.444046 137.710114 C 119.063377 117.142487 121.70472 96.503387 128.21933 76.946075 C 132.96225 62.473267 140.729446 49.175262 151.005844 37.934906 C 127.545166 30.743866 102.646286 25.800018 78.241798 30.474182 L 78.376633 30.609039 Z M 282.960907 120.496643 C 275.904724 126.024719 276.264282 136.092133 277.702484 144.04718 C 282.781128 169.035965 297.387878 190.474167 308.62381 212.901123 C 317.02832 196.002243 311.859772 176.94606 310.556396 158.968536 C 309.118195 144.541565 313.522675 130.519104 313.972137 116.226959 C 303.635071 115.552795 291.904724 114.114594 282.960907 120.496643 L 282.960907 120.496643 Z M 131.140671 129.485413 C 131.365402 141.485382 132.219315 153.530334 131.410339 165.44046 C 131.050797 176.04718 127.949661 186.653931 130.331696 197.305618 C 133.837296 216.137085 150.556412 232.631454 170.241791 232.496628 C 173.079086 223.031464 176.547409 213.767639 180.623825 204.766296 C 192.399109 181.485397 190.556412 154.069656 184.354156 129.395508 C 183.418884 126.011688 181.427856 123.014374 178.671463 120.839996 C 175.915054 118.665619 172.537079 117.427429 169.02832 117.305634 C 155.352356 117.348328 142.041351 121.722687 131.005844 129.800018 L 131.140671 129.485413 Z M 308.578857 247.732574 C 304.893494 251.148315 305.163116 256.721344 305.118225 261.215729 C 313.306091 263.588318 321.921814 264.095276 330.331696 262.698883 C 343.260223 261.817993 355.528992 256.663818 365.208069 248.04718 C 349.972137 249.889877 333.297974 253.575272 319.005829 246.024719 C 317.300201 245.167175 315.366302 244.874603 313.483154 245.189667 C 311.600464 245.504715 309.866943 246.41124 308.533905 247.777527 L 308.578857 247.732574 Z M 164.309219 265.305603 C 155.814835 270.339355 145.477753 269.799988 136.668762 274.294373 C 154.646286 283.283142 179.275497 280.226959 191.635056 263.462921 C 197.972122 257.575287 191.635056 245.125854 183.500229 246.294373 C 175.590103 251.417969 172.309204 261.170776 164.12944 265.575287 L 164.309219 265.305603 Z"/>
    <path id="path2" fill="#ffffff" stroke="none" d="M 286.152374 123.913269 C 288.743378 122.173492 291.743378 121.138885 294.855743 120.910126 C 297.968536 120.681793 301.087189 121.267426 303.905151 122.609894 C 303.787842 124.306061 303.253937 125.947418 302.350586 127.387878 C 301.447174 128.828308 300.202698 130.023804 298.727173 130.868317 C 297.251221 131.712799 295.590118 132.180237 293.89032 132.229218 C 292.19101 132.278198 290.505615 131.90741 288.983826 131.149231 C 286.377075 130.025635 283.186066 126.385162 286.152374 123.913269 Z"/>
    <path id="path3" fill="#ffffff" stroke="none" d="M 162.555969 124.406281 C 165.25798 123.61438 168.106064 123.453918 170.880463 123.937073 C 173.654388 124.420227 176.280457 125.533936 178.555954 127.19281 C 181.612137 129.664703 178.825623 133.799988 176.218872 135.283142 C 174.699783 136.21167 172.982025 136.766296 171.206741 136.900665 C 169.431458 137.035522 167.649902 136.746094 166.008087 136.057068 C 164.36673 135.368103 162.912369 134.298889 161.764938 132.937531 C 160.617981 131.575745 159.810791 129.961334 159.409897 128.226501 C 159.376633 127.315491 159.678207 126.423828 160.257965 125.720001 C 160.837753 125.015747 161.655289 124.548767 162.555969 124.406281 L 162.555969 124.406281 Z"/>
    <path id="path4" fill="#326690" stroke="none" d="M 256.534821 26.565216 C 278.924042 21.463715 302.301117 22.81955 323.950562 30.475281 C 338.831909 36.208649 351.911926 45.813141 361.838226 58.295746 C 365.901123 64.597321 367.867432 72.022491 367.456207 79.509216 C 367.220215 96.815277 364.619324 114.008545 359.725861 130.610321 C 351.077759 161.444489 338.399109 191.003143 322.017975 218.520447 C 320.428284 221.233261 318.672363 223.84494 316.759521 226.340668 C 316.759521 225.57663 316.31012 224.003601 316.175293 223.2845 C 318.653931 218.160889 320.698425 212.839111 322.287628 207.37439 C 326.377502 191.509201 322.91684 175.149658 321.433685 159.194611 C 319.90564 144.138428 325.029205 129.441803 324.939301 114.250793 C 324.927643 106.955048 323.154602 99.769897 319.770813 93.306946 C 309.675079 70.17572 293.31369 50.327637 272.534821 36.003357 C 267.32135 32.542725 261.613495 30.070831 256.534821 26.565216 Z"/>
    <path id="path5" fill="#326690" stroke="none" d="M 194.78067 28.631104 C 222.483582 25.141998 250.440903 32.769592 272.533478 49.844513 C 290.675049 64.101563 304.455292 83.160004 312.308777 104.855713 C 299.589661 104.406281 285.342468 103.911896 274.915527 112.720886 C 265.477295 120.58606 264.398651 133.934387 266.466064 145.260223 C 271.36496 172.226517 287.140228 194.698425 298.78067 218.923141 C 302.099792 224.430115 305.857086 229.660217 310.016632 234.563599 C 304.970795 236.400436 300.57843 239.683136 297.387421 244.001801 C 292.893036 251.552353 294.331238 260.765869 293.207642 269.170349 C 290.511017 292.720917 287.859314 316.271454 284.218872 339.642242 C 282.421112 350.878174 277.657074 362.743378 267.050354 368.316406 C 256.207642 374.358215 243.736191 376.827423 231.409897 375.372589 C 219.814377 373.350098 212.57843 362.563599 209.252594 352.046753 C 207.314606 343.179779 206.20134 334.152802 205.926743 325.080444 C 204.758209 303.19281 204.758209 281.260223 205.297531 259.282715 C 205.55011 254.959106 204.605835 250.649002 202.568085 246.827408 C 200.530334 243.005386 197.477753 239.819321 193.746964 237.619781 C 189.943359 235.856628 185.804047 234.937073 181.612137 234.923157 C 184.848099 218.788315 194.645844 204.900681 198.106522 188.810776 C 202.600906 168.900665 200.084045 148.361343 195.589661 128.541107 C 194.555954 123.600006 192.179764 119.039093 188.722702 115.360016 C 185.265625 111.680908 180.861572 109.026062 175.994156 107.687164 C 160.713257 103.866943 145.387421 109.844482 131.589661 116.226501 C 133.297531 94.024292 139.275055 71.282684 152.803146 53.305145 C 157.820679 46.620667 164.114166 40.997925 171.31955 36.762573 C 178.525406 32.527191 186.499313 29.763397 194.78067 28.631104 Z"/>
    <path id="path6" fill="#326690" stroke="none" d="M 78.240898 30.473663 C 102.600449 25.979279 127.6791 30.743378 150.960007 37.889435 C 140.570343 49.187866 132.723602 62.582458 127.948761 77.170349 C 121.434158 96.727661 118.793259 117.36673 120.173485 137.934387 C 121.109665 152.376175 120.597755 166.875504 118.645393 181.215286 C 117.515953 190.534378 118.636398 199.98877 121.912804 208.786057 C 125.189209 217.583374 130.526291 225.466965 137.476852 231.777084 C 128.038651 242.833252 118.016182 253.39505 108.802696 264.765839 C 104.757751 269.260223 99.364494 275.237732 92.308311 273.754608 C 84.263374 271.417542 79.094833 264.046753 74.600449 257.440002 C 62.465618 238.024277 55.139774 216.091675 48.443279 194.518646 C 40.690651 168.782028 34.847057 142.508301 30.96018 115.911896 C 29.162426 95.462494 30.330967 73.889435 40.668045 55.911896 C 44.729935 49.216614 50.18998 43.477295 56.67461 39.086914 C 63.15955 34.696503 70.515953 31.758484 78.240898 30.473663 L 78.240898 30.473663 Z"/>
    <path id="path7" fill="#326690" stroke="none" d="M 282.870117 120.58786 C 291.858887 114.205841 303.54425 115.644043 313.881348 116.093475 C 313.431915 130.430542 309.027405 144.363144 310.465607 158.835068 C 311.768982 176.812592 316.937531 195.823822 308.53302 212.767654 C 297.252106 190.295731 282.600464 168.947418 277.611694 143.913696 C 276.12854 136.18338 275.768982 126.071014 282.870117 120.58786 Z M 286.151001 123.913727 C 283.139771 126.250763 286.375732 130.026062 288.937531 131.194611 C 290.45932 131.952789 292.144714 132.323608 293.844482 132.274597 C 295.543823 132.225616 297.204926 131.758209 298.680878 130.913696 C 300.156403 130.069214 301.400909 128.873718 302.304291 127.433258 C 303.207642 125.992828 303.741547 124.35144 303.858856 122.655304 C 301.050812 121.314606 297.942474 120.72583 294.838654 120.946503 C 291.734833 121.166748 288.741119 122.189209 286.151001 123.913727 Z"/>
    <path id="path8" fill="#326690" stroke="none" d="M 131.005386 129.800018 C 142.071014 121.856628 155.361801 117.609863 168.98291 117.665161 C 172.493484 117.814392 175.864716 119.080444 178.605392 121.279541 C 181.345612 123.47821 183.312363 126.494843 184.218887 129.889893 C 190.376175 154.519104 192.308762 181.889893 180.488541 205.260666 C 176.406296 214.187424 172.922699 223.376175 170.061569 232.766296 C 150.37619 232.766296 133.657074 216.271912 130.151459 197.575272 C 127.814384 186.968536 130.87056 176.361801 131.230118 165.710114 C 132.084045 153.84494 131.185165 141.799988 131.005386 129.800018 Z M 162.46608 124.406738 C 161.581573 124.557739 160.781128 125.022461 160.211685 125.715973 C 159.641785 126.409424 159.341568 127.284943 159.364944 128.182037 C 159.765854 129.916412 160.573044 131.53125 161.720444 132.892578 C 162.867416 134.253937 164.321793 135.323151 165.963593 136.012146 C 167.604935 136.701569 169.386963 136.99057 171.162247 136.856171 C 172.937088 136.721344 174.655273 136.166748 176.173935 135.23819 C 178.825623 133.755035 181.612137 129.620239 178.511017 127.148315 C 176.237305 125.503815 173.617081 124.401794 170.851685 123.9263 C 168.085846 123.451233 165.248093 123.615295 162.555969 124.406738 L 162.46608 124.406738 Z"/>
    <path id="path9" fill="#326690" stroke="none" d="M 308.399994 248.048538 C 309.724487 246.684494 311.447174 245.775742 313.320892 245.452591 C 315.194153 245.129898 317.121796 245.408997 318.826996 246.250778 C 333.164032 253.801346 349.793274 250.115952 365.029236 248.273254 C 355.335266 256.866058 343.075043 262.01709 330.152802 262.924957 C 321.743378 264.333496 313.124939 263.826538 304.939331 261.441803 C 304.894379 256.857544 304.894379 251.464264 308.399994 248.048538 Z"/>
    <path id="path10" fill="#326690" stroke="none" d="M 164.128098 265.575287 C 172.352814 261.080902 175.633713 251.417969 183.319092 246.384262 C 191.67865 245.215744 197.791016 257.665161 191.453934 263.552795 C 179.094376 280.316833 154.330338 283.462921 136.48764 274.384277 C 145.296631 270.294373 155.58876 270.653931 164.128098 265.575287 Z"/>
    <path id="path11" fill="#000000" stroke="none" d="M 237.47731 8.63266 C 261.323608 1.723755 286.404938 0.188812 310.915497 4.138275 C 333.25708 8.050964 353.900208 18.607605 370.151459 34.43042 C 377.207611 41.486603 384.443573 49.306976 387.095276 59.239563 C 391.589661 76.363129 389.97168 94.565399 387.095276 111.733948 C 378.883148 153.088974 363.684509 192.742477 342.151459 228.992355 C 351.589661 228.992355 360.623383 225.981125 370.016632 225.396851 C 374.662445 224.981125 379.309235 226.180222 383.173462 228.791916 C 387.038208 231.403595 389.883606 235.268311 391.230103 239.733932 C 393.97168 249.621567 387.76944 259.194611 380.488525 265.351898 C 361.926758 281.846283 336.218872 287.329437 311.994171 285.936188 C 310.555969 310.969879 310.016632 336.947418 299.499786 360.18338 C 294.895721 370.685852 287.278198 379.58606 277.612122 385.756409 C 268.057526 391.155487 257.591003 394.75058 246.735733 396.363129 C 241.148758 397.779755 235.336182 398.075958 229.634171 397.234161 C 223.931686 396.391907 218.453033 394.428772 213.513702 391.458008 C 208.574387 388.486755 204.272812 384.566742 200.856628 379.924042 C 197.440903 375.280914 194.978424 370.007629 193.612137 364.408112 C 185.342484 342.880005 186.151474 319.464294 185.162704 296.767639 C 168.544708 303.227417 150.164047 303.530334 133.342468 297.621582 C 127.53978 295.493042 122.265617 292.135742 117.881798 287.77887 C 113.634605 291.482239 108.560898 294.112823 103.086746 295.44989 C 97.612587 296.787415 91.897522 296.791931 86.42112 295.464264 C 72.488541 291.688995 62.645844 280.003601 55.185165 268.228333 C 43.010651 246.721802 33.588448 223.770325 27.140181 199.913712 C 19.030787 172.744278 13.020629 144.992355 9.162661 116.902466 C 7.140189 91.913696 9.162656 65.082245 22.870516 43.374268 C 28.46274 34.603485 35.802876 27.07959 44.432674 21.272247 C 53.062519 15.464935 62.796856 11.498779 73.027863 9.621429 C 101.836853 3.733795 131.454834 9.621429 159.185181 18.070862 C 167.923141 13.540894 177.215286 10.17157 186.825623 8.048401 C 203.623367 5.406921 220.745163 5.604431 237.47731 8.63266 Z M 237.47731 19.868622 C 235.320007 19.949127 233.164032 19.675812 231.095291 19.059631 C 207.544724 14.565247 181.657089 16.183228 161.117752 29.801208 C 136.611237 20.305389 110.288986 16.420013 84.084045 18.43042 C 64.668312 20.452911 45.162655 29.441681 34.016582 46.02594 C 19.859282 66.655304 18.016584 93.037292 20.263775 117.217072 C 25.036268 149.263382 32.554607 180.840454 42.735687 211.599106 C 48.536449 231.198212 57.037754 249.894394 67.994156 267.149658 C 73.926743 275.37439 81.791916 283.644043 92.398651 285.127197 C 101.836853 286.295715 110.376175 280.632813 116.12899 273.531677 C 126.106514 261.576599 136.398651 249.846298 147.050339 238.475494 C 154.084488 241.901123 161.715515 243.931244 169.522247 244.453033 C 165.342468 249.441803 161.881805 255.913712 155.230118 257.936188 C 146.241348 261.396851 135.76944 260.947418 127.814384 266.924927 C 125.860672 268.487183 124.606735 270.760925 124.328537 273.247192 C 124.050789 275.733032 124.77079 278.227875 126.331238 280.18338 L 127.140228 281.082245 C 134.555954 288.273254 145.47731 289.801331 155.409897 290.655273 C 169.447189 291.614838 183.298431 287.013916 193.97168 277.846313 C 193.540665 300.079102 194.39595 322.318634 196.533478 344.453033 C 197.589218 357.635956 203.536636 369.948303 213.207626 378.969879 C 218.005844 382.69574 223.565842 385.319977 229.492142 386.655731 C 235.418869 387.991913 241.566742 388.007172 247.499771 386.700226 C 259.34967 385.272797 270.577087 380.607635 279.949219 373.217102 C 289.522247 364.767639 293.432373 352.003601 295.544708 339.733917 C 299.005402 317.756409 301.612122 295.688995 304.128998 273.621582 C 328.848083 277.801331 356.803162 273.037292 375.230133 255.014832 C 379.18515 251.2845 382.915497 244.857529 379.005371 239.823807 C 375.095306 234.790115 368.17395 236.453018 362.870575 237.486755 C 350.151459 239.823807 336.353699 242.38562 324.084015 237.127197 C 346.410339 202.595505 362.928558 164.639557 372.982941 124.767639 C 376.89212 109.60495 378.810791 93.99823 378.690765 78.340668 C 378.910583 69.404053 376.487213 60.601807 371.724518 53.037292 C 358.329437 35.482819 339.512817 22.843384 318.196411 17.082123 C 291.554169 10.437256 263.578888 11.434143 237.47731 19.958527 L 237.47731 19.868622 Z"/>
</svg>
