<?xml version="1.0" encoding="UTF-8"?>
<!-- Generated by Pixelmator Pro 3.5.6 -->
<svg width="400" height="400" viewBox="0 0 400 400" xmlns="http://www.w3.org/2000/svg">
    <g id="Group">
        <path id="Path" fill="#e01e5a" stroke="none" d="M 85.669296 251.968506 C 85.669296 274.960632 67.086609 293.543304 44.09449 293.543304 C 21.102362 293.543304 2.519685 274.960632 2.519685 251.968506 C 2.519685 228.976364 21.102362 210.393707 44.09449 210.393707 L 85.669296 210.393707 L 85.669296 251.968506 Z M 106.456688 251.968506 C 106.456688 228.976364 125.039375 210.393707 148.031494 210.393707 C 171.023621 210.393707 189.606308 228.976364 189.606308 251.968506 L 189.606308 355.905518 C 189.606308 378.897644 171.023621 397.480316 148.031494 397.480316 C 125.039375 397.480316 106.456688 378.897644 106.456688 355.905518 L 106.456688 251.968506 Z"/>
        <path id="path1" fill="#36c5f0" stroke="none" d="M 148.031494 85.039368 C 125.039375 85.039368 106.456688 66.456696 106.456688 43.464569 C 106.456688 20.472443 125.039375 1.889771 148.031494 1.889771 C 171.023621 1.889771 189.606308 20.472443 189.606308 43.464569 L 189.606308 85.039368 L 148.031494 85.039368 Z M 148.031494 106.141724 C 171.023621 106.141724 189.606308 124.724396 189.606308 147.716537 C 189.606308 170.708649 171.023621 189.291336 148.031494 189.291336 L 43.779526 189.291336 C 20.787401 189.291336 2.204724 170.708649 2.204724 147.716537 C 2.204724 124.724396 20.787401 106.141724 43.779526 106.141724 L 148.031494 106.141724 Z"/>
        <path id="path2" fill="#2eb67d" stroke="none" d="M 314.64566 147.716537 C 314.64566 124.724396 333.228363 106.141724 356.220459 106.141724 C 379.212616 106.141724 397.795288 124.724396 397.795288 147.716537 C 397.795288 170.708649 379.212616 189.291336 356.220459 189.291336 L 314.64566 189.291336 L 314.64566 147.716537 Z M 293.858276 147.716537 C 293.858276 170.708649 275.275604 189.291336 252.283463 189.291336 C 229.291351 189.291336 210.708664 170.708649 210.708664 147.716537 L 210.708664 43.464569 C 210.708664 20.472443 229.291351 1.889771 252.283463 1.889771 C 275.275604 1.889771 293.858276 20.472443 293.858276 43.464569 L 293.858276 147.716537 Z"/>
        <path id="path3" fill="#ecb22e" stroke="none" d="M 252.283463 314.330719 C 275.275604 314.330719 293.858276 332.913391 293.858276 355.905518 C 293.858276 378.897644 275.275604 397.480316 252.283463 397.480316 C 229.291351 397.480316 210.708664 378.897644 210.708664 355.905518 L 210.708664 314.330719 L 252.283463 314.330719 Z M 252.283463 293.543304 C 229.291351 293.543304 210.708664 274.960632 210.708664 251.968506 C 210.708664 228.976364 229.291351 210.393707 252.283463 210.393707 L 356.535431 210.393707 C 379.527557 210.393707 398.110229 228.976364 398.110229 251.968506 C 398.110229 274.960632 379.527557 293.543304 356.535431 293.543304 L 252.283463 293.543304 Z"/>
    </g>
</svg>
